<?xml version="1.0" standalone="no"?>
<!DOCTYPE svg PUBLIC "-//W3C//DTD SVG 1.1//EN" "http://www.w3.org/Graphics/SVG/1.1/DTD/svg11.dtd" >
<svg xmlns="http://www.w3.org/2000/svg">
<metadata>
<json>
<![CDATA[
{
	"fontFamily": "nano-icons",
	"description": "Font generated by IcoMoon.",
	"majorVersion": 1,
	"minorVersion": 0,
	"version": "Version 1.0",
	"fontId": "nano-icons",
	"psName": "nano-icons",
	"subFamily": "Regular",
	"fullName": "nano-icons"
}
]]>
</json>
</metadata>
<defs>
<font id="nano-icons" horiz-adv-x="1024">
<font-face units-per-em="1024" ascent="959.9374389051809" descent="-64.06256109481916" />
<missing-glyph horiz-adv-x="1024" />
<glyph unicode="&#x20;" horiz-adv-x="512.5004887585533" d="" />
<glyph unicode="&#xe900;" glyph-name="powers" data-tags="Campaign" d="M960 704h-166.4l-236.8 236.8c-25.6 25.6-64 25.6-89.6 0l-236.8-236.8h-166.4c-38.4 0-64-25.6-64-64v-640c0-38.4 25.6-64 64-64h896c38.4 0 64 25.6 64 64v640c0 38.4-25.6 64-64 64zM512 806.4l102.4-102.4h-204.8l102.4 102.4zM896 64h-768v512h768v-512zM832 512h-640v-384h640v384z" />
<glyph unicode="&#xe901;" glyph-name="sixdices" data-tags="Baccarat" d="M1024 832l-256-256-256 256-256-256-256 256v-704c0-35.347 28.654-64 64-64h896c35.347 0 64 28.653 64 64v704z" />
<glyph unicode="&#xe902;" glyph-name="bp-e-fighting" data-tags="Fighting" d="M793.939 960h-371.885c-119.793 0-210.332-108.488-188.906-226.344l51.262-281.942-113.953 191.129-27.153-21.941c-54.984-44.429-63.539-125.023-19.109-180.008l195.801-242.303v-134.592c0-70.694 57.308-128 128-128h319.997c70.694 0 128 57.306 128 128v192l86.848 477.656c21.427 117.855-69.114 226.344-188.902 226.344z" />
<glyph unicode="&#xe903;" glyph-name="basketball" data-tags="Basketball" d="M512 960c-281.6 0-512-230.4-512-512s230.4-512 512-512c281.6 0 512 230.4 512 512s-230.4 512-512 512zM659.2 512h-83.2v313.6c64-12.8 121.6-38.4 172.8-76.8-51.2-70.4-83.2-153.6-89.6-236.8zM448 512h-83.2c-6.4 83.2-38.4 166.4-89.6 236.8 51.2 38.4 108.8 64 172.8 76.8v-313.6zM236.8 512h-102.4c6.4 51.2 25.6 96 51.2 140.8 25.6-44.8 44.8-89.6 51.2-140.8zM236.8 384c-6.4-51.2-25.6-96-51.2-140.8-25.6 44.8-44.8 89.6-51.2 140.8h102.4zM364.8 384h83.2v-313.6c-64 12.8-121.6 38.4-172.8 76.8 51.2 70.4 83.2 153.6 89.6 236.8zM576 384h83.2c12.8-83.2 44.8-166.4 96-236.8-51.2-38.4-108.8-64-172.8-76.8v313.6h-6.4zM787.2 384h102.4c-6.4-51.2-25.6-96-51.2-140.8-25.6 44.8-44.8 89.6-51.2 140.8zM787.2 512c6.4 51.2 25.6 96 51.2 140.8 25.6-38.4 44.8-89.6 51.2-140.8h-102.4z" />
<glyph unicode="&#xe904;" glyph-name="spades" data-tags="Blackjack" d="M928.019 426.688c0.038 59.751-22.874 117.236-64 160.576l-328.963 341.632c-6.166 6.005-14.433 9.365-23.040 9.365s-16.874-3.36-23.040-9.365l-328.96-341.632c-40.483-42.364-63.582-98.386-64.723-156.972s19.761-115.464 58.566-159.374c38.804-43.904 92.682-71.642 150.963-77.709 58.282-6.074 116.719 9.965 163.738 44.934-21.445-74.208-69.235-138.042-134.4-179.52-5.721-3.814-10.061-9.37-12.378-15.846s-2.484-13.523-0.481-20.102c2.004-6.579 6.073-12.333 11.606-16.422 5.532-4.083 12.233-6.272 19.109-6.253h320.003c6.861 0.006 13.542 2.221 19.059 6.31 5.51 4.096 9.555 9.856 11.546 16.429 1.984 6.573 1.805 13.606-0.512 20.070-2.317 6.458-6.656 12.006-12.365 15.814-65.105 41.402-112.888 105.107-134.403 179.2 39.878-29.702 88.259-45.766 137.987-45.824 62.221 0.070 121.875 24.813 165.875 68.813 43.994 44 68.742 103.653 68.813 165.875z" />
<glyph unicode="&#xe905;" glyph-name="bp-e-racing" data-tags="Racing" d="M276.611 388.928l-108.8-86.912c-12.301-9.843-27.8-14.797-43.529-13.926-15.729 0.877-30.583 7.52-41.719 18.662l-64 64c-10.842 10.81-17.45 25.148-18.624 40.413s3.163 30.445 12.224 42.787l243.84 334.848v107.2c0 16.974 6.743 33.252 18.745 45.255s28.281 18.745 45.255 18.745c186.712 0 365.777-74.172 497.802-206.197s206.195-311.091 206.195-497.803c-4.205-92.531-20.006-184.173-47.040-272.768-3.68-13.562-11.718-25.536-22.88-34.067-11.162-8.538-24.826-13.165-38.88-13.165h-659.197c-9.728 0-19.329 2.221-28.071 6.483-8.742 4.269-16.397 10.477-22.382 18.144s-10.143 16.602-12.157 26.118c-2.015 9.517-1.834 19.373 0.531 28.806 26.109 102.374 86.849 192.557 171.904 255.232 94.976 86.208 178.176 145.216 146.176 305.216 0-50.922-20.228-99.757-56.236-135.764s-84.843-56.236-135.764-56.236c-14.604 0.004-29.16 1.657-43.392 4.928z" />
<glyph unicode="&#xe906;" glyph-name="bp-starcraft" data-tags="Starcraft" d="M98.098 610.027h177.768c77.406-88.821 157.705-178.898 235.11-267.705 32.972-38.61 15.771-83.666-35.849-83.666h-460.19c35.833 32.186 71.683 63.070 107.516 93.971 18.632 15.429 15.77 11.576 37.279 0 37.28-19.311 58.774-23.18 114.686-23.18h84.575c-85.99 93.959-173.428 186.634-260.897 280.579zM659.706 624.2c-12.909-79.786-21.51-173.773 22.938-239.401 30.099-46.316 91.75-79.788 190.694-79.788-48.755-37.306-90.349-50.195-147.686-48.928-120.396 3.872-223.635 110.703-229.359 230.396-1.43 45.046 7.154 95.244 25.818 137.72h137.596zM632.488 703.986c-38.71 0-87.437-42.477-107.516-69.524h319.7c8.602 0 14.342-5.139 17.216-11.576 8.602-15.457 8.602-20.595 22.912-10.291 21.51 14.159 65.946 43.761 106.099 69.496 30.125 19.311 21.51 21.88-17.216 21.88l-341.196 0.014zM155.441 703.986c-50.173 0-78.836-18.041-78.836-70.794h265.205c38.71 0 51.619 0 73.113-24.436 12.909-12.874 15.771-12.874 28.68 1.285 21.635 24.28 43.617 48.307 65.944 72.079 11.462 11.575 5.723 21.88-12.909 21.88l-341.196-0.014z" />
<glyph unicode="&#xe907;" glyph-name="bp-events" data-tags="Calendar" d="M960 768h-128v128c0 35.328-28.608 64-64 64s-64-28.672-64-64v-128h-384v128c0 35.328-28.608 64-64 64s-64-28.672-64-64v-128h-128c-35.392 0-64-28.672-64-64v-704c0-35.328 28.608-64 64-64h896c35.392 0 64 28.672 64 64v704c0 35.328-28.608 64-64 64zM896 64h-768v512h768v-512z" />
<glyph unicode="&#xe908;" glyph-name="bp-casino" data-tags="Casino" d="M320 832h448c0 33.948-13.485 66.505-37.491 90.51s-56.563 37.49-90.509 37.49h-512c-33.948 0-66.505-13.486-90.51-37.49s-37.49-56.562-37.49-90.51v-512c0-33.946 13.486-66.502 37.49-90.509s56.562-37.491 90.51-37.491v448c0 50.922 20.228 99.757 56.236 135.764s84.843 56.236 135.764 56.236zM896 768h-576c-33.948 0-66.505-13.485-90.509-37.491s-37.491-56.562-37.491-90.509v-576c0-33.946 13.485-66.502 37.491-90.509s56.562-37.491 90.509-37.491h576c33.946 0 66.502 13.485 90.509 37.491s37.491 56.563 37.491 90.509v576c0 33.948-13.485 66.505-37.491 90.509s-56.563 37.491-90.509 37.491zM416 80c-15.823 0-31.29 4.691-44.445 13.485-13.156 8.787-23.41 21.28-29.465 35.898-6.055 14.624-7.639 30.707-4.552 46.227 3.087 15.514 10.706 29.773 21.894 40.96s25.443 18.81 40.961 21.894c15.518 3.085 31.604 1.504 46.221-4.557 14.618-6.054 27.113-16.307 35.903-29.459 8.79-13.158 13.482-28.627 13.482-44.448 0-21.216-8.429-41.568-23.432-56.57s-35.351-23.43-56.568-23.43zM416 464c-15.823 0-31.29 4.692-44.445 13.482s-23.41 21.285-29.465 35.903c-6.055 14.618-7.639 30.703-4.552 46.221s10.706 29.773 21.894 40.961c11.188 11.188 25.443 18.808 40.961 21.894s31.604 1.503 46.221-4.552c14.618-6.055 27.113-16.309 35.903-29.465s13.482-28.623 13.482-44.445c0-21.217-8.429-41.565-23.432-56.568s-35.351-23.432-56.568-23.432zM800 80c-15.821 0-31.29 4.691-44.448 13.485-13.152 8.787-23.405 21.28-29.459 35.898-6.061 14.624-7.642 30.707-4.557 46.227 3.085 15.514 10.707 29.773 21.894 40.96s25.446 18.81 40.96 21.894c15.52 3.085 31.603 1.504 46.227-4.557 14.618-6.054 27.11-16.307 35.898-29.459 8.794-13.158 13.485-28.627 13.485-44.448 0-21.216-8.429-41.568-23.43-56.57s-35.354-23.43-56.57-23.43zM800 464c-15.821 0-31.29 4.692-44.448 13.482-13.152 8.79-23.405 21.285-29.459 35.903-6.061 14.618-7.642 30.703-4.557 46.221s10.707 29.773 21.894 40.961c11.187 11.188 25.446 18.808 40.96 21.894 15.52 3.087 31.603 1.503 46.227-4.552 14.618-6.055 27.11-16.309 35.898-29.465 8.794-13.156 13.485-28.623 13.485-44.445 0-21.217-8.429-41.565-23.43-56.568s-35.354-23.432-56.57-23.432z" />
<glyph unicode="&#xe909;" glyph-name="bp-dota" data-tags="Subtract" d="M449.625 960c1.26-0.524 49.055-20.213 69.812-0.562 0.255-0.215 13.665-11.497 35.875-9.562 22.438 1.963 58.939-17.392 59.5-46 0 0 8.391 7.058 42.314 6.5-0.506 4.513 18.483 19.895 0 31.938 0 0 15.443 14.070 195.501-5 0 0 9.562 0.544 1.997 13.438-7.558 12.883 11.974 7.021 7.565 7.562 0.090-0.618 6.029-39.597 27.437-15.437 0 0 49.939-23.814 50.502-1.938l9.562-5.875 27.501-0.563c0 0-3.104-13.487 28.307-19.937 0.109-0.486 11.418-51.938-3.936-60.312 0.25-1.199 19.251-92.781 5.875-251.875l-29.44-0.563 11.501-29.437c-0.467-0.145-29.293-9.181-13.434-37 0.653 0.27 15.13 6.195 4.435-4.5-0.077-0.369-2.208-11.565 14.061-14.875-0.173-0.746-9.344-39.827 10.374-38.438-0.403-0.947-15.277-36.012-3.936-44.312-0.346-0.655-8.896-17.146-5.875-46-0.205-0.225-4.723-4.845-12.934 2-0.403-0.368-15.974-14.803 26.938-10.375l3.936-414.561c0 0-81.901 47.411-113.312 16l38.438-3.066-2.566-5.062-16.499-0.563c0 0 0.538-18.496-12.058-1.434-0.442-0.41-31.29-28.627-87.814-0.499 0 0-27.501-11.514-49.939 5.875-0.646 0.122-15.475 2.733-18.502-12.064-0.582 0.102-24.8 4.365-58.31-5.875l2.502 8.934h-4.499l-0.563-10.938c-0.32-0.269-5.28-4.378-12.064-1.933l4.499 15.437c-0.48 0.134-10.445 2.803-13.997-6.502l8.371 2.003-2.496-10.938c0 0-19.917-19.93-44.316-3.942l24.936 1.939c0 0 4.48 3.091 3.936 7.565-1.318 0.019-97.874 1.363-94.81-6.438l7.625-5.875c0 0-32.573-12.032-47.437-1.939l-0.563 9.504-5.062-0.563-8.375-12.064c0 0-14.059 24.96-57.812 10.938l3.125-10.938c0 0-15.453 1.414-21.062-5.875l-24.375 39.814c0 0-35.925-16.512-53.875 2.56-0.143-0.032-3.132-0.806-4.5-9.562-0.653 0.038-15.024 1.075-21.875 23.002-0.532-0.16-11.378-3.578-7-23.002-0.218 0.243-12.042 13.562-12.876 21.062l-9-9.562 6.437-7.565-3.062-3.936c0 0-13.485 14.022-19.375 10.938l0.563-8.435-5.875-1.939-7.562 11.501c0 0-8.439-4.486-9-10.938l-3.062 4.499-4.5-3.123h-5.875c0 0-1.978 12.902-5.062 14.874l-3.062-8.378h-11.5v7.565l-10.938-7.565c0 0-12.901 1.939-15.437-10.374l-7 3.066c0.026 0.25 1.341 13.536-3.938 19.373-0.22 0.090-7.058 2.778-8.437-13.498-0.467-0.16-8.488-2.707-10.938 8.998h-5.875l1.375-16c-0.093 0.326-3.459 11.475-29.438 8.435-0.821-0.051-30.053-1.843-33.937 8.378l-2.5-16c0 0-1.967 14.048-30 1.434l-6.438 0.563 0.563 8.442h-3.937l-2.562-14.067-6.438 1.44c0.28 0.48 6.288 10.97-0.562 13.44-0.298-0.077-10.38-2.675-11.5-12.877l-6.438 3.059 0.562 14.003-29.438 4.499c0.22 0.397 19.215 35.155 5 148.627 0 0 0.613 39.834 7.062 49.933l15.375 0.563 4.5 108.813-19.875 3.13c-0.152 0.691-8.942 41.161-3.937 131.247 0.189 0.108 3.369 1.731 12.062-5.875l2.5 4.5-8.938 5 0.563 9.562 17.375-9.562 1.375 38.437c-0.679 0.314-35.092 16.562-12.875 72.938-0.281 0.888-31.338 99.75-9.562 328.687l-5.875 3.125c0 0-1.964-15.427-11.5-0.563l1.937 51.875 11.5-1.438-1.375-3.875-4.5-1.438 2-23.812 3.875-0.562 5.375 41.188c0.937-0.944 32.244-31.897 69.813 6.5l5.875-11.25 27.5-1.375 6.438-5.062 3.937 10.375 3.937-0.562 7-9.562 5.062 5.938 11.5-0.562 7-7.625 4.5 4.5 46-1.375 10.938 6.438 1.375-6.438 20.5-2.562 8.438 11.5c0.582-0.821 12.603-17.406 33.937-18.5 21.754-1.389 64.792 1.404 65.313 1.438 0 0 12.887-12.060 17.375 0 1.668 4.485 1.873 6.638 1.75 7.625l16.25 0.5c0.379-0.167 6.081-2.241 11.5 21.875l6.437-13.5 3.063 14.063 19.937-2c0.508-0.379 9.178-6.511 15.437 9zM197.437 343.5c-0.995-2.141-51.932-111.903-61.375-141.062-9.348-28.602 2.052-33.446 2.5-33.626l84.687-62.874 0.875 8.435 4.5-0.563 5.875 3.936 0.563-9.248 2.25 4.749c3.084 5.043 5.313 0 5.313 0-2.222-6.029-4.381-8.429-6.188-9.12 8.614-2.682 10.671 5.99 10.687 6.061l8.687-5.376 141.625 45.44-200 193.247zM231.375 106.502c0.098-0.166 2.155-3.501 5.063-2.374-1.472 0.454-3.187 1.146-5.063 2.374zM225.812 763.125c-0.219 0.234-34.74 36.847-106.312-9.563l246-262.5c0.796 0.101 18.614 2.188 24.375-12.062 5.777-14.58-3.578-2.47-3.938-2.001l-7.562 5.938 99.313-107.75c0 0-12.098 33.386 3.875 3.125 15.987-30.010 41.563-51.875 41.563-51.875l3.875 5.875-14.813 16.563c0 0-10.981 12.847 4.438 4.438l19.375-24.938c-0.089-0.284-4.337-14.161 10.375-26.372l-3.062 10.374c0.614-0.346 13.145-7.546 23.812-28.877l-0.563 8.435 10.938-10.374-4.5-5.939 102.373-109.619c0.070-0.166 24.045-56.403 151.75-48 0 0 60.89 77.446 65.939 193.562l-84.749 56.935-49.312 4.5 0.563 8.375 18.496-7.562 6.438-0.563-10.938 9 5.062 5.875-406.687 276.813c-0.028-0.001-25.558-1.381-24.437 15.437l-10.375 0.563-5.875 5.875-5.875-4.5-3.124 3.125 3.937 6.438-15.688 8.437 7.563-9.562-3.938-1.937-16.5 16.5 3.875 4.5-75.688 53.313zM776.064 764.25c-0.608 0.444-16.301 11.556-46.816 1.937-31.002-9.775-126.815-33.983-127.623-34.188l168.314-129.062 2.189 4.5-8.128 3.937c-0.205 0.261-5.082 6.712 4.813 6.438 10.342-0.314 7.565-19.625 7.565-19.625h9.498l5.376-7 9.248 0.563 20.435 131.563-5.869-0.312 0.557-5.063c-0.109-0.478-2.592-10.97-5.062-1.375-2.509 9.775 3.091 12.855 3.13 12.875l6.688-1.937 0.307 4.188-44.621 32.563zM377 930.063l-1.75-0.063c0 0 1.542 1.726 1.75 0.063z" />
<glyph unicode="&#xe90a;" glyph-name="banan" data-tags="Counterstrike" d="M421.485 957.501c16.326 5.657 34.159 0.934 49.121-6.445 10.454-6.731 20.909-13.533 32.616-17.937 0.895-1.683 2.756-5.012 3.652-6.659-0.465-1.11-1.361-3.401-1.826-4.511 8.342-18.975 13.677-41.46 5.585-61.398-5.514-6.731-15.109-7.773-22.878-10.38-0.036-9.631 1.504-19.158 2.327-28.717 16.612-2.685 30.676 8.879 47.11 7.734 2.22 9.201 3.974 18.553 6.917 27.572 3.401-5.98 3.54-12.857 3.58-19.588 4.296-1.217 8.664-2.327 13.060-3.398 0.043-1.651 0.076-4.945 0.076-6.591 72.035-0.429 144.032 0.326 216.070-0.394-0.179-2.463-0.531-7.408-0.672-9.882 1.862 0 5.658-0.036 7.546-0.036-0.070 13.1 0 26.243-0.038 39.343 1.83 0.076 5.408 0.183 7.2 0.219 0.045-10.312 0.077-20.623 0.179-30.938 1.574-1.933 4.723-5.796 6.304-7.73 1.184 1.4 3.546 4.15 4.723 5.549 5.478-5.123 2.362-12.141 2.118-18.435 20.154 0.218 40.518-1.142 60.614 0.505 1.504 1.11 4.512 3.293 6.016 4.4 2.758-1.071 5.549-2.148 8.307-3.258 9.056 0.222 18.15 0.251 27.245 0.287-0.186-4.691-0.333-9.377-0.512-14.070-11.706 0.182-23.45 0.429-34.976-1.572-7.45 6.405-17.44 4.371-26.426 4.615-13.818-0.644-28.077 1.79-41.459-2.611-7.955-2.22-16.685-1.686-23.699 2.829-1.69-4.189 0.896-13.569-6.163-13.208-27.789-0.362-55.533 0.247-83.283-0.182-3.789-2.005-7.622-3.903-11.411-5.761-4.006-11.958-15.501-19.939-25.286-27.243-1.216-18.367 6.054-35.516 8.883-53.342-5.478-1.572-10.995-3.19-16.397-4.98-7.772-18.331-3.008-43.354-20.982-56.142-13.784-8.017-22.907-25.452-41.496-22.699 9.452-7.877-2.578-5.407-1.325 0.895-33.619 2.972-61.939 22.699-91.154 37.732-1.36-8.231-3.505-16.326-5.728-24.381 11.099-2.113 20.264-10.275 22.234-21.661 3.544-24.815-3.545-49.451-3.437-74.33 0.788-14.607-5.478-27.994-13.283-39.916-6.838-7.734-17.615 0.218-25.814 1.36-1.866-3.616-3.688-7.235-5.478-10.884 2.327-9.734 3.329-19.867 6.588-29.391 18.295-20.228 34.943-42.143 47.725-66.31 13.157-27.369 24.882-55.404 35.126-83.988 0.999-5.555 6.226-7.546 10.816-9.562 0.609-5.728 1.217-11.45 1.79-17.254 1.79-2.611 3.616-5.222 5.478-7.872 1.11-35.302-3.222-70.458-8.707-105.293-3.394-15.725 5.8-31.078 2.077-46.906 0.429-8.102-5.149-14.221-7.77-21.382-0.501-16.717-1.324-33.651 0.509-50.342 1.282-12.243 11.636-20.115 18.653-29.248 7.662-8.128 14.071-19.046 25.671-21.946 10.92-3.258 21.338-7.981 30.962-14.182 2.936-7.264 2.399-14.963 1.003-22.515-20.98-3.866-42.391-1.933-63.586-2.259-16.333-0.858-30.898 7.917-46.765 9.741-15.359 0.39-34.084-7.232-45.892 6.515 5.005 19.078 5.406 39.565 14.564 57.357 2.936 20.154-2.643 40.602-1.468 60.941-1.747 1.466-5.263 4.403-7.018 5.875 1.261 13.28-5.295 25.101-7.483 37.805-1.425 18.56-3.114 37.094-5.263 55.571-1.683 8.986 2.972 17.216 9.309 23.194 0.573 10.387 1.976 20.666 2.972 30.97-1.539 6.701-6.874 11.674-10.311 17.402-11.492-4.838-26.995-2.547-33.834 8.704-16.215 24.128-32.402 48.262-48.799 72.251-6.445 0.426-13.247-0.251-19.262 2.327-6.938 7.121-10.562 16.609-14.994 25.273-6.34-7.124-5.879-18.041-13.39-24.525-15.896-15.256-20.122-37.668-28.428-57.214-6.366-12.672-2.785-27.955-9.882-40.314-3.795-6.656-13.318-7.981-15.825-15.578-3.294-8.192-7.161-16.678-14.858-21.664-8.342-5.472-10.558-15.859-14.278-24.448-3.401-7.91 1.647-16.218 0.465-24.346-5.299-25.818-21.732-47.405-28.642-72.685-3.151-11.386-7.665-24.205-20.913-26.63-15.073-26.925-23.375-59.872-14.854-90.182 5.227-9.523 4.941-20.23 3.33-30.72-23.949-1.862-48.513-5.082-72.032 1.606-5.514 10.925-4.726 23.776-3.58 35.584 7.265 31.046 16.899 61.549 22.803 92.909-7.375 6.554-5.653 16.576-5.514 25.35-0.247 16.358 10.884 29.466 18.618 42.893 2.904 13.779 1.543 28.595 8.664 41.242 8.381 15.827 15.467 32.934 28.396 45.722 2.467 11.277 10.78 19.795 14.138 30.656 3.58 9.594-2.685 19.334-1.425 29.139 3.076 29.76 8.486 59.22 13.176 88.758-8.876 7.411-6.015 19.187-8.844 29.18 1.396 3.938 3.151 7.693 5.263 11.349-2.22 2.041-4.4 4.117-6.623 6.154 2.148 10.501 1.539 29.298 17.651 25.885 1.002 34.765-11.063 68.419-7.018 103.223 2.148-2.502 4.257-5.048 6.409-7.59l-1.146 11.779c6.731 3.58 13.891 6.337 21.41 7.733-12.244 1.608-24.167 4.723-36.168 7.519-2.9 7.629-1.282 15.753-0.215 23.558 4.654 26.351 6.373 53.059 7.34 79.768 13.569 4.719 28.535 0.712 41.782 7.018-4.11 33.404-5.148 68.272 6.731 100.319 9.56 27.285 27.823 53.6 56.318 63.192 13.462 3.219 30.396 6.838 39.913-6.23 2.613 2.399 5.227 4.869 7.841 7.268-21.729 43.157 4.228 106.206 53.536 115.085zM595.375 770.324c-5.729-3.509-11.35-7.523-5.327-13.895-2.936-1.751-5.879-3.437-8.851-5.044-4.655-3.581-15.109-5.618-13.892-12.857 5.229-8.396 9.734-17.222 13.466-26.383 11.418 9.377 20.511 21.987 26.669 35.334 1.289 1.325 3.906 3.974 5.192 5.267-0.573 6.122-1.933 12.105-4.332 17.758-4.296-0.075-8.628-0.143-12.925-0.179z" />
<glyph unicode="&#xe90b;" glyph-name="bp-betpanda" data-tags="Betpanda-grey" d="M944.954 574.694c-1.587 2.781-2.381 5.562-2.381 8.343s0.794 5.959 2.381 8.343c24.23 42.112 32.179 94.157 15.098 148.982-17.478 55.223-62.758 99.719-117.971 115.611-74.675 21.851-144.979-2.781-189.069-51.647-1.99-2.384-4.371-3.973-7.155-4.767-2.778-0.795-5.555-1.192-8.735 0-57.198 14.302-118.368 19.467-181.127 12.713-23.435-2.384-46.076-6.754-68.319-12.316-3.575-0.794-7.15-0.397-10.328 0.795-1.986 0.794-3.972 2.383-5.561 3.972-44.487 48.469-114.396 73.101-188.673 51.251-55.212-16.289-100.89-60.388-118.367-115.213-17.080-54.428-9.533-106.473 14.3-148.586 1.588-2.383 2.383-5.562 2.383-8.343 0-3.178-0.794-5.959-2.383-8.74-40.118-63.169-67.128-135.873-75.867-213.343-1.986-19.070-3.178-37.742-3.178-56.020 0-65.946 23.435-125.939 62.759-173.216 51.637-61.581 129.49-100.512 215.684-100.512h474.268c90.957 0 171.59 45.293 221.242 114.816 31.379 44.096 50.048 97.734 50.048 155.738 0 99.718-28.602 192.684-77.85 271.346l-1.197 0.795zM395.221 331.157c0-23.439-10.724-44.098-27.010-58.402-13.108-11.123-30.188-17.875-48.856-17.875h-80.236c-32.173 0-56.801 18.669-68.717 43.302-12.71 27.016-9.93 61.182 15.094 86.211l80.236 80.252c23.832 23.837 55.609 27.413 82.221 16.686s47.665-36.153 47.665-70.32v-80.252l-0.397 0.397zM621.232 181.382c-27.407-29.798-66.731-48.077-110.424-48.077s-83.016 18.675-110.424 48.077c-5.958 6.355-6.355 14.694-2.78 21.453 3.178 5.562 8.739 9.933 16.285 9.933h193.837c7.944 0 14.3-4.768 17.080-11.123 2.78-6.362 1.986-13.907-3.575-19.866v-0.397zM851.213 298.579c-11.52-24.634-36.141-43.302-68.717-43.302h-80.237c-26.214 0-49.248 13.107-62.756 33.37-8.341 12.32-13.108 26.618-13.108 42.511v80.252c0 35.756 23.038 62.374 52.036 71.909 25.421 8.74 55.213 3.972 77.85-18.275l80.237-80.252c25.024-25.029 27.802-59.196 14.694-86.212z" />
<glyph unicode="&#xe90c;" glyph-name="bp-sport-basketball" data-tags="sport-basketball" d="M186.159 494.8c-2.176-15.286-3.302-30.912-3.302-46.8 0-87.123 33.851-166.342 89.117-225.219 40.479 153.248 138.237 284.778 270.33 372.179-14.144 14.224-28.954 27.709-44.381 40.4-32.486-18.717-69.043-30.915-107.786-34.989-9.226-0.97-18.531-1.475-27.894-1.51-71.594-7.622-135.528-46.045-176.084-104.061zM199.766 552.422c49.63 47.075 116.199 74.998 187.776 75.258 30.883 3.28 60.224 12.307 86.835 26.066-41.389 30.661-86.746 55.802-135.296 74.37-64.844-40.114-114.719-102.115-139.316-175.693zM585.037 769.011c-23.491 5.322-47.936 8.132-73.037 8.132-50.781 0-98.874-11.499-141.821-32.036 46.454-19.888 89.888-45.587 129.648-76.204 36.522 24.829 66.208 59.292 85.21 100.108zM611.856 761.723c-19.856-44.648-51.117-82.687-89.83-110.746 15.286-12.935 29.968-26.625 44.010-41.015 53.632 32.369 112.394 57.676 174.87 74.548-36.054 34.903-80.067 61.636-129.050 77.213zM496.138 119.232c17.306 32.867 29.578 107.594 29.578 191.626v30.131c0.813 70.339 32.762 133.197 82.714 175.424-14.541 20.451-30.208 39.939-46.922 58.342-132.986-86.563-230.243-219.418-266.773-374.006 54.264-47.722 124.367-77.862 201.404-81.517zM526.144 119.155c76.925 3.251 147.018 32.909 201.453 80.134-11.821 108.125-48.25 208.765-103.664 294.285-43.373-37.715-70.79-93.299-70.79-155.29v-27.427c0-78.899-10.214-150.003-26.998-191.702zM830.544 531.171c-22.662 8.426-46.845 12.829-71.686 12.829-41.744 0-80.586-12.435-113.021-33.798 54.762-83.955 91.869-181.904 106.451-287.142 55.11 58.848 88.854 137.955 88.854 224.941 0 28.733-3.68 56.605-10.598 83.171zM820.416 563.213c-13.568 36.304-33.363 69.571-58.086 98.501-63.376-15.611-122.938-40.204-177.142-72.261 16.032-17.936 31.12-36.829 45.197-56.586 36.835 24.371 80.998 38.56 128.474 38.56 21.059 0 41.718-2.797 61.558-8.214zM512 64c-212.077 0-384 171.923-384 384s171.923 384 384 384c212.077 0 384-171.923 384-384s-171.923-384-384-384z" />
<glyph unicode="&#xe90d;" glyph-name="bp-sport-icehockey" data-tags="sport-icehockey" d="M653.84 566.134l83.526-50.115 27.133 51.971-83.408 50.045-27.251-51.901zM640.784 541.264l-120.47-229.434c-12.25-23.328-39.45-34.534-64.576-26.608l-170.381 53.757c-7.373 2.326-15.053 3.536-22.784 3.59-42.819 0.301-77.773-34.17-78.074-76.986l-0.41-58.442c-0.002-0.301-0.002-0.301-0.002-0.602 0.033-42.822 34.772-77.507 77.591-77.475l234.815 0.182c23.942 0.016 45.898 13.331 56.979 34.557l170.893 327.312-83.581 50.147zM694.15 642.905l83.35-50.012 56.528 108.269c12.813 24.539 4.006 54.814-19.965 68.655-0.79 0.449-0.79 0.449-1.594 0.877-22.176 11.644-49.59 3.106-61.235-19.069l-57.085-108.72zM217.938 626.803v-56.384c0-39.818 59.005-73.181 140.212-73.181 81.222 0 140.221 33.363 140.221 73.2v61.034c-29.53-23.418-79.891-36.083-141.005-36.083-62.201 0-110.961 10.413-139.428 31.414zM218.052 679.461c0.059-34.216 51.71-56.027 139.314-56.027 79.83 0 134.899 23.376 140.87 56.285-3.146 38.365-61.114 69.91-140.086 69.91-79.142 0-137.189-31.687-140.098-70.168zM358.15 469.194c-94.639 0-168.256 41.626-168.256 101.226v106.008c0 59.615 73.612 101.245 168.256 101.245 94.653 0 168.266-41.629 168.266-101.245v-105.988c0-59.616-73.613-101.245-168.266-101.245zM701.578 777.699c26.045 49.6 87.366 68.697 136.966 42.653 1.795-0.957 1.795-0.957 3.562-1.963 50-28.866 68.362-92.009 41.642-143.186l-280.557-537.357c-20.742-39.728-61.837-64.653-106.656-64.688l-234.813-0.179c-73.796-0.054-133.665 59.722-133.721 133.517 0 0.522 0 0.522 0.003 1.040l0.41 58.442c0.517 73.792 60.758 133.194 134.552 132.678 13.324-0.096 26.56-2.179 39.267-6.189l169.064-53.341 230.282 438.572z" />
<glyph unicode="&#xe90e;" glyph-name="bp-sport-soccer" data-tags="sport-soccer" d="M353.28 275.862c42.496-20.896 89.242-32.438 137.68-33.498l80.989 92.765c0.934 54.742-11.706 108.816-36.762 157.226l-160.163 37.293c-33.424-33.485-59.346-73.811-75.799-118.253l54.055-135.533zM344.845 249.472l-54.138-45.123c58.449-53.117 136.090-85.491 221.293-85.491 16.352 0 32.426 1.19 48.138 3.494l-69.389 92.582c-51.21 1.066-100.72 12.96-145.904 34.538zM183.498 427.299h92.437c18.471 47.085 46.817 89.69 82.99 125.002v99.794c-32.112 7.763-65.21 10.608-98.221 8.484-48.563-57.35-77.846-131.545-77.846-212.579 0-6.954 0.215-13.856 0.64-20.701zM733.171 340.854c28.586 29.117 51.549 63.261 67.642 100.691l-43.702 149.11c-37.059 18.87-77.446 30.56-119.44 34.31l-74.317-127.581c22.246-45.622 34.486-95.584 35.926-146.442l133.891-10.090zM749.082 317.965v-98.278c52.064 54.051 85.818 125.859 91.28 205.45l-15.59 2.726c-18.064-41.018-43.763-78.31-75.69-109.898zM767.952 654.954c-48.381 59.763-117.27 102.243-195.962 116.734-11.091-12.963-21.114-26.723-30.003-41.168l89.866-77.592c44.429-2.937 87.344-14.061 127.002-32.605l9.098 34.631zM514.704 738.367c7.648 13.045 16.128 25.599 25.408 37.592-9.267 0.784-18.643 1.184-28.112 1.184-86.797 0-165.747-33.597-224.556-88.497 25.809-0.402 51.51-3.604 76.665-9.588 1.056 0.84 2.25 1.533 3.552 2.040l147.043 57.269zM512 64c-212.077 0-384 171.923-384 384s171.923 384 384 384c212.077 0 384-171.923 384-384s-171.923-384-384-384z" />
<glyph unicode="&#xe90f;" glyph-name="bp-sport-tennis" data-tags="sport-tennis" d="M700.47 470.317l65.315 65.315-65.315 65.315-65.318-65.315 65.318-65.315zM720.614 450.173l45.142-45.146c21.658 24.637 37.331 53.411 47.101 83.533l-26.928 26.928-65.315-65.315zM823.312 593.158c-4.339 35.19-16.915 67.77-37.594 93.040l-65.104-65.107 65.315-65.315 37.382 37.382zM824.79 554.352l-18.717-18.72 14.902-14.906c2.051 11.203 3.322 22.458 3.814 33.626zM680.326 450.173l-65.315 65.315-65.318-65.315 65.318-65.315 65.315 65.315zM700.47 430.029l-65.318-65.315 27.69-27.69c29.67 10.032 58.099 25.971 82.794 47.84l-45.165 45.165zM556.358 326.202l38.509 38.512-65.315 65.315-65.146-65.142c25.453-21.12 57.491-34.029 91.952-38.685zM594.845 324.403c11.997 0.461 24.099 1.856 36.144 4.189l-15.978 15.978-20.166-20.166zM549.693 621.091l65.318-65.315 65.315 65.315-65.315 65.317-65.318-65.317zM529.552 641.235l65.315 65.316-26.928 26.928c-30.122-9.769-58.896-25.442-83.533-47.099l45.146-45.145zM672.538 743.934l-37.386-37.383 65.318-65.316 65.107 65.107c-25.27 20.676-57.85 33.253-93.040 37.593zM633.728 745.413c-11.165-0.493-22.419-1.763-33.622-3.814l14.906-14.905 18.717 18.719zM529.552 600.947l-65.318-65.315 65.318-65.315 65.315 65.315-65.315 65.315zM509.408 621.091l-45.165 45.165c-21.869-24.692-37.808-53.124-47.84-82.794l27.69-27.686 65.315 65.315zM405.581 476.979c4.656-34.461 17.565-66.496 38.685-91.949l65.142 65.142-65.315 65.315-38.512-38.509zM403.782 515.466l20.166 20.166-15.978 15.978c-2.333-12.045-3.728-24.147-4.189-36.144zM369.331 398.41c-38.598-105.222-69.744-172.275-94.805-203.053l-1.946-2.157-60.429-60.429 61.49 61.437c16.289 14.698 45.313 30.678 86.34 49.024 17.635 7.885 37.267 16.083 58.563 24.518 18.998 7.523 38.771 15.024 58.858 22.381-23.616 10.822-45.254 25.504-63.821 44.070-18.669 18.669-33.408 40.445-44.25 64.208zM346.662 505.453c-0.294 74.966 28.915 153.32 87.062 211.466 107.046 107.048 289.075 113.783 382.717 20.143 93.638-93.64 86.902-275.67-20.144-382.716-58.147-58.147-136.499-87.354-211.466-87.062-0.413-0.157-0.835-0.304-1.261-0.445-2.198-0.717-6.387-2.106-12.278-4.090-9.856-3.318-20.848-7.085-32.691-11.229-33.808-11.827-67.606-24.275-99.078-36.739-20.576-8.15-39.466-16.038-56.285-23.562-35.738-15.978-60.97-29.872-70.373-38.304l-80.572-80.573c-11.125-11.123-29.161-11.123-40.286 0l-40.286 40.288c-11.125 11.123-11.125 29.162 0 40.285l79.474 79.475c25.516 32.288 64.766 124.208 115.134 272.138 0.106 0.31 0.214 0.621 0.333 0.925zM206.591 664.262c5.198 22.096 16.424 42.501 32.92 58.997 15.641 15.641 34.801 26.549 55.602 32.069-7.616 22.297-25.983 39.611-48.919 45.761-5.651-20.173-16.395-38.738-31.623-53.966-15.73-15.73-35.019-26.674-55.958-32.164 6.036-24.131 24.382-43.384 47.979-50.698zM235.281 661.48c33.946 3.59 60.777 31.030 63.423 65.249-14.559-4.507-27.94-12.501-39.051-23.612-11.77-11.769-20.039-26.085-24.372-41.637zM157.5 744.34c13.737 4.61 26.359 12.359 36.926 22.926 10.181 10.181 17.746 22.267 22.408 35.423-30.237-4.63-54.212-28.277-59.334-58.349zM227.703 632.595c-55.064 0-99.703 44.638-99.703 99.702s44.638 99.703 99.703 99.703c55.064 0 99.702-44.638 99.702-99.703s-44.638-99.702-99.702-99.702z" />
<glyph unicode="&#xe912;" glyph-name="scale" data-tags="Fair" d="M597.333 533.333c0-102.741 66.731-213.333 213.336-213.333 146.598 0 213.331 110.592 213.331 213.333 0 8.875-2.771 17.579-7.936 24.79l-212.947 298.112c-4.442 6.357-10.624 11.648-18.304 14.976-5.76 2.517-11.482 3.157-17.754 3.456h-510.12c-5.59-0.128-11.947-0.939-17.75-3.456-7.68-3.286-13.909-8.576-18.304-14.976l-212.949-298.112c-5.163-7.211-7.936-15.915-7.936-24.79 0-102.741 66.731-213.333 213.333-213.333s213.334 110.592 213.334 213.333c0 5.803-1.152 11.52-3.456 16.811l-102.486 239.189h148.608v-725.333h-256c-23.552 0-42.666-19.072-42.666-42.669 0-23.59 19.114-42.662 42.666-42.662h597.336c23.552 0 42.662 19.072 42.662 42.662 0 23.597-19.11 42.669-42.662 42.669h-256.002v725.333h148.61l-102.488-239.189c-2.304-5.291-3.456-11.008-3.456-16.811zM337.579 533.333h-242.475l151.509 212.182 90.966-212.182zM777.344 745.515l151.552-212.182h-242.477l90.925 212.182z" />
<glyph unicode="&#xe913;" glyph-name="bp-fifa" data-tags="Fifa" d="M0 615.936v-335.872h106.069v121.301h73.728l28.63 73.387h-102.358v68.181h124.587l27.179 73.003h-257.835zM290.304 615.936l-0.171-335.872h104.832v335.872h-104.661zM467.371 615.936v-335.872h105.984v121.301h73.64l28.89 73.387h-102.53v68.181h124.674l27.302 73.003h-257.96zM794.112 615.936l-120.749-335.872h101.338l13.056 45.141h118.144l13.651-45.141h104.448l-121.043 335.872h-108.845zM846.803 529.621l41.856-139.818h-82.214l40.358 139.818z" />
<glyph unicode="&#xe914;" glyph-name="Fighting" data-tags="Fighting" d="M793.939 960h-371.885c-119.793 0-210.332-108.488-188.906-226.344l51.262-281.942-113.953 191.129-27.153-21.941c-54.984-44.429-63.539-125.023-19.109-180.008l195.801-242.303v-134.592c0-70.694 57.308-128 128-128h319.997c70.694 0 128 57.306 128 128v192l86.848 477.656c21.427 117.855-69.114 226.344-188.902 226.344z" />
<glyph unicode="&#xe915;" glyph-name="dealer2" data-tags="Game Shows" d="M704 384v128c0 38.4-25.6 64-64 64h-576c-38.4 0-64-25.6-64-64v-512c0-38.4 25.6-64 64-64h576c38.4 0 64 25.6 64 64v128l320-128v512l-320-128zM160 640c88.365 0 160 71.635 160 160s-71.635 160-160 160c-88.365 0-160-71.635-160-160s71.635-160 160-160zM512 640c70.692 0 128 57.308 128 128s-57.308 128-128 128c-70.692 0-128-57.308-128-128s57.308-128 128-128z" />
<glyph unicode="&#xe916;" glyph-name="mush" data-tags="Games" d="M576 896c0 16.974-6.743 33.252-18.745 45.255s-28.281 18.745-45.255 18.745c-16.974 0-33.252-6.743-45.255-18.745s-18.745-28.281-18.745-45.255v-192h128v192zM957.184 540.421c-5.978 42.452-26.074 81.657-57.050 111.299s-71.021 47.995-113.696 52.104c-42.675 4.109-85.491-6.265-121.549-29.452-36.063-23.187-63.27-57.836-77.242-98.367h-151.296c-13.971 40.531-41.178 75.181-77.238 98.367s-78.876 33.561-121.551 29.452c-42.675-4.109-82.724-22.463-113.697-52.104s-51.069-68.846-57.050-111.299c0 0-66.816-436.735-66.816-444.415-0.037-17.837 4.92-35.334 14.311-50.496 9.39-15.168 22.839-27.405 38.823-35.322 15.984-7.923 33.866-11.206 51.622-9.491 17.755 1.722 34.675 8.378 48.844 19.213l257.216 172.096h202.368l257.216-172.096c14.17-10.835 31.091-17.491 48.845-19.213 17.754-1.715 35.635 1.568 51.622 9.491 15.981 7.917 29.434 20.154 38.822 35.322 9.389 15.162 14.349 32.659 14.31 50.496 0 7.68-66.816 444.415-66.816 444.415zM256 448.005c-12.658 0-25.032 3.754-35.556 10.786s-18.728 17.028-23.572 28.722c-4.844 11.695-6.111 24.563-3.642 36.978s8.564 23.818 17.516 32.769c8.95 8.951 20.354 15.046 32.769 17.516s25.283 1.203 36.978-3.642c11.694-4.844 21.69-13.047 28.722-23.572s10.786-22.899 10.786-35.556c0-16.974-6.742-33.252-18.745-45.255s-28.281-18.745-45.255-18.745zM768 448.005c-12.659 0-25.030 3.754-35.558 10.786-10.522 7.032-18.726 17.028-23.571 28.722s-6.112 24.563-3.642 36.978c2.47 12.415 8.563 23.818 17.517 32.769 8.947 8.951 20.352 15.046 32.768 17.516s25.286 1.203 36.979-3.642c11.693-4.844 21.69-13.047 28.723-23.572s10.784-22.899 10.784-35.556c0-16.974-6.746-33.252-18.746-45.255s-28.282-18.745-45.254-18.745z" />
<glyph unicode="&#xe917;" glyph-name="trof2" data-tags="Group" d="M960 64h-896c-16.974 0-33.252-6.746-45.255-18.746s-18.745-28.282-18.745-45.254c0-16.973 6.743-33.254 18.745-45.254s28.281-18.746 45.255-18.746h896c16.973 0 33.254 6.746 45.254 18.746s18.746 28.282 18.746 45.254c0 16.973-6.746 33.254-18.746 45.254s-28.282 18.746-45.254 18.746zM64 192h896c16.973 0 33.254 6.746 45.254 18.746s18.746 28.282 18.746 45.254c-0.205 124.607-45.805 244.87-128.262 338.293-82.451 93.423-196.122 153.606-319.738 169.291v68.416h128c16.973 0 33.254 6.743 45.254 18.745s18.746 28.281 18.746 45.255c0 16.974-6.746 33.252-18.746 45.255s-28.282 18.745-45.254 18.745h-384c-16.974 0-33.252-6.743-45.255-18.745s-18.745-28.281-18.745-45.255c0-16.974 6.743-33.252 18.745-45.255s28.281-18.745 45.255-18.745h128v-68.416c-123.616-15.684-237.284-75.868-319.74-169.291s-128.053-213.686-128.26-338.293c0-16.973 6.743-33.254 18.745-45.254s28.281-18.746 45.255-18.746z" />
<glyph unicode="&#xe919;" glyph-name="hockey" data-tags="Hockey" d="M974.854 225.126c-31.782 24.288-72.115 32.237-110.72 22.035l-273.101-63.706-354.001 629.315c-34.156 60.712-110.806 82.122-171.544 48.014-60.654-34.099-82.245-110.916-47.889-171.753l401.202-709.608c15.107-26.79 43.611-43.424 74.389-43.424h446.586c47.136 0 85.472 38.33 85.472 85.472v101.766c0 40.288-18.368 77.434-50.394 101.888z" />
<glyph unicode="&#xe91c;" glyph-name="bp-league" data-tags="League" d="M161.804 637.242c-32.978-59.765-51.741-128.207-51.741-200.986s18.764-141.286 51.741-201.050v402.036zM539.688 858.572c-34.852 0-68.673-4.212-101.125-11.857v-66.461c32.136 9.055 66.020 14.025 101.125 14.025 201.112 0 364.172-159.795 364.172-356.948 0-88.785-33.165-169.989-87.898-232.447l-10.387-36.435-22.97-80.634c112.749 76.109 186.746 203.744 186.746 348.336-0.064 233.354-192.39 422.421-429.663 422.421zM438.563 217.075h336.714c55.763 57.28 90.106 134.842 90.106 220.257 0 176.305-145.786 319.19-325.674 319.19-35.316 0-69.263-5.623-101.125-15.752v-523.695h-0.021zM399.564 916.484h-245.126l46.287-94.47v-727.608l-46.287-94.406h562.548l51.027 178.79h-368.449v737.694z" />
<glyph unicode="&#xe91d;" glyph-name="bp-your-favourites" data-tags="Like" d="M703.981 832c-36.442 0.1-72.472-7.691-105.615-22.837s-62.614-37.29-86.387-64.908c-23.773 27.618-53.244 49.761-86.387 64.908s-69.172 22.937-105.613 22.837c-50.266-0.078-99.397-14.952-141.265-42.768s-74.622-67.341-94.175-113.649c-19.554-46.307-25.042-97.346-15.78-146.751s32.863-94.991 67.861-131.072l352.512-360.256c2.979-3.040 6.534-5.453 10.457-7.104 3.923-1.645 8.136-2.496 12.391-2.496 4.271 0 8.498 0.858 12.433 2.515s7.498 4.090 10.479 7.149l340.162 349.056c38.547 34.52 65.696 79.943 77.843 130.246 12.141 50.303 8.71 103.109-9.843 151.416s-51.354 89.834-94.054 119.071c-42.694 29.238-93.274 44.807-145.018 44.643z" />
<glyph unicode="&#xe91e;" glyph-name="bp-live-casino" data-tags="Live Games" d="M124.878 448c0 102.4 37.464 198.4 112.39 275.2 24.975 25.6 24.975 64 0 89.6s-62.439 25.6-87.415 0c-93.658-96-149.853-224-149.853-364.8s56.195-268.8 149.853-364.8c12.488-12.8 31.22-19.2 43.708-19.2 18.732 0 31.22 6.4 43.708 19.2 24.975 25.6 24.975 64 0 89.6-74.927 76.8-112.39 172.8-112.39 275.2zM518.399 256c106.038 0 192.001 85.962 192.001 192s-85.963 192-192.001 192c-106.039 0-192-85.962-192-192s85.961-192 192-192zM786.733 812.8c24.973 25.6 62.438 25.6 87.411 0 93.664-96 149.856-224 149.856-364.8s-56.192-268.8-149.856-364.8c-12.486-12.8-24.973-19.2-43.706-19.2-12.486 0-31.219 6.4-43.706 19.2-24.979 25.6-24.979 64 0 89.6 74.925 76.8 112.39 172.8 112.39 275.2s-37.466 198.4-112.39 275.2c-24.979 25.6-24.979 64 0 89.6z" />
<glyph unicode="&#xe91f;" glyph-name="bp-live" data-tags="Live sports" d="M512 320c140.8 0 256 115.2 256 256v128c0 140.8-115.2 256-256 256s-256-115.2-256-256v-128c0-140.8 115.2-256 256-256zM1017.626 505.599c6.4 32-19.2 64-51.2 70.4s-70.4-19.2-70.4-51.2c-32-192-192-332.799-384.001-332.799s-352 140.799-377.6 326.399c-6.4 38.4-38.4 64-76.8 57.6-32-6.4-57.6-38.4-51.2-70.4 32-230.399 217.6-403.199 441.6-435.199v-134.4h128v134.4c224.001 25.6 409.601 204.8 441.601 435.199z" />
<glyph unicode="&#xe922;" glyph-name="bp-megaways" data-tags="Megaways" d="M0 746.667v-597.336h1024v597.336h-1024zM298.667 544.043c0.023-3.223-0.696-6.408-2.102-9.309s-3.46-5.438-6.005-7.417c-34.616-27.853-63.084-62.578-83.608-101.983s-32.662-82.636-35.645-126.966c-0.26-5.606-2.646-10.899-6.673-14.81-4.027-3.904-9.392-6.131-15.002-6.227-26.88 0-42.325-0.211-42.325-0.211-2.865 0.032-5.694 0.634-8.323 1.773s-5.006 2.784-6.991 4.851c-1.986 2.067-3.54 4.506-4.574 7.174-1.033 2.675-1.524 5.523-1.445 8.39-0.44 44.092 8.527 87.773 26.303 128.128s43.951 76.456 76.78 105.896h-125.056c-5.658 0-11.084 2.248-15.085 6.248s-6.248 9.427-6.248 15.085v42.666c0 5.658 2.248 11.084 6.248 15.085s9.427 6.248 15.085 6.248h213.333c5.658 0 11.084-2.248 15.085-6.248s6.248-9.427 6.248-15.085v-53.29zM640 544.043c0.026-3.223-0.696-6.408-2.101-9.309s-3.461-5.438-6.006-7.417c-34.615-27.853-63.083-62.578-83.608-101.983s-32.662-82.636-35.645-126.966c-0.312-5.568-2.721-10.81-6.742-14.675-4.022-3.859-9.357-6.061-14.932-6.144-26.88 0-42.325-0.218-42.325-0.218-2.865 0.032-5.694 0.64-8.323 1.773-2.629 1.139-5.006 2.79-6.991 4.851-1.985 2.067-3.54 4.506-4.573 7.181-1.034 2.669-1.524 5.523-1.445 8.384-0.41 44.058 8.572 87.699 26.346 128.015s43.933 76.383 76.736 105.798h-125.056c-5.658 0-11.084 2.248-15.085 6.248s-6.248 9.427-6.248 15.085v42.666c0 5.658 2.248 11.084 6.248 15.085s9.427 6.248 15.085 6.248h213.334c5.658 0 11.084-2.248 15.085-6.248s6.248-9.427 6.248-15.085v-53.29zM981.331 544.043c0.026-3.223-0.691-6.408-2.099-9.309s-3.462-5.438-6.003-7.417c-34.618-27.853-63.085-62.578-83.61-101.983s-32.666-82.636-35.648-126.966c-0.307-5.568-2.72-10.81-6.739-14.675-4.026-3.859-9.357-6.061-14.931-6.144-26.88 0-42.33-0.218-42.33-0.218-2.861 0.032-5.69 0.64-8.32 1.773-2.63 1.139-5.005 2.79-6.995 4.851-1.984 2.067-3.539 4.506-4.57 7.181-1.037 2.669-1.523 5.523-1.446 8.384-0.41 44.058 8.57 87.699 26.349 128.015 17.773 40.316 43.93 76.383 76.736 105.798h-125.056c-5.658 0-11.085 2.248-15.085 6.248s-6.253 9.427-6.253 15.085v42.666c0 5.658 2.253 11.084 6.253 15.085s9.427 6.248 15.085 6.248h213.331c5.658 0 11.085-2.248 15.085-6.248s6.246-9.427 6.246-15.085v-53.29zM42.667 917.333h938.665c11.315 0 22.17-4.495 30.17-12.497 8.006-8.002 12.499-18.854 12.499-30.17v-42.667h-1024v42.667c0 11.316 4.495 22.168 12.497 30.17s18.854 12.497 30.17 12.497zM0 64h1024v-42.669c0-11.315-4.493-22.163-12.499-30.17-8-8-18.854-12.493-30.17-12.493h-938.665c-11.316 0-22.168 4.493-30.17 12.493-8.002 8.006-12.497 18.854-12.497 30.17v42.669z" />
<glyph unicode="&#xe929;" glyph-name="boy" data-tags="New Games" d="M1021.907 939.366c1.594-4.201 2.278-8.689 2.016-13.173-7.962-158.597-56.435-312.506-140.8-447.040 33.248-84.241 35.251-177.598 5.664-263.192-29.594-85.594-88.832-157.773-167.008-203.494-6.067-3.482-13.107-4.877-20.038-3.974-6.938 0.902-13.389 4.051-18.362 8.966l-133.057 133.056c-32.808-20.787-67.025-39.264-102.4-55.296-5.847-2.374-12.266-2.97-18.45-1.702-6.184 1.261-11.855 4.326-16.302 8.806l-247.104 246.974c-4.454 4.436-7.503 10.085-8.766 16.243s-0.685 12.55 1.662 18.381c16.038 35.517 34.514 69.882 55.296 102.848l-132.544 132.48c-5.002 5.004-8.205 11.524-9.109 18.541s0.545 14.136 4.117 20.243c45.501 77.741 117.204 136.735 202.255 166.406s177.889 28.081 261.873-4.486c135.169 84.703 289.985 132.927 449.345 139.968 4.518 0.322 9.056-0.347 13.286-1.961 4.237-1.614 8.064-4.134 11.226-7.382 3.162-3.19 5.613-7.010 7.2-11.211zM522.588 432.1c15.787-10.549 34.348-16.179 53.334-16.179 25.461 0 49.879 10.115 67.885 28.118 18.003 18.004 28.115 42.422 28.115 67.882 0 18.987-5.632 37.548-16.179 53.335s-25.542 28.092-43.084 35.357c-17.542 7.266-36.844 9.167-55.466 5.463s-35.728-12.847-49.154-26.273c-13.425-13.426-22.569-30.531-26.273-49.153s-1.804-37.924 5.463-55.466c7.266-17.542 19.571-32.535 35.357-43.084zM156.498 224.013c34.883 0 68.34-13.843 93.024-38.49 24.67-24.736 38.509-58.259 38.472-93.19-0.036-34.938-13.943-68.429-38.664-93.114-44.736-44.736-186.432-60.608-214.4-63.296h-6.208c-4.188 0.429-8.249 1.683-11.952 3.686s-6.973 4.717-9.625 7.987c-2.652 3.27-4.632 7.034-5.828 11.072-1.196 4.032-1.583 8.269-1.14 12.454 2.688 27.968 18.496 169.6 63.296 214.4 24.684 24.646 58.141 38.49 93.024 38.49z" />
<glyph unicode="&#xe92a;" glyph-name="bp-buy-feature" data-tags="Buyfeature" d="M512 960c-101.264 0-200.254-30.028-284.452-86.287s-149.822-136.223-188.574-229.779c-38.752-93.556-48.891-196.502-29.136-295.82 19.756-99.32 68.519-190.546 140.123-262.156 71.604-71.603 162.834-120.365 262.152-140.122s202.264-9.613 295.822 29.139c93.555 38.752 173.517 104.371 229.779 188.57 56.256 84.198 86.285 183.19 86.285 284.454 0 135.791-53.946 266.020-149.958 362.038-96.019 96.019-226.253 149.962-362.042 149.962zM680.256 216.448l-168.256 88.448-168.256-88.448 32 187.328-135.936 132.672 188.096 27.328 84.096 170.432 84.096-170.432 188.096-27.328-136.064-132.672 32.128-187.328z" />
<glyph unicode="&#xe92d;" glyph-name="bp-promotions" data-tags="Promotions" d="M940.8 960l-896-256c-25.6-12.8-44.8-38.4-44.8-64v-256c0-25.6 19.2-51.2 44.8-64l83.2-19.201v-236.8c0-38.4 25.6-64 64-64h320c38.4 0 64 25.6 64 64v108.8l364.8-102.4c38.4-12.8 83.2 19.2 83.2 64v761.6c0 44.8-38.4 70.4-83.2 64zM448 128h-192v134.4l192-57.6v-76.8z" />
<glyph unicode="&#xe92e;" glyph-name="kings" data-tags="Providers" d="M122.56 545.086c-3.497-0.559-7.023-0.922-10.56-1.088-22.152 0-43.805 6.569-62.224 18.876s-32.774 29.798-41.251 50.264c-8.477 20.466-10.695 42.985-6.373 64.711s14.989 41.683 30.652 57.346c15.663 15.663 35.62 26.33 57.346 30.652s44.246 2.104 64.711-6.373c20.465-8.477 37.957-22.833 50.264-41.251s18.876-40.072 18.876-62.224c-0.128-18.506-4.903-36.684-13.888-52.864l157.952-157.952 87.104 306.816c-21.174 12.469-37.66 31.555-46.916 54.317s-10.771 47.937-4.31 71.645c6.462 23.708 20.541 44.633 40.068 59.549s43.417 22.998 67.99 22.998c24.573 0 48.463-8.081 67.99-22.998s33.606-35.842 40.068-59.549c6.461-23.708 4.947-48.883-4.309-71.645s-25.743-41.848-46.917-54.317l87.104-306.816 157.952 157.952c-8.986 16.18-13.76 34.358-13.888 52.864 0 22.152 6.566 43.805 18.874 62.224s29.798 32.774 50.266 41.251c20.467 8.477 42.982 10.695 64.71 6.373s41.683-14.988 57.344-30.652c15.667-15.663 26.336-35.62 30.656-57.346s2.099-44.245-6.374-64.711c-8.48-20.465-22.835-37.957-41.254-50.264-18.413-12.307-40.070-18.876-62.221-18.876-3.539 0.166-7.066 0.529-10.56 1.088l-103.872-353.086h-571.136l-103.872 353.086zM128 64h768c35.347 0 64-28.653 64-64s-28.653-64-64-64h-768c-35.346 0-64 28.653-64 64s28.654 64 64 64z" />
<glyph unicode="&#xe92f;" glyph-name="dollarsign" data-tags="Purchase" d="M512 576c185.6 0 384 57.6 384 192s-198.4 192-384 192c-185.6 0-384-57.6-384-192s198.4-192 384-192zM128 544v-96c0-134.4 198.4-192 384-192s384 57.6 384 192v96c-89.6-57.6-224-96-384-96s-294.4 38.4-384 96zM128 128v96c89.6-57.6 224-96 384-96s294.4 32 384 96v-96c0-134.4-198.4-192-384-192s-384 57.6-384 192z" />
<glyph unicode="&#xe932;" glyph-name="bingo" data-tags="Roulette" d="M874.938 808.64c-0.384 0.448-0.512 1.024-0.896 1.408s-1.024 0.576-1.408 0.96c-95.776 95.415-225.453 148.988-360.642 148.988s-264.869-53.574-360.64-148.988c-0.384-0.384-0.96-0.512-1.408-0.96s-0.512-0.96-0.896-1.408c-95.489-95.771-149.11-225.495-149.11-360.736 0-135.238 53.621-264.966 149.11-360.736 0-0.32 0.448-0.832 0.768-1.152s0.832-0.448 1.152-0.768c95.792-95.571 225.581-149.242 360.896-149.242 135.317 0 265.103 53.67 360.898 149.242 0.32 0 0.768 0.384 1.152 0.768s0.448 0.832 0.768 1.152c95.488 95.77 149.107 225.498 149.107 360.736 0 135.241-53.619 264.965-149.107 360.736h0.256zM890.234 512h-133.632c-5.69 22.433-14.458 43.97-26.048 64l94.080 94.080c33.549-47.048 55.981-101.1 65.6-158.080zM575.992 826.24c57.002-9.61 111.074-32.040 158.146-65.6l-93.12-93.12c-20.277 12.119-42.17 21.299-65.026 27.264v131.456zM447.992 826.24v-131.456c-22.856-5.965-44.749-15.145-65.024-27.264l-93.12 93.12c47.067 33.56 101.142 55.99 158.144 65.6zM199.352 670.144l94.080-94.144c-11.593-20.030-20.359-41.567-26.048-64h-133.632c9.61 57.002 32.040 111.077 65.6 158.144zM133.752 384h135.616c6.001-21.658 14.845-42.426 26.304-61.76l-96-96.384c-33.674 47.040-56.214 101.115-65.92 158.144zM447.992 69.76c-57.002 9.606-111.077 32.038-158.144 65.6l97.28 97.28c19.106-10.97 39.569-19.379 60.864-25.024v-137.856zM383.992 448c0 25.316 7.507 50.063 21.572 71.113s34.056 37.455 57.444 47.144c23.389 9.688 49.126 12.223 73.955 7.284s47.637-17.13 65.538-35.031c17.901-17.901 30.092-40.708 35.031-65.538s2.404-50.566-7.284-73.955c-9.688-23.389-26.094-43.38-47.144-57.444s-45.797-21.572-71.113-21.572c-33.948 0-66.505 13.485-90.509 37.491s-37.491 56.562-37.491 90.509zM575.992 69.76v137.856c21.295 5.645 41.758 14.054 60.864 25.024l97.282-97.28c-47.072-33.562-101.144-55.994-158.146-65.6zM824.634 225.856l-96 96.384c11.347 19.35 20.083 40.118 25.984 61.76h135.616c-9.613-57.002-32.045-111.078-65.6-158.144z" />
<glyph unicode="&#xe933;" glyph-name="melon" data-tags="SVG" d="M991.987 384v10.333c0.019 71.149 0.032 116.586-0.154 190.301-0.122 47.661-34.931 84.282-82.592 86.23-30.906 1.299-61.946 1.558-92.851 0.39-53.638-2.078-86.88-37.66-86.88-91.295v-195.958h97.005v178.298c0 0.739-0.013 1.466-0.026 2.186-0.026 1.43-0.058 2.838 0.026 4.307 1.043 14.675 9.747 22.854 24.416 22.854h18.182c18.573 0 25.978-7.27 25.978-25.971v-79.347h-50.912v-79.738h50.912v-22.589h96.896zM238.486 510.998h-108.568c0 18.176 0 35.328-0.13 52.595 0 19.741 7.922 27.664 27.532 27.664h120.905v80.126c-1.688 0.259-2.987 0.39-4.285 0.39-15.668 0-31.325 0.049-46.976 0.098-35.201 0.111-70.377 0.221-105.617-0.228-53.894-0.649-89.347-37.272-89.347-91.035v-310.381h98.049v160.256h108.438v80.515zM450.947 270.099h98.048v160.125h107.92v81.296h-108.438v52.464c0 18.832 8.31 27.274 27.27 27.274h121.558v80.516h-6.496c-16.544 0-33.069 0.014-49.594 0.028-33.027 0.029-66.035 0.058-99.104-0.028-5.974 0-12.077-0.39-18.051-1.429-44.285-7.921-73.114-42.207-73.114-87.269v-312.976zM410.298 270.355h-96.749v401.028h96.749v-401.028zM608 288c0 35.347 28.653 64 64 64h256c35.347 0 64-28.653 64-64v-256c0-35.347-28.653-64-64-64h-256c-35.347 0-64 28.653-64 64v256zM672 32v34.227l67.187 123.718c3.411 6.182 5.357 11.533 5.843 16.045 0.486 4.755 0.73 10.579 0.73 17.472 0 3.091-0.122 6.298-0.365 9.626 0 3.565-0.608 6.656-1.824 9.274-1.216 2.611-3.046 4.755-5.478 6.419-2.438 1.901-5.965 2.854-10.586 2.854-5.6 0-10.106-1.549-13.517-4.634-3.162-3.091-4.742-7.61-4.742-13.555v-20.678h-37.248v19.968c0 7.61 1.459 14.733 4.378 21.389 2.925 6.656 6.944 12.48 12.058 17.472 4.864 4.992 10.707 8.915 17.523 11.77 6.816 3.091 14.118 4.634 21.907 4.634 9.741 0 18.022-1.786 24.838-5.35 7.059-3.328 12.896-7.962 17.523-13.901 4.378-5.946 7.546-12.717 9.498-20.326 2.189-7.603 3.283-15.686 3.283-24.243 0-6.182-0.122-11.411-0.365-15.686-0.243-4.045-0.73-7.962-1.466-11.77-0.73-3.802-1.939-7.61-3.648-11.411-1.702-3.802-4.019-8.435-6.938-13.901l-54.771-103.046h67.187v-36.365h-111.008zM872.858 32v37.798h-74.118v34.221l53.67 181.837h39.443l-55.872-181.837h36.877v72.384h37.254v-72.384h17.888v-34.221h-17.888v-37.798h-37.254z" />
<glyph unicode="&#xe935;" glyph-name="diamon" data-tags="Sic bo" d="M896 960h-768c-33.948 0-66.505-13.486-90.51-37.49s-37.49-56.562-37.49-90.51v-768c0-33.946 13.486-66.502 37.49-90.509s56.562-37.491 90.51-37.491h768c33.946 0 66.502 13.485 90.509 37.491s37.491 56.563 37.491 90.509v768c0 33.948-13.485 66.505-37.491 90.51s-56.563 37.49-90.509 37.49zM256 608c-18.987 0-37.548 5.63-53.335 16.179s-28.092 25.542-35.357 43.083c-7.266 17.542-9.167 36.844-5.463 55.467s12.847 35.727 26.273 49.153c13.426 13.426 30.531 22.569 49.153 26.273s37.925 1.803 55.467-5.463c17.541-7.266 32.534-19.571 43.083-35.357s16.179-34.348 16.179-53.335c0-25.46-10.115-49.879-28.118-67.882s-42.422-28.118-67.882-28.118zM512 352c-18.987 0-37.548 5.63-53.335 16.179s-28.092 25.542-35.357 43.083c-7.266 17.542-9.167 36.844-5.463 55.467s12.847 35.727 26.273 49.153c13.426 13.426 30.531 22.569 49.153 26.273s37.925 1.803 55.467-5.463c17.541-7.266 32.534-19.571 43.083-35.357s16.179-34.348 16.179-53.335c0-25.46-10.115-49.879-28.118-67.882s-42.422-28.118-67.882-28.118zM768 96c-18.989 0-37.549 5.632-53.338 16.179-15.782 10.547-28.090 25.542-35.354 43.085-7.27 17.542-9.171 36.845-5.466 55.462 3.706 18.624 12.851 35.731 26.272 49.158 13.427 13.421 30.534 22.566 49.158 26.272 18.618 3.706 37.92 1.805 55.462-5.466 17.542-7.264 32.538-19.571 43.085-35.354 10.547-15.789 16.179-34.349 16.179-53.338 0-25.459-10.112-49.882-28.115-67.885s-42.426-28.115-67.885-28.115z" />
<glyph unicode="&#xe937;" glyph-name="bp-soccer" data-tags="Soccer" d="M512 960c-281.6 0-512-230.4-512-512s230.4-512 512-512c281.6 0 512 230.4 512 512s-230.4 512-512 512zM812.8 204.8h-128l-38.4-121.6c-89.6-32-185.6-32-275.2 0l-38.4 121.6h-128c-51.2 70.4-83.2 160-76.8 262.4l102.4 70.4-38.4 121.6c51.2 76.8 128 134.4 224 160l96-76.8 102.4 76.8c89.6-25.6 166.4-83.2 217.6-160l-38.4-121.6 102.4-70.4c6.4-102.4-25.6-192-83.2-262.4zM352 486.4l76.8-160h166.4l76.8 160-160 121.6-160-121.6z" />
<glyph unicode="&#xe938;" glyph-name="bp-welcome-offers" data-tags="Sponsor" d="M1024.006 895.999c0 16.974-6.746 33.253-18.746 45.255-12.006 12.002-28.282 18.745-45.254 18.745h-291.2c-37.839 0.106-75.321-7.295-110.278-21.775s-66.693-35.749-93.373-62.578l-254.4-254.4c-11.998-12.002-18.738-28.277-18.738-45.248s6.74-33.246 18.738-45.248c28.685-28.719 66.879-45.963 107.391-48.485s80.55 9.85 112.577 34.789l171.968 133.76 268.355-268.352c7.488-7.489 13.35-16.448 17.21-26.312 3.866-9.864 5.645-20.42 5.229-31.005s-3.014-20.972-7.635-30.502c-4.627-9.53-11.168-18.003-19.219-24.883l-36.224-30.912-103.744 103.807c-2.976 2.975-6.509 5.336-10.4 6.946-3.885 1.61-8.051 2.438-12.256 2.438-4.211 0-8.378-0.828-12.262-2.438-3.891-1.61-7.424-3.971-10.394-6.946-2.976-2.975-5.338-6.507-6.95-10.394-1.606-3.887-2.438-8.054-2.438-12.26 0-4.211 0.832-8.378 2.438-12.262 1.613-3.885 3.974-7.418 6.95-10.394l100.224-100.16-54.72-46.784-96.003 96c-6.008 6.010-14.158 9.382-22.656 9.382s-16.647-3.373-22.656-9.382c-6.009-6.010-9.384-14.157-9.384-22.656s3.375-16.646 9.384-22.656l92.483-92.288-8.832-7.552c-15.834-13.581-34.763-23.053-55.119-27.597s-41.517-4.013-61.62 1.549c-2.376 29.939-15.304 58.061-36.48 79.36l-229.44 229.439c-11.884 11.889-25.994 21.32-41.523 27.755s-32.173 9.75-48.982 9.752c-16.81 0.003-33.455-3.305-48.987-9.735s-29.644-15.856-41.532-27.74c-11.888-11.884-21.319-25.993-27.755-41.522s-9.749-32.173-9.752-48.986c-0.006-33.946 13.475-66.509 37.475-90.515l229.504-229.504c21.124-21.062 48.94-34.086 78.644-36.819s59.43 4.992 84.044 21.843c28.182-10.509 57.988-15.987 88.064-16.192 61.258-0.173 120.522 21.76 166.915 61.76l197.12 168.32c22.176 17.798 40.275 40.154 53.088 65.542 12.806 25.395 20.019 53.242 21.152 81.658v576.383zM128 512v320h192c16.974 0 33.252 6.743 45.255 18.745s18.745 28.281 18.745 45.255c0 16.974-6.743 33.252-18.745 45.255s-28.281 18.745-45.255 18.745h-256c-16.974 0-33.252-6.743-45.255-18.745s-18.745-28.281-18.745-45.255v-384c0-16.974 6.743-33.252 18.745-45.255s28.281-18.745 45.255-18.745c16.974 0 33.252 6.743 45.255 18.745s18.745 28.281 18.745 45.255z" />
<glyph unicode="&#xe939;" glyph-name="bp-sports" data-tags="Sports" d="M945.139 719.75c-72.896-72.66-113.139-168.992-113.139-271.75s40.243-199.091 113.139-271.75c49.664 78.867 78.861 171.864 78.861 271.75s-29.197 192.883-78.861 271.75zM192 448c0 102.758-40.242 199.090-113.14 271.75-49.664-78.867-78.86-171.863-78.86-271.75s29.195-192.883 78.86-271.75c72.899 72.659 113.14 168.993 113.14 271.75zM704 448c0 138.269 59.61 275.082 158.451 372.246-91.706 86.379-214.835 139.754-350.451 139.754s-258.746-53.375-350.449-139.754c98.84-97.164 158.449-233.977 158.449-372.246 0-138.272-59.961-274.752-158.813-371.917 91.739-86.579 215.016-140.083 350.813-140.083 135.795 0 259.072 53.504 350.81 140.083-98.848 97.165-158.81 233.645-158.81 371.917z" />
<glyph unicode="&#xe93c;" glyph-name="bp-table-games" data-tags="Table games" d="M960 896h-896c-38.4 0-64-25.6-64-64v-768h128v448h768v-448h128v768c0 38.4-25.6 64-64 64z" />
<glyph unicode="&#xe93d;" glyph-name="bp-table-tennis" data-tags="Table tennis" d="M896 192c70.694 0 128 57.306 128 128 0 70.692-57.306 128-128 128s-128-57.308-128-128c0-70.694 57.306-128 128-128zM639.999 320c0 141.156 114.842 256 256.001 256 30.79 0 59.936-6.332 87.302-16.34 19.757 106.777-11.77 211.148-88.64 288.012-131.462 131.465-342.89 133.191-510.084-34.004-136.754-136.758-160.383-298.387-96.067-424.844l-270.871-221.624c-22.023-18.016-23.672-51.104-3.555-71.226l128.883-128.883c20.117-20.122 53.211-18.464 71.231 3.552l221.621 270.874c68.105-34.637 146.402-43.565 225.524-23.264-13.6 31.232-21.345 65.568-21.345 101.747z" />
<glyph unicode="&#xe93f;" glyph-name="bp-tennis" data-tags="Tennis" d="M896 174.643c70.694 0 128 57.306 128 128 0 70.689-57.306 127.997-128 127.997s-128-57.308-128-127.997c0-70.694 57.306-128 128-128zM640 302.624c0 141.157 114.81 256.001 256 256.001 35.142 0 68.634-7.152 99.149-20.019 49.613 126.481 34.637 259.039-49.459 343.113-62.317 62.375-151.315 88.782-251.437 74.532-92.691-13.375-184.065-61.063-257.253-134.281-73.25-73.187-120.937-164.563-134.25-257.281-10.824-75.090 1.539-144.254 34.941-200.496l-67.668-67.667c-23.68 11.014-52.477 7.27-72.024-12.275l-179.25-179.251c-25-24.998-25-65.498 0-90.496l59.75-59.75c12.5-12.499 28.875-18.752 45.25-18.752s32.75 6.253 45.25 18.752l179.251 179.245c19.547 19.552 23.289 48.346 12.273 72.026l68.418 68.416c43.344-25.459 93.992-39.379 148.684-39.379 22.832 0 46.387 3.168 70.151 7.802-4.653 19.27-7.776 39.091-7.776 59.763z" />
<glyph unicode="&#xe940;" glyph-name="bp-recently-played" data-tags="Time" d="M512 960c-101.264 0-200.254-30.028-284.452-86.287s-149.822-136.223-188.574-229.779c-38.752-93.556-48.891-196.502-29.136-295.82 19.756-99.32 68.519-190.546 140.123-262.156 71.604-71.603 162.834-120.365 262.152-140.122s202.264-9.613 295.822 29.139c93.555 38.752 173.517 104.371 229.779 188.57 56.256 84.198 86.285 183.19 86.285 284.454-0.403 135.666-54.477 265.66-150.406 361.591-95.936 95.931-225.926 150.004-361.594 150.409zM768 384h-256c-16.973 0-33.252 6.743-45.254 18.745s-18.746 28.281-18.746 45.255v256c0 16.974 6.743 33.252 18.746 45.255s28.281 18.745 45.254 18.745c16.974 0 33.252-6.743 45.255-18.745s18.745-28.281 18.745-45.255v-192h192c16.973 0 33.254-6.743 45.254-18.745s18.746-28.281 18.746-45.255c0-16.974-6.746-33.252-18.746-45.255s-28.282-18.745-45.254-18.745z" />
<glyph unicode="&#xe941;" glyph-name="bp-fire" data-tags="Top Games" d="M622.335 557.248c0 0 47.745 280.832-147.072 402.752-2.902-48.252-15.951-95.35-38.294-138.216s-53.478-80.537-91.37-110.552c-83.2-73.152-239.68-237.632-238.016-412.992-0.598-74.963 19.765-148.602 58.79-212.608s95.161-115.834 162.074-149.632c2.39 33.85 11.513 66.88 26.833 97.152 15.32 30.278 36.529 57.19 62.383 79.168 21.909 16.851 40.244 37.894 53.935 61.901s22.465 50.502 25.809 77.939c57.276-30.451 105.668-75.238 140.445-129.997 34.775-54.758 54.743-117.6 57.956-182.387v-0.832c63.155 28.928 117.075 74.765 155.795 132.442 38.72 57.67 60.73 124.934 63.597 194.342 13.824 164.736-76.416 388.736-156.48 461.952-30.227-67.485-77.171-126.144-136.385-170.432z" />
<glyph unicode="&#xe943;" glyph-name="trophy" data-tags="Trophy" d="M0 960v-256c0-132.191 102.636-256 265.051-256 22.039-85.086 86.351-152.23 169.519-178.784-11.402-59.974-32.524-135.098-71.867-205.216h-106.703v-128h512v128h-106.701c-39.346 70.118-60.467 145.242-71.869 205.216 83.165 26.554 147.479 93.698 169.521 178.784 161.875 0 265.050 123.406 265.050 256v256h-1024zM128 704v128h128v-256c-70.563 0-128 57.406-128 128zM896 704c0-70.594-57.44-128-128-128v256h128v-128z" />
<glyph unicode="&#xe945;" glyph-name="bp-favourites" data-tags="VIP" d="M969.222 611.904l-276.288 40.192-123.329 250.304c-5.86 10.082-14.265 18.45-24.373 24.266s-21.565 8.877-33.227 8.877c-11.662 0-23.119-3.061-33.228-8.877s-18.512-14.183-24.372-24.266l-123.328-250.368-276.288-40.128c-11.831-1.697-22.951-6.673-32.1-14.364s-15.961-17.792-19.664-29.156c-3.704-11.364-4.151-23.538-1.291-35.144s8.912-22.178 17.471-30.52l199.872-194.88-47.168-275.2c-2.017-11.77-0.7-23.866 3.8-34.931 4.5-11.059 12.006-20.64 21.667-27.654 9.661-7.021 21.093-11.194 33.004-12.058 11.91-0.858 23.823 1.632 34.393 7.187l247.232 129.984 247.105-129.856c10.566-5.555 22.483-8.045 34.394-7.187 11.91 0.864 23.341 5.037 33.005 12.051 9.658 7.021 17.165 16.602 21.664 27.661 4.499 11.066 5.818 23.162 3.802 34.931l-47.168 275.2 200 194.752c8.538 8.337 14.573 18.894 17.427 30.481s2.419 23.741-1.274 35.090c-3.686 11.349-10.47 21.441-19.59 29.137s-20.211 12.687-32.019 14.413l-0.128 0.064z" />
<glyph unicode="&#xe947;" glyph-name="volley-ball" data-tags="Volleyball" d="M696.659 351.062c-58.62 29.012-118.265 43.055-163.886 49.969-149.135-123.757-315.482-173.543-498.898-134.97 18.781-49.306 44.742-94.982 76.969-135.635 337.469-11.392 493.828 73.978 585.816 220.637zM497.187 686.043c11.594-63.090 35.344-118.621 56.867-159.222 96.998-14.941 184.544-47.43 257.088-94.844l0.262-0.070c42.502-21.018 116.23-89.217 171.61-184.751 19.162 44.877 31.936 93.079 37.568 143.454-204.851 261.344-359.027 317.383-523.395 295.434zM396.778 946.508c-57.316-13.199-110.852-35.98-159.023-66.633-40.531-115.164-45.008-321.489 57.14-473.235 54.832 20.66 101.5 50.086 137.261 77.492-84.937 170.124-86.892 321.034-35.379 462.375zM494.625 814.508c185.164 20.598 341.292-41.633 502.149-202.777-65.363 193.539-243.034 334.785-455.622 346.797-26.892-52.583-39.708-96.975-46.527-144.020zM801.741 275.648c-86.227-140.090-226.588-257.549-541.053-273.44 74.282-41.971 159.907-66.208 251.313-66.208 157.408 0 298.080 71.168 392 182.925-23.699 58.509-55.949 110.246-102.259 156.723zM159.344 380.406c0.511 0 0.992 0.106 1.503 0.109-57.793 107.484-80.886 231.761-77.586 346.867-52.484-80.375-83.261-176.227-83.261-279.383 0-13.82 0.992-27.395 2.066-40.941 51.555-17.449 104.391-26.652 157.278-26.652z" />
<glyph unicode="&#xe94a;" glyph-name="bp-grid-slots" data-tags="Grid" d="M384 384h-320c-35.328 0-64 28.672-64 64v448c0 35.328 28.672 64 64 64h320c35.328 0 64-28.672 64-64v-448c0-35.328-28.672-64-64-64zM384-64h-320c-35.328 0-64 28.672-64 64v192c0 35.328 28.672 64 64 64h320c35.328 0 64-28.672 64-64v-192c0-35.328-28.672-64-64-64zM960 576h-320c-35.328 0-64 28.672-64 64v256c0 35.328 28.672 64 64 64h320c35.328 0 64-28.672 64-64v-256c0-35.328-28.672-64-64-64zM960-64h-320c-35.328 0-64 28.672-64 64v384c0 35.328 28.672 64 64 64h320c35.328 0 64-28.672 64-64v-384c0-35.328-28.672-64-64-64z" />
<glyph unicode="&#xe94b;" glyph-name="bp-hold-win" data-tags="Hold" d="M828.864 624.769l-413.824 103.488c-80.768 20.16-159.040-40.896-159.040-124.224v-220.032h-64v128h-32c-52.992 0-96-43.008-96-96v-117.313c0-69.248 22.464-136.64 64-192l128-170.688h576l134.208 447.361c31.488 104.896-31.040 214.848-137.344 241.408zM512 128h-64v320.001h64v-320.001zM704 128h-64v320.001h64v-320.001z" />
<glyph unicode="&#xe94c;" glyph-name="bp-nba-2k" data-tags="K_2018_Logo 1" horiz-adv-x="1489" d="M295.588 919.832l-293.691-943.663c-6.924-22.249 5.69-40.169 28.4-40.169h1110.188c22.705 0 46.462 17.92 53.378 40.169l293.693 943.663c6.926 22.248-5.688 40.168-28.393 40.168h-1110.052c-22.71 0-46.599-17.92-53.523-40.168zM1031.354 504.457h251.755l-274.134-190.352 138.752-301.844h-252.592l-72.441 188.842-80.255-56.61-41.395-132.233h-190.080l115.316 368.823h-419.017c62.726 189.489 198.079 247.085 321.233 272.458l152.062 31.329c25.704 5.296 42.998 17.743 49.42 38.458 8.785 28.332-21.543 39.755-66.74 39.755-52.8 0-107.71-4.968-133.265-68.924h-208.24c67.581 169.609 233.795 192.297 356.501 192.297 158.186 0 297.721-28.568 254.703-166.369-29.216-93.604-135.578-131.21-209.085-144.546l-184.585-33.489c-43.9-7.965-69.695-19.015-87.227-37.595h403.178l-54.7-173.717 230.836 173.717z" />
<glyph unicode="&#xe94d;" glyph-name="bp-home" data-tags="Home" d="M552.96 945.151c-23.744 19.84-58.176 19.84-81.92 0l-384-320c-14.592-12.16-23.040-30.144-23.040-49.152v-575.999c0-35.328 28.672-64 64-64h256v256c0 35.328 28.672 64 64 64h128c35.328 0 64-28.672 64-64v-256h256c35.328 0 64 28.672 64 64v575.999c0 19.008-8.448 36.992-23.040 49.152l-384 320z" />
</font>
</defs>
</svg>
