<svg data-v-8ac9d7dc="" xmlns="http://www.w3.org/2000/svg" width="18" height="18" viewBox="0 0 18 18" aria-hidden="true" role="img" class="item-icon icon icon-casino-category-blackjack sm" icon="casino/category/blackjack"><defs><linearGradient id="blackjack_svg__a" x1="19.753%" x2="80.247%" y1="100%" y2="0%"><stop offset="0%" stop-color="#0095ff"></stop><stop offset="100%" stop-color="#0854c3"></stop></linearGradient></defs><path fill="#fff" d="M8.455 3.75h2.7c1.336 0 1.821.14 2.31.4.49.262.873.646 1.134 1.135.262.489.401.974.401 2.31v5.81c0 1.336-.14 1.821-.4 2.31a2.726 2.726 0 01-1.135 1.134c-.489.262-.974.401-2.31.401H8.771c-.949 0-1.498-.14-1.987-.4a2.726 2.726 0 01-1.134-1.135c-.262-.489-.401-1.038-.401-1.986V6.955c0-1.115.116-1.519.334-1.926.218-.407.538-.727.945-.945.407-.218.811-.334 1.926-.334zm4.295 3a.75.75 0 100-1.5.75.75 0 000 1.5zm-5.25 9a.75.75 0 100-1.5.75.75 0 000 1.5zm3.228-7.305a.75.75 0 00-1.206 0l-1.19 1.61a.75.75 0 000 .89l1.19 1.61a.75.75 0 001.206 0l1.19-1.61a.75.75 0 000-.89l-1.19-1.61z"></path><path fill="url(#blackjack_svg__a)" d="M6.75.75h4.5a1.5 1.5 0 011.5 1.5h-6a3 3 0 00-3 3v9a1.5 1.5 0 01-1.5-1.5v-7.5a4.5 4.5 0 014.5-4.5z" class="blackjack_svg__primary"></path></svg>
