<svg width="125" height="29" viewBox="0 0 125 29" fill="none" xmlns="http://www.w3.org/2000/svg">
<path d="M122.716 28.1099H1.61632C0.725271 28.1099 0 27.3886 0 26.5024V1.60746C0 0.721295 0.725271 0 1.61632 0H122.716C123.607 0 124.332 0.721295 124.332 1.60746V26.5024C124.332 27.3886 123.607 28.1099 122.716 28.1099Z" fill="white"/>
<path d="M15.6505 21.7123L15.0912 19.1852H12.1292L11.5907 21.7123H8.64941L12.1292 6.71704H15.1948L18.7575 21.7123H15.6505ZM14.6355 16.8879C14.3248 15.4469 14.0141 14.0267 13.7863 12.5648C13.7034 11.9173 13.5999 11.249 13.5377 10.5807C13.4135 12.6901 12.9785 14.7785 12.5642 16.867L14.6355 16.8879ZM25.9036 10.1212C25.3029 9.59913 24.6193 9.16055 23.7908 9.16055C22.9208 9.16055 22.3202 9.74532 22.3202 10.6225C22.3202 13.2122 26.7735 13.1704 26.7735 17.3474C26.7735 19.9371 25.2407 21.9838 22.548 21.9838C21.6366 21.9838 20.746 21.7332 19.9796 21.211V18.3707C20.6424 18.8302 21.3466 19.1852 22.1545 19.1852C23.1487 19.1852 23.8944 18.5587 23.8944 17.5144C23.8944 17.2429 23.8529 16.9923 23.7287 16.7417C23.4594 16.1778 22.6309 15.6766 22.1545 15.3424C20.4767 14.1729 19.4203 13.0869 19.4203 10.9149C19.4203 8.5549 20.7874 6.4873 23.2937 6.4873C24.2879 6.4873 25.0336 6.71704 25.9036 7.19739V10.1212ZM33.671 21.7123L30.9369 14.0893V21.7123H27.9956V6.71704H30.9369V13.421L33.4017 6.71704H36.4052L33.671 13.6299L36.7366 21.6914C36.7366 21.7123 33.671 21.7123 33.671 21.7123ZM46.6582 13.3793C46.6789 13.7552 46.6789 14.152 46.6789 14.5279C46.6789 15.593 46.6375 16.6582 46.4097 17.7024C45.9126 20.0206 44.4212 21.9629 41.9149 21.9629C37.8965 21.9629 36.633 17.598 36.633 14.2773C36.633 10.8313 37.7515 6.50819 41.9149 6.50819C44.1934 6.50819 45.664 7.94924 46.2854 10.0586L43.427 11.1864C43.3027 10.3092 43.0541 9.11878 41.9356 9.11878C39.9264 9.11878 39.7814 12.8363 39.7814 14.2355C39.7814 15.7184 39.8436 19.2688 41.9563 19.2688C43.5512 19.2688 43.7377 17.2429 43.7584 16.0316H41.8942V13.3793H46.6582ZM53.8871 21.7123L53.3279 19.1852H50.3659L49.8274 21.7123H46.8861L50.3659 6.71704H53.4315L56.9941 21.7123H53.8871ZM52.8929 16.8879C52.5822 15.4469 52.2715 14.0267 52.0437 12.5648C51.9608 11.9173 51.8573 11.249 51.7951 10.5807C51.6708 12.6901 51.2359 14.7785 50.8216 16.867L52.8929 16.8879ZM68.3036 21.7123L67.5786 10.9358C67.5165 12.1053 67.3301 13.254 67.1229 14.4026L65.818 21.7332H63.5602L62.1725 14.9456C62.0067 14.2147 61.8618 13.4628 61.7996 12.6901L61.6132 10.9358L61.1368 21.7123H57.9884L59.2726 6.71704H63.146L64.5959 15.5722L65.7766 6.71704H69.7535L71.2863 21.7123H68.3036ZM75.6568 6.73792C76.4439 6.73792 77.7488 6.77969 78.7845 7.80304C79.5923 8.59666 80.0066 9.82886 80.0066 11.0402C80.0066 11.7711 79.8409 12.523 79.323 13.1704C79.0745 13.4628 78.7016 13.8178 78.1424 14.0476C79.0952 14.4026 79.5716 15.0709 79.7373 15.3633C80.1516 16.0734 80.2551 16.9088 80.2551 17.4727C80.2551 18.6004 79.9651 19.6029 79.1366 20.4383C77.9974 21.587 76.506 21.7123 75.6361 21.7123H72.5084V6.71704H75.6568V6.73792ZM75.4704 12.878C75.9468 12.8571 76.4646 12.6483 76.7546 12.3559C77.1688 11.9382 77.231 11.2908 77.231 10.9566C77.231 10.6016 77.1896 10.0377 76.7546 9.59913C76.506 9.34851 76.1125 9.13967 75.4704 9.13967V12.878ZM75.4704 19.1643C75.9468 19.1643 76.4646 18.9973 76.8167 18.684C77.1274 18.3916 77.376 17.8695 77.376 17.2221C77.376 16.512 77.1274 15.969 76.796 15.6557C76.4439 15.3424 75.9053 15.1754 75.4911 15.1754V19.1643H75.4704ZM81.6843 21.7123V6.71704H84.6256V18.8928H87.6912V21.6914H81.6843V21.7123ZM88.9133 21.7123V6.71704H94.8165V9.49471H91.8545V12.7318H94.4644V15.593H91.8545V18.9555H94.858V21.7123H88.9133ZM101.818 21.7123L99.2077 14.8203V21.7123H96.2665V6.71704H99.4563C100.554 6.71704 101.755 6.80058 102.688 7.42712C103.868 8.22074 104.448 9.68267 104.448 11.0611C104.448 12.7736 103.785 13.9849 102.335 14.883L104.925 21.6914L101.818 21.7123ZM99.2077 13.1704C99.3735 13.1913 99.5392 13.1913 99.7049 13.1913C100.968 13.1913 101.59 12.3141 101.59 11.1028C101.59 9.89152 101.051 9.05613 99.767 9.05613H99.2077V13.1704ZM112.071 10.1212C111.47 9.59913 110.786 9.16055 109.958 9.16055C109.088 9.16055 108.487 9.74532 108.487 10.6225C108.487 13.2122 112.941 13.1704 112.941 17.3474C112.941 19.9371 111.408 21.9838 108.715 21.9838C107.804 21.9838 106.913 21.7332 106.147 21.211V18.3707C106.81 18.8302 107.514 19.1852 108.322 19.1852C109.316 19.1852 110.061 18.5587 110.061 17.5144C110.061 17.2429 110.02 16.9923 109.896 16.7417C109.627 16.1778 108.798 15.6766 108.322 15.3424C106.644 14.1729 105.587 13.0869 105.587 10.9149C105.587 8.5549 106.955 6.4873 109.461 6.4873C110.455 6.4873 111.201 6.71704 112.071 7.19739V10.1212ZM115.198 6.80058C116.275 6.80058 117.125 7.67773 117.125 8.74286C117.125 9.82886 116.255 10.6851 115.198 10.6851C114.121 10.6851 113.272 9.80798 113.272 8.74286C113.272 7.65685 114.142 6.80058 115.198 6.80058Z" fill="black"/>
</svg>
