<svg width="151" height="20" viewBox="0 0 151 20" fill="none" xmlns="http://www.w3.org/2000/svg">
<path d="M0.0258789 6.46809C0.0258789 4.6731 0.0258789 2.90187 0.0258789 1.09499C0.0258789 0.262878 0.323063 -0.0224163 1.1314 0.00135839C2.9264 0.00135839 4.69762 0.00135839 6.51638 0.00135839L6.44506 6.37299L0.0258789 6.46809Z" fill="#999999"/>
<path d="M6.43213 6.40874L6.50345 0.0371094H12.9702V6.4444H6.57478L6.43213 6.40874Z" fill="#C8C8C8"/>
<path d="M19.3771 12.8872C19.3771 14.6822 19.3771 16.4534 19.3771 18.2841C19.3771 19.1043 19.0919 19.4015 18.2716 19.3777C16.4766 19.3777 14.7054 19.3777 12.8748 19.3777L12.9461 12.9942L19.3771 12.8872Z" fill="#999999"/>
<path d="M12.9817 12.9465L12.9103 19.33H6.4436V12.9227L12.8152 12.8276L12.9817 12.9465Z" fill="#C8C8C8"/>
<path d="M6.49177 12.9111V19.3184C4.69678 19.3184 2.92556 19.3184 1.10679 19.3779C0.286562 19.3779 -0.0225091 19.1282 0.00126564 18.2961C0.0607025 16.5011 0.0607019 14.7299 0.0725892 12.9111H6.49177Z" fill="white"/>
<path d="M19.3777 12.8871H12.9823L12.8516 12.7683C12.8516 10.6523 12.911 8.53636 12.9348 6.42041H19.3421L19.3777 12.8871Z" fill="#C8C8C8"/>
<path d="M6.49261 12.9111H0.0258789V6.46813L6.43317 6.40869L6.54016 6.51568C6.54016 8.65541 6.54016 10.7832 6.54016 12.923L6.49261 12.9111Z" fill="#C8C8C8"/>
<path d="M19.366 6.43219H12.9587C12.9587 4.29247 12.9587 2.15274 12.9587 0.0249023C14.7656 0.0249023 16.525 0.0249023 18.3794 0.0249023C19.1283 0.0249023 19.4374 0.298313 19.4255 1.04722C19.4017 2.83032 19.3898 4.6372 19.366 6.43219Z" fill="white"/>
<path d="M6.47998 12.9229C6.47998 10.7832 6.47998 8.65535 6.47998 6.51562H12.8754C12.8754 8.63158 12.8754 10.7475 12.7922 12.8635L6.47998 12.9229Z" fill="white"/>
<path d="M23.5618 1.36845C26.9735 1.36845 30.2781 1.14259 33.5353 1.36845C36.7924 1.59431 38.3616 4.26896 37.2323 6.8723C36.6414 7.80895 35.9165 8.654 35.0806 9.38053C34.9855 9.38053 35.0806 9.38053 35.2946 9.4994C36.0496 9.71938 36.7168 10.17 37.2029 10.7882C37.6889 11.4064 37.9694 12.1612 38.0049 12.9467C38.1274 13.8037 37.9915 14.6777 37.6146 15.457C37.2377 16.2362 36.6369 16.8854 35.889 17.3213C34.9671 17.9115 33.9218 18.2817 32.8339 18.403C29.767 18.5457 26.6882 18.403 23.5261 18.403L23.5618 1.36845ZM27.2944 15.8948C28.9705 15.8948 30.4921 15.978 31.9899 15.8948C32.2967 15.8831 32.5979 15.8092 32.8754 15.6777C33.1528 15.5462 33.4007 15.3598 33.604 15.1298C33.8074 14.8998 33.9619 14.631 34.0584 14.3395C34.1549 14.048 34.1913 13.74 34.1653 13.4341C34.2141 13.1279 34.1979 12.8149 34.1178 12.5154C34.0377 12.2158 33.8956 11.9365 33.7005 11.6954C33.5054 11.4544 33.2619 11.2571 32.9856 11.1164C32.7093 10.9756 32.4066 10.8945 32.0969 10.8783C30.5278 10.7357 28.9349 10.8783 27.342 10.8783L27.2944 15.8948ZM27.2944 8.14425C28.8041 8.14425 30.2781 8.14425 31.7403 8.14425C32.2548 8.09028 32.7326 7.85277 33.0862 7.47522C33.4398 7.09767 33.6456 6.60535 33.6658 6.08845C33.686 5.57155 33.5193 5.06468 33.1963 4.66067C32.8732 4.25665 32.4154 3.98256 31.9067 3.88857C30.4208 3.75781 28.8992 3.88857 27.2944 3.88857V8.14425Z" fill="white"/>
<path d="M134.97 18.4622H131.225V5.90917H134.791V6.71751C136.099 6.19621 137.452 5.79823 138.833 5.52877C139.584 5.46571 140.334 5.65636 140.963 6.07018C141.592 6.484 142.065 7.09704 142.304 7.81114C142.64 7.17206 143.123 6.62269 143.715 6.20904C144.306 5.79539 144.989 5.5295 145.704 5.43367C148.212 5.19592 150.055 6.43221 150.209 8.90478C150.388 12.0193 150.209 15.1575 150.209 18.4147H146.643C146.643 15.8708 146.643 13.3744 146.643 10.8662C146.643 9.10687 146.203 8.28664 145.205 8.16777C144.587 8.18632 144 8.44497 143.569 8.88884C143.139 9.3327 142.898 9.92686 142.899 10.5452C142.696 12.4116 142.744 14.3016 142.696 16.1799C142.696 16.8812 142.696 17.5826 142.696 18.3909H138.976V16.0134C138.976 14.0401 138.976 12.0787 138.976 10.0697C138.976 9.17819 138.702 8.26287 137.609 8.07267C137.162 8.00591 136.707 8.10767 136.331 8.35814C135.955 8.60862 135.686 8.98991 135.576 9.42783C135.248 10.2839 135.06 11.1868 135.017 12.1025C134.922 14.2779 134.97 16.3225 134.97 18.4622Z" fill="white"/>
<path d="M73.0017 18.8788C68.853 18.8788 66.2734 16.3825 66.2497 12.2457C66.1729 11.3492 66.2901 10.4468 66.5934 9.59966C66.8966 8.75257 67.3788 7.98073 68.007 7.33668C68.6353 6.69262 69.3949 6.19145 70.2342 5.86727C71.0735 5.54309 71.9728 5.4035 72.8709 5.458C73.7657 5.37434 74.6679 5.48677 75.5147 5.78746C76.3616 6.08815 77.1327 6.56987 77.7743 7.19905C78.4159 7.82823 78.9126 8.58974 79.2299 9.43053C79.5471 10.2713 79.6772 11.1712 79.6111 12.0674C79.6348 16.2398 77.0909 18.8551 73.0017 18.8788ZM75.8428 12.2219C75.6882 11.3779 75.5812 10.5101 75.3435 9.67801C75.2206 9.15026 74.9139 8.68347 74.4783 8.36114C74.0427 8.03881 73.5066 7.88198 72.966 7.91868C72.4151 7.86252 71.8619 8.00042 71.4018 8.30859C70.9417 8.61676 70.6036 9.07587 70.4459 9.60669C69.8633 11.273 69.8633 13.0876 70.4459 14.7539C70.6059 15.2825 70.9449 15.7389 71.4048 16.0448C71.8647 16.3506 72.4167 16.4869 72.966 16.43C73.5027 16.4733 74.0372 16.3234 74.4731 16.0073C74.909 15.6913 75.2177 15.2299 75.3435 14.7064C75.5812 13.9099 75.6763 13.0778 75.8428 12.2219Z" fill="white"/>
<path d="M89.0966 18.4508H85.3997V5.90965H88.9064L89.0847 7.09839C89.699 6.50711 90.4362 6.0588 91.2438 5.78549C92.0514 5.51219 92.9094 5.42063 93.7565 5.51737C94.7634 5.55595 95.7183 5.97483 96.4286 6.68956C97.1389 7.40429 97.5519 8.36173 97.5842 9.36888C97.7625 12.3526 97.5842 15.3126 97.5842 18.427H93.8991V15.1105C93.8991 13.6127 93.8991 12.103 93.8991 10.6052C93.8991 9.48775 93.5544 8.46543 92.2824 8.22769C91.7506 8.12738 91.2004 8.21935 90.7301 8.48718C90.2597 8.755 89.8999 9.18125 89.7148 9.68984C89.3551 10.6201 89.1581 11.6052 89.1323 12.6022C89.0372 14.5518 89.0966 16.4656 89.0966 18.4508Z" fill="white"/>
<path d="M130.192 12.1265C130.192 16.3465 127.814 18.831 123.606 18.8785C119.398 18.9261 116.925 16.3941 116.913 12.2216C116.901 8.04913 119.422 5.48146 123.535 5.45769C127.648 5.43391 130.192 7.93026 130.192 12.1265ZM126.435 12.2573C126.349 11.4338 126.214 10.6161 126.031 9.80846C125.915 9.24667 125.599 8.74591 125.142 8.39854C124.686 8.05117 124.119 7.88063 123.547 7.91837C122.972 7.85705 122.395 8.02093 121.939 8.3756C121.482 8.73027 121.181 9.24812 121.098 9.82035C120.887 11.3983 120.887 12.9973 121.098 14.5753C121.197 15.1476 121.516 15.6584 121.987 15.9983C122.458 16.3382 123.043 16.4802 123.618 16.3941C124.163 16.4093 124.696 16.2369 125.129 15.9058C125.562 15.5747 125.867 15.105 125.995 14.5753C126.18 13.8104 126.327 13.0368 126.435 12.2573Z" fill="white"/>
<path d="M61.9469 13.7314H65.2991C65.4299 16.5724 62.9216 18.7835 59.4862 18.8786C58.6224 18.9606 57.7509 18.8595 56.9288 18.5819C56.1067 18.3042 55.3525 17.8563 54.7152 17.2673C54.078 16.6784 53.5722 15.9616 53.2309 15.1638C52.8895 14.3661 52.7202 13.5053 52.7342 12.6377C52.5915 8.29884 55.0522 5.57663 59.2247 5.5053C62.6244 5.4102 65.0851 7.34785 65.1683 10.2603C64.2538 10.3138 63.3369 10.3138 62.4224 10.2603C62.1252 10.2603 61.7804 9.82041 61.6259 9.49945C61.4603 9.04091 61.1537 8.64664 60.75 8.37326C60.3464 8.09988 59.8664 7.96145 59.3792 7.97787C58.8375 7.91667 58.2926 8.06107 57.8523 8.38248C57.4121 8.70389 57.1085 9.17887 57.0017 9.71342C56.7547 11.2221 56.7028 12.7563 56.8472 14.2782C56.893 14.9006 57.1816 15.48 57.6509 15.8915C58.1201 16.3029 58.7324 16.5133 59.3554 16.4773C60.6036 16.4773 61.3644 15.8354 61.7923 14.3495C61.8637 14.1593 61.8874 13.9929 61.9469 13.7314Z" fill="white"/>
<path d="M112.658 13.7431H115.939C115.939 16.6198 113.645 18.6882 110.316 18.8665C106.501 19.0686 103.731 16.7743 103.446 13.1844C103.101 8.70281 105.122 6.05192 109.175 5.51699C112.741 5.07716 115.321 6.81272 115.868 10.165H112.777C112.278 9.41652 111.673 8.74391 110.982 8.16788C110.67 8.00192 110.325 7.91016 109.972 7.89972C109.619 7.88928 109.268 7.96045 108.947 8.10769C108.626 8.25494 108.344 8.47428 108.121 8.74863C107.899 9.02299 107.743 9.34496 107.666 9.68946C107.382 11.235 107.342 12.8152 107.547 14.3731C107.629 14.9609 107.921 15.4991 108.369 15.8885C108.817 16.278 109.39 16.4925 109.984 16.4925C110.577 16.4925 111.151 16.278 111.598 15.8885C112.046 15.4991 112.338 14.9609 112.42 14.3731C112.484 14.1576 112.564 13.947 112.658 13.7431Z" fill="white"/>
<path d="M45.3993 8.50091L43.7708 8.37015V5.99268L45.3518 5.79059V2.68799H49.0725V5.69549L52.187 5.86191V8.33449H49.1795C49.1795 10.712 49.1795 13.0062 49.1795 15.2767C49.1795 15.5977 49.9878 16.0137 50.4752 16.1445C50.9736 16.1979 51.4776 16.1576 51.9611 16.0256C52.4723 18.1772 52.1276 18.6646 49.9878 18.7597C46.8139 18.9142 45.2923 17.4759 45.2923 14.3138C45.3993 12.4 45.3993 10.4861 45.3993 8.50091Z" fill="white"/>
<path d="M84.1878 18.4741H80.5146V5.87354H84.1878V18.4741Z" fill="white"/>
<path d="M42.6296 18.4504H39.0039V5.87354H42.6296V18.4504Z" fill="white"/>
<path d="M98.7734 15.1104H102.459V18.4626H98.7734V15.1104Z" fill="white"/>
<path d="M84.1882 1.24951V4.364H80.5269V1.24951H84.1882Z" fill="white"/>
<path d="M39.0159 1.20166H42.5821V4.38748H39.0159V1.20166Z" fill="white"/>
</svg>
