<svg xmlns="http://www.w3.org/2000/svg" xmlns:xlink="http://www.w3.org/1999/xlink" version="1.1" id="Capa_1" x="0px" y="0px" style="height: 23px; fill: #fff;" xml:space="preserve" viewBox="39.7 48.4 623.33 328.4">
                    <g>
                        <path class="st0" d="M303.3,376.7c-30,0-60.1,0-90.1,0c-18.7,0-37.3,0.1-56,0.1c-17.8,0-35.6-0.1-53.4,0c-6.3,0-12.6-0.6-18.6-2.3   c-11.5-3.3-21.3-9.5-29.4-18.4c-8.6-9.5-13.7-20.6-15.6-33.2c-0.4-2.4-0.5-4.9-0.5-7.4c0-22.8,0-45.6,0-68.5c0-21.3,0-42.5,0-63.8   c0-8.4,0-16.8,0-25.2c0-10.2,2.6-19.7,7.5-28.6c9.6-17.3,24.2-27.9,43.6-31.9c3.4-0.7,6.8-1,10.3-1c21.4,0,42.8,0,64.2,0   c73.2,0,146.4,0,219.6,0c39.9,0,79.8,0,119.8,0c15.9,0,30,5.2,41.8,15.7c10.8,9.5,17.6,21.4,20.1,35.6c0.8,4.2,1.1,8.4,1.1,12.6   c0,17.7,0,35.5,0,53.2c0,17.9,0,35.8,0,53.6c0,15.3,0,30.7,0,46c0,13.6-3.7,26.1-11.6,37.1c-8.3,11.6-19.3,19.5-32.9,23.7   c-6.4,2-13,2.7-19.6,2.7c-49.5,0-99.1,0-148.6,0C337.8,376.7,320.6,376.7,303.3,376.7z M303.7,358.5c12,0,24,0,36,0   c30.9,0,61.9,0,92.8,0c24.2,0,48.3,0,72.5,0c2.7,0,5.4-0.1,8-0.7c17.9-3.9,29.6-14.6,35-32.2c1.4-4.6,1.6-9.3,1.6-14   c0.1-12.4,0-24.7,0-37.1c0-38.3,0-76.6,0-114.9c0-6.1-1.2-12.1-3.5-17.7c-6.9-16.5-23-27.3-40.9-27.3c-22,0-44.1,0-66.1,0   c-12.2,0-24.4,0-36.7,0c-23.9,0-47.8,0-71.6,0c-23.5,0-46.9,0-70.4,0c-24.7,0-49.5,0-74.2,0c-10.7,0-21.5,0-32.2,0   c-17.5,0-34.9,0-52.4,0c-2.3,0-4.5,0.2-6.7,0.6c-12.7,2.5-22.8,8.9-29.9,19.7c-4.4,6.7-6.9,14-7.1,22.1c-0.2,7.6-0.1,15.1-0.1,22.7   c-0.1,11.8,0.2,23.6,0,35.4c-0.2,11.7,0.2,23.4,0,35.2c-0.2,12.6,0.2,25.3,0,37.9c-0.1,8.3,0.1,16.7,0,25   c-0.1,9.7,2.5,18.5,8.1,26.4c8.7,12.1,20.6,18.5,35.4,18.9c10.9,0.3,21.8,0.1,32.6,0.1c15.9,0,31.8,0,47.7,0c16.9,0,33.8,0,50.7,0   C256.2,358.5,279.9,358.5,303.7,358.5z"></path>
                        <path class="st0" d="M604.4,173.4c0,1.9,0,3.6,0,5.3c0,14.6-0.1,29.1,0,43.7c0.1,8.3,4,14.5,11.5,18.1c11.8,5.6,26.2-1.3,28.4-15   c0.2-1.4,0.3-2.8,0.3-4.2c0-15.3,0-30.5,0-45.8c0-0.6,0-1.3,0-1.9c8.9-2,17.9,4.8,18.3,13.7c0.2,3.2,0.1,6.5,0.1,9.7   c0,9-0.1,18.1-0.1,27.1c0.1,12.2,0,24.4,0,36.7c0,7.1,0.1,14.1,0.1,21.2c0,2.2,0,4.4-0.6,6.5c-1.8,6.6-7.7,11.2-14.5,11.3   c-15.5,0.1-31.1,0.1-46.6,0c-9-0.1-15.5-6.6-15.6-15.5c-0.1-6.7,0-13.4,0-20.1c0-21.3,0-42.5,0-63.8c0-4,0-7.9,0-11.9   c0.1-6.9,4.7-12.9,11.3-14.7C599.5,173.2,601.8,173.1,604.4,173.4z"></path>
                        <path class="st0" d="M624.3,116c-19-0.3-33.8-15.3-33.5-34.2c0.2-18.7,15.4-33.5,34-33.4c18.9,0.2,34.2,15.8,33.6,35.1   C657.8,100,644.3,116.1,624.3,116z"></path>
                        <path class="st0" d="M610.1,119.1c9.7,3.5,19.2,3.7,28.7,0.1c0.4,1,0.3,1.8,0.2,2.6c-0.3,11.6,0.1,23.2,0,34.8   c0,5.9-0.1,11.7-0.1,17.6c0,1.8,0.1,3.7,0.1,5.5c0,10.2-0.1,20.3-0.1,30.5c0,4,0.1,8.1,0.1,12.1c-0.1,6.2-3.9,11.5-9.5,13.5   c-9.4,3.4-19.5-3.5-19.5-14c0-8.5,0-17,0-25.4c0-23.7,0-47.5,0-71.2C610.1,123.2,610.1,121.3,610.1,119.1z"></path>
                        <path class="st0" d="M303.8,132.7c67,0,134,0,201,0c6.3,0,12,1.8,16.8,5.8c6.5,5.4,9.9,12.4,9.9,20.9c0,31.4,0,62.9,0,94.3   c0,20.2,0,40.4,0,60.6c0,13.3-10.8,24.9-24.1,25.8c-5,0.4-10,0.2-15,0.2c-41.7,0-83.4,0-125.1,0c-46.2,0-92.4,0-138.6,0   c-35.2,0-70.4,0-105.6,0c-6.9,0-13.8,0-20.8,0c-12-0.1-22.4-8.2-25.4-19.9c-0.6-2.2-0.8-4.4-0.8-6.7c0-10.7,0-21.5,0-32.2   c0-17.7,0-35.5,0-53.2c0-22.4,0.1-44.8,0-67.2c0-3.2,0-6.3,0.9-9.4c3.2-11.1,13.8-19.1,25.2-19.1c41.5,0.1,83,0,124.4,0   C252.4,132.7,278.1,132.7,303.8,132.7C303.8,132.7,303.8,132.7,303.8,132.7z M231.7,237C231.7,237,231.7,237,231.7,237   c0-7.3,0-14.6,0-21.8c0-10.5,0-21.1,0-31.6c0-7.1-2.3-13.3-7-18.6c-5.6-6.3-12.7-9.4-21.2-9.4c-21.2,0-42.4,0-63.6,0   c-3.1,0-6.2-0.2-9.3,0.1c-10.1,0.9-17.6,5.9-22.6,14.7c-2.6,4.6-3.3,9.5-3.3,14.7c0,14.9,0,29.8,0,44.7c0,19.9,0,39.8,0,59.8   c0,4.9,0.9,9.6,3.2,13.9c5.4,9.9,14,14.9,25.2,15c23.3,0.1,46.6,0,69.9,0c2.2,0,4.4-0.2,6.5-0.7c12.9-2.8,22-14,22.1-27.2   C231.7,272.7,231.7,254.9,231.7,237z M240.2,237c0,17.9-0.1,35.7,0,53.6c0,8.3,3.3,15.4,9.5,20.9c5.4,4.8,11.8,7,19,7   c21.3,0,42.7,0,64,0c2.9,0,5.8,0.1,8.7-0.2c10.3-1,18-6.2,22.8-15.4c2.4-4.6,3-9.5,3-14.6c0-35,0-69.9,0-104.9c0-1.5-0.1-3-0.4-4.4   c-2.3-13.6-13.8-23.4-27.6-23.4c-23.6,0-47.2,0-70.8,0c-2.3,0-4.7,0.2-6.9,0.8c-12.8,3.3-21.3,14.2-21.4,27.4   C240.2,201.5,240.2,219.2,240.2,237z M375.8,236.9C375.8,236.9,375.8,236.9,375.8,236.9c0,2.7,0,5.4,0,8.1c0,15.5,0,31.1,0.1,46.6   c0.1,7.2,2.9,13.3,7.9,18.4c5.5,5.6,12.3,8.4,20.1,8.4c6.2,0.1,12.4,0,18.7,0c17.3,0,34.6,0.1,51.9,0c9.4-0.1,17.1-3.8,22.8-11.4   c3.9-5.1,5.5-11,5.5-17.4c0-35.1,0-70.2,0-105.3c0-0.7,0-1.4,0-2.1c0-2.4-0.5-4.8-1.2-7.1c-3.8-11.8-14.4-19.5-26.8-19.5   c-16.7,0-33.3,0-50,0c-7.3,0-14.6-0.2-21.8,0.1c-11.5,0.5-19.7,6.2-24.6,16.5c-1.9,4-2.4,8.2-2.4,12.6   C375.8,202.2,375.8,219.5,375.8,236.9z"></path>
                        <path class="st0" d="M175.4,293.5c-8.4,0-16.7,0-25,0c-0.1-0.3-0.2-0.6-0.2-0.9c-0.4-11-0.1-21.9,2.2-32.7c1.7-8,5.3-15.1,9.9-21.8   c5.2-7.5,11.2-14.4,17.3-21.1c4.1-4.5,8.2-9,12.2-13.5c0.2-0.3,0.4-0.6,0.9-1.1c-1.8,0.6-3.2,1.1-4.7,1.6c-6.7,2.1-13.5,2-20.3,0.7   c-4.9-0.9-9.8-2.1-14.8-2.6c-8.4-0.8-14.4,2.2-17.3,9.8c-0.6,1.5-1,3.1-1.3,4.7c-0.9,4.2-1,8.5-1.2,12.8c0,0.7,0,1.4,0,2.3   c-2.2,0.2-4.3,0.1-6.3,0.1c-2,0-4.1,0-6.4,0c-0.1-17.1,0-34.1,0-51.2c4.5,0,8.9,0,13.5,0c0,4,0,7.9,0,12.1c1-0.5,1.4-1.2,1.9-1.8   c1.6-2.1,3.4-4,5.4-5.6c6.2-5.1,13.4-6.4,21.1-5.5c5.9,0.7,11.4,2.6,16.9,4.6c3.8,1.4,7.5,2.8,11.5,3.7c6.2,1.4,10.3-0.5,13.1-6   c0.2-0.4,0.3-0.8,0.7-1.1c3.8,0,7.6,0,11.5,0c0.4,1.5-0.2,2.9-0.5,4.2c-1.1,5-3.3,9.6-5.6,14.1c-4.1,7.9-9.4,15.1-14.3,22.5   c-5.2,7.9-10.1,16-13.5,24.9c-3.6,9.3-5.7,18.9-6.4,28.8c-0.4,5.3-0.3,10.6-0.2,15.9C175.4,292,175.4,292.7,175.4,293.5z"></path>
                        <path class="st0" d="M327.6,202.7c-0.4-0.2-0.8,0.1-1.2,0.2c-7.5,3-15.2,3.2-23.1,1.7c-4.8-0.9-9.5-1.9-14.4-2.6   c-3.1-0.4-6.1-0.1-9,0.8c-3.6,1.2-6.2,3.6-7.9,6.9c-1.8,3.5-2.5,7.3-3,11.2c-0.4,3.4-0.4,6.9-0.5,10.3c-1.6,0.5-10.3,0.6-12.8,0.2   c0-16.9,0-33.8,0-51c4.5-0.2,9-0.1,13.6-0.1c0,4.1,0,8,0,12.4c1.5-1.8,2.7-3.2,4-4.6c6.6-7.3,14.9-9.7,24.3-8.6   c5.4,0.6,10.6,2.3,15.7,4.2c4.2,1.6,8.4,3.2,12.9,4.2c6,1.3,10.1-0.6,12.8-6c0.5-1,1.1-1.4,2.3-1.4c3,0.1,5.9,0,8.9,0   c0.4,0,0.9-0.1,1.3,0.3c0.1,1.9-0.4,3.8-0.9,5.6c-1.7,5.9-4.4,11.3-7.5,16.5c-4.3,7.5-9.6,14.5-14.2,21.8   c-4.8,7.6-9.2,15.4-12.2,23.9c-2.4,6.7-4,13.5-4.9,20.5c-0.9,7.2-1.2,14.5-0.8,21.8c0,0.7,0,1.4,0,2.2c-8.4,0-16.7,0-25,0   c-0.5-0.5-0.3-1.1-0.3-1.6c-0.1-6.8-0.1-13.6,0.4-20.3c1-13.2,5.4-25.1,13.4-35.8c6.6-8.8,14-17,21.4-25.1c2.1-2.3,4.2-4.6,6.2-6.9   C327.4,203.4,327.9,203.2,327.6,202.7c0.1,0.1,0.2,0.1,0.3,0c0-0.1,0-0.3-0.1-0.3C327.6,202.4,327.6,202.6,327.6,202.7z"></path>
                        <path class="st0" d="M421.3,293.4c-0.2-7.6-0.2-14.9,0.4-22.3c1-12.9,5.3-24.6,13.1-35c6.5-8.7,13.7-16.7,21-24.7   c2.6-2.8,5.1-5.6,7.7-8.6c-0.8-0.4-1.2,0-1.7,0.1c-5.2,1.9-10.5,2.9-16,2.5c-3.9-0.3-7.7-1-11.5-1.7c-3.5-0.7-6.9-1.5-10.4-1.8   c-8.4-0.7-14.6,2.3-17.5,10.5c-0.6,1.6-1,3.2-1.3,4.9c-0.6,3.8-0.9,7.7-0.9,11.6c0,0.8,0.2,1.7-0.2,2.6c-4.1,0-8.3,0-12.6,0   c0-17,0-34,0-51.1c4.5,0,8.9,0,13.5,0c0,4,0,7.9,0,11.8c0.1,0.1,0.3,0.1,0.4,0.2c0.7-0.8,1.3-1.7,2-2.5c3.3-4,7.1-7.2,12.1-9   c4.5-1.6,9.1-2,13.8-1.4c5.5,0.6,10.7,2.4,15.9,4.3c4.2,1.6,8.4,3.2,12.9,4.1c5.8,1.3,9.9-0.6,12.7-5.9c0.2-0.4,0.5-0.9,0.7-1.4   c3.9,0,7.7,0,11.7,0c0.3,1.4-0.1,2.7-0.4,4c-1.4,6.3-4.2,11.9-7.4,17.5c-4.1,7.3-9,14-13.6,20.9c-6.1,9.3-11.4,19-14.7,29.7   c-3.7,12-4.9,24.3-4.5,36.8c0,1.2,0,2.4,0,3.7C438.2,293.4,429.8,293.4,421.3,293.4z"></path>
                    </g>
                </svg>