<svg data-v-8ac9d7dc="" width="24" height="24" viewBox="0 0 24 24" xmlns="http://www.w3.org/2000/svg" aria-hidden="true" role="img" class="item-icon icon icon-casino-category-roulette sm" icon="casino/category/roulette"><defs><linearGradient x1="0%" y1="100%" y2="0%" id="roulette_svg__a"><stop stop-color="#0095ff" offset="0%"></stop><stop stop-color="#0854c3" offset="100%"></stop></linearGradient></defs><path fill="none" d="M0 0h24v24H0z"></path><path d="M12 24C5.373 24 0 18.627 0 12S5.373 0 12 0s12 5.373 12 12-5.373 12-12 12zm0-2c5.523 0 10-4.477 10-10S17.523 2 12 2 2 6.477 2 12s4.477 10 10 10zm0-17a1 1 0 110-2 1 1 0 010 2zm-8 8a1 1 0 110-2 1 1 0 010 2zm16 0a1 1 0 110-2 1 1 0 010 2zm-8 8a1 1 0 110-2 1 1 0 010 2zm2.735-15.444a1 1 0 11.782-1.84 1 1 0 01-.782 1.84zM4.245 9.795a1 1 0 11.782-1.841 1 1 0 01-.782 1.84zm14.728 6.251a1 1 0 11.782-1.84 1 1 0 01-.782 1.84zm-10.49 4.239a1 1 0 11.782-1.841 1 1 0 01-.782 1.84zM18.49 9.378a1 1 0 111.855-.75 1 1 0 01-1.855.75zM8.076 4.958a1 1 0 111.854-.75 1 1 0 01-1.854.75zm5.994 14.834a1 1 0 111.854-.75 1 1 0 01-1.854.75zm-10.415-4.42a1 1 0 111.855-.75 1 1 0 01-1.855.75zM16.95 7.05a1 1 0 111.414-1.414A1 1 0 0116.95 7.05zm-11.314 0A1 1 0 117.05 5.636 1 1 0 015.636 7.05zM16.95 18.364a1 1 0 111.414-1.414 1 1 0 01-1.414 1.414zm-11.314 0A1 1 0 117.05 16.95a1 1 0 01-1.414 1.414z" fill="url(#roulette_svg__a)" class="roulette_svg__primary"></path><path d="M13.937 11.5h1.148a1.5 1.5 0 110 1h-1.148a2.003 2.003 0 01-1.437 1.437v1.148a1.5 1.5 0 11-1 0v-1.148a2.003 2.003 0 01-1.437-1.437H8.915a1.5 1.5 0 110-1h1.148a2.003 2.003 0 011.437-1.437V8.915a1.5 1.5 0 111 0v1.148c.703.18 1.256.734 1.437 1.437zM12 13a1 1 0 100-2 1 1 0 000 2z" fill="#fff"></path></svg>