<svg xmlns="http://www.w3.org/2000/svg" width="24" height="24" viewBox="0 0 24 24" fill="none">
<circle cx="12" cy="12" r="11.5" stroke="white" stroke-opacity="0.3"/>
<g clip-path="url(#clip0_223_175)">
<path d="M17.8904 8.35944L16.7654 7.23444C16.6192 7.08819 16.3814 7.08819 16.2352 7.23444L10.1249 13.3447L7.76544 10.9852C7.61919 10.8389 7.38144 10.8389 7.23519 10.9852L6.10944 12.1094C5.96319 12.2557 5.96319 12.4934 6.10944 12.6397L9.85944 16.3897C9.93294 16.4632 10.0289 16.4992 10.1249 16.4992C10.2209 16.4992 10.3169 16.4624 10.3904 16.3897L17.8904 8.89044C18.0367 8.74419 18.0367 8.50644 17.8904 8.36019V8.35944Z" fill="#1FE589"/>
</g>
<defs>
<clipPath id="clip0_223_175">
<rect width="12" height="12" fill="white" transform="translate(6 6)"/>
</clipPath>
</defs>
</svg>