<svg width="150" height="36" viewBox="0 0 150 36" fill="none" xmlns="http://www.w3.org/2000/svg">
<path d="M21.7728 25.5476L15.5235 28.2723V27.9974C14.3236 28.2973 12.9737 28.4723 11.7238 28.5473C5.82442 28.4973 1.17488 25.3976 1.09989 21.748V20.3981C3.0247 23.1978 6.97431 25.0976 11.7238 25.0227C13.3237 25.0976 14.9735 24.8477 16.3484 24.4727L16.8983 23.1228C15.2735 23.6228 13.4737 23.9478 11.7238 23.9478C5.82442 23.9478 1.17488 20.8731 1.09989 17.1484V16.0485C3.0247 18.6483 6.97431 20.5231 11.7238 20.3981C13.8736 20.5231 15.9484 20.0731 17.7232 19.2982L17.9982 17.9484C16.2734 18.8483 14.0486 19.3732 11.7488 19.2982C5.84942 19.3732 1.19988 16.2985 1.12489 12.4989V11.399C3.0497 14.0487 6.99931 15.9486 11.7488 16.0235C14.4486 15.9486 16.9983 15.2236 19.0981 14.1237L19.3731 12.4989C17.4733 13.8988 14.6985 14.8237 11.7488 14.9487C5.84942 14.8237 1.19988 11.724 1.12489 7.87435C1.17488 4.19971 5.84942 1.12502 11.7488 1.07502C15.2485 1.12502 18.5232 2.3499 20.448 4.3497L20.648 4.67467H22.0228L21.8228 4.3497C19.898 1.72496 16.0234 0.000130316 11.7488 0.000130316C5.19949 -0.0248672 0 3.54978 0 7.84936V8.12432V21.998C0.224978 26.1975 5.29948 29.6222 11.6988 29.6222C15.9234 29.6472 19.748 27.9724 21.7728 25.5476Z" fill="white"/>
<path d="M19.2231 35.1216L21.4229 25.7725L15.0985 28.5222L18.9481 12.3238H11.5488L13.4736 4.34961H37.0963L35.1715 12.3238H27.4723L25.8224 16.7234L34.3466 13.1487L19.2231 35.1216ZM23.0727 23.8727L21.9728 29.3721L31.0469 15.6485L23.6226 18.9482L26.9223 11.2489H34.3466L35.7214 5.4745H14.2736L12.8987 11.2489H20.323L16.7483 26.6224L23.0727 23.8727Z" fill="#8F8F8F"/>
<path d="M52.7693 9.72415C52.7943 10.5991 52.5193 11.274 51.9694 11.7739C51.4194 12.2739 50.6695 12.5239 49.6946 12.5239C48.7197 12.5239 47.9198 12.1989 47.3198 11.574C46.7199 10.949 46.4199 10.1241 46.4199 9.1242V7.49936C46.4199 6.49946 46.7199 5.67455 47.2948 5.04961C47.8948 4.42467 48.6697 4.09971 49.6196 4.09971C50.6195 4.09971 51.3944 4.34968 51.9694 4.82463C52.5443 5.32458 52.8193 5.99951 52.7943 6.87443V6.89942H51.1945C51.1945 6.37448 51.0695 5.97452 50.8195 5.72455C50.5695 5.47457 50.1696 5.34958 49.6446 5.34958C49.1447 5.34958 48.7697 5.54956 48.4947 5.94952C48.2197 6.34948 48.0698 6.84943 48.0698 7.47437V9.1242C48.0698 9.74914 48.2197 10.2741 48.4947 10.6741C48.7947 11.074 49.1946 11.274 49.7196 11.274C50.2195 11.274 50.5695 11.149 50.8195 10.899C51.0695 10.6491 51.1945 10.2491 51.1945 9.72415H52.7693ZM61.8184 9.04921C61.8184 10.0491 61.4934 10.899 60.8685 11.549C60.2436 12.1989 59.4186 12.5239 58.3937 12.5239C57.3688 12.5239 56.5689 12.1989 55.919 11.549C55.294 10.899 54.9691 10.0491 54.9691 9.04921V7.57436C54.9691 6.57446 55.294 5.74954 55.919 5.07461C56.5439 4.42467 57.3688 4.07471 58.3687 4.07471C59.3936 4.07471 60.2186 4.39967 60.8435 5.07461C61.4934 5.72454 61.7934 6.57446 61.7934 7.57436V9.04921H61.8184ZM60.1686 7.54936C60.1686 6.89943 60.0186 6.39948 59.6936 5.97452C59.3686 5.57456 58.9437 5.34958 58.3687 5.34958C57.8188 5.34958 57.3688 5.54956 57.0689 5.97452C56.7689 6.37448 56.5939 6.89943 56.5939 7.54936V9.02421C56.5939 9.67415 56.7439 10.1991 57.0689 10.6241C57.3688 11.024 57.8188 11.249 58.3687 11.249C58.9437 11.249 59.3686 11.049 59.6936 10.6241C60.0186 10.2241 60.1686 9.67415 60.1686 9.02421V7.54936ZM66.068 12.3989H64.4181V4.19969H66.068V12.3989ZM75.542 12.3989H73.8922L70.5925 6.87443H70.5675V12.3989H68.9177V4.19969H70.5675L73.8672 9.72415H73.8922V4.19969H75.542V12.3989ZM83.8162 5.47457H81.4665V12.3989H79.8166V5.47457H77.5169V4.19969H83.8162V5.47457ZM90.6156 8.79924H87.5659V11.149H91.1905V12.3989H85.941V4.19969H91.1905V5.47457H87.5909V7.52436H90.6406V8.79924H90.6156ZM95.1901 11.149H98.8647V12.3989H93.5403V4.19969H95.1901V11.149ZM105.864 8.79924H102.814V11.149H106.439V12.3989H101.19V4.19969H106.439V5.47457H102.839V7.52436H105.889V8.79924H105.864ZM115.088 11.299C114.838 11.624 114.463 11.9239 113.938 12.1739C113.438 12.4239 112.788 12.5489 111.988 12.5489C110.989 12.5489 110.189 12.2489 109.564 11.624C108.939 10.999 108.614 10.1991 108.614 9.1992V7.47437C108.614 6.47447 108.914 5.67455 109.539 5.04961C110.139 4.42467 110.939 4.09971 111.888 4.09971C112.888 4.09971 113.663 4.34968 114.188 4.82463C114.713 5.29959 114.988 5.92453 114.963 6.72445V6.74944H113.413C113.413 6.32448 113.288 5.97452 113.038 5.72455C112.788 5.47457 112.413 5.34958 111.938 5.34958C111.438 5.34958 111.039 5.54956 110.714 5.92452C110.414 6.32448 110.264 6.82443 110.264 7.42437V9.1492C110.264 9.77414 110.414 10.2741 110.739 10.6741C111.064 11.074 111.488 11.249 112.013 11.249C112.413 11.249 112.713 11.199 112.938 11.124C113.163 11.049 113.338 10.949 113.463 10.824V9.2242H111.888V8.07431H115.113V11.299H115.088ZM119.338 9.1242V12.3989H117.688V4.19969H120.538C121.463 4.19969 122.212 4.42467 122.737 4.84963C123.262 5.27459 123.537 5.87452 123.537 6.62445C123.537 7.04941 123.437 7.39938 123.212 7.72435C122.987 8.02432 122.662 8.27429 122.237 8.47427C122.712 8.62426 123.062 8.84924 123.287 9.1992C123.487 9.52417 123.612 9.94913 123.612 10.4491V11.049C123.612 11.274 123.637 11.524 123.712 11.7739C123.762 12.0239 123.887 12.1989 124.037 12.3239V12.4489H122.337C122.187 12.3239 122.087 12.1239 122.037 11.8489C121.987 11.574 121.962 11.299 121.962 11.049V10.4741C121.962 10.0741 121.862 9.74914 121.637 9.52417C121.413 9.29919 121.088 9.1742 120.688 9.1742H119.338V9.1242ZM119.338 7.87433H120.513C120.963 7.87433 121.313 7.77434 121.537 7.57436C121.762 7.37438 121.887 7.09941 121.887 6.69945C121.887 6.32448 121.762 6.02451 121.537 5.79953C121.313 5.57456 120.988 5.47457 120.538 5.47457H119.338V7.87433ZM130.512 10.6491H127.862L127.312 12.4239H125.587L128.362 4.22469H130.037L132.786 12.4239H131.062L130.512 10.6491ZM128.262 9.34919H130.112L129.212 6.44947H129.187L128.262 9.34919ZM136.436 9.42418V12.3989H134.786V4.19969H137.936C138.886 4.19969 139.611 4.44967 140.161 4.92462C140.711 5.39957 140.961 6.04951 140.961 6.82443C140.961 7.59936 140.686 8.2493 140.161 8.72425C139.611 9.1992 138.886 9.44918 137.936 9.44918H136.436V9.42418ZM136.436 8.1743H137.936C138.386 8.1743 138.736 8.04931 138.986 7.79934C139.211 7.54936 139.336 7.2244 139.336 6.84943C139.336 6.44947 139.211 6.1245 138.986 5.87452C138.761 5.62455 138.411 5.49956 137.936 5.49956H136.436V8.1743ZM149.985 12.3989H148.335V8.99922H144.985V12.3989H143.335V4.19969H144.985V7.72435H148.335V4.19969H149.985V12.3989Z" fill="white"/>
<path d="M49.4196 25.7976H48.3947V20.3981H46.5449V19.5232H51.2695V20.3981H49.4196V25.7976ZM56.294 25.7976H55.2691V22.8729C55.2691 22.4979 55.1941 22.2229 55.0441 22.0479C54.8941 21.873 54.6691 21.773 54.3442 21.773C53.9192 21.773 53.6192 21.898 53.4192 22.1479C53.2193 22.3979 53.1193 22.8229 53.1193 23.4228V25.7726H52.1194V19.0982H53.1193V20.7981C53.1193 21.073 53.0943 21.348 53.0693 21.673H53.1443C53.2693 21.448 53.4692 21.273 53.7192 21.148C53.9692 21.023 54.2442 20.9481 54.5691 20.9481C55.719 20.9481 56.294 21.523 56.294 22.6979V25.7976ZM59.7686 25.8726C59.0187 25.8726 58.4437 25.6476 58.0438 25.2226C57.6188 24.7977 57.4188 24.1977 57.4188 23.4478C57.4188 22.6729 57.6188 22.0729 57.9938 21.623C58.3688 21.173 58.9187 20.9481 59.5936 20.9481C60.2186 20.9481 60.7185 21.148 61.0685 21.523C61.4434 21.898 61.6184 22.4229 61.6184 23.0978V23.6478H58.4437C58.4687 24.0977 58.5937 24.4727 58.8187 24.6977C59.0437 24.9477 59.3937 25.0726 59.8186 25.0726C60.0936 25.0726 60.3686 25.0476 60.5935 24.9977C60.8435 24.9477 61.0935 24.8477 61.3685 24.7227V25.5476C61.1185 25.6726 60.8685 25.7476 60.6185 25.7976C60.3936 25.8476 60.0936 25.8726 59.7686 25.8726ZM59.5936 21.723C59.2687 21.723 59.0187 21.823 58.8187 22.0229C58.6187 22.2229 58.5187 22.5229 58.4687 22.9229H60.6185C60.6185 22.5229 60.5185 22.2229 60.3436 22.0229C60.1686 21.823 59.9186 21.723 59.5936 21.723ZM67.4179 21.798H66.268V25.7976H65.2431V21.798H64.4681V21.323L65.2431 21.023V20.7231C65.2431 20.1731 65.3681 19.7482 65.643 19.4732C65.918 19.1982 66.318 19.0732 66.8429 19.0732C67.1929 19.0732 67.5428 19.1232 67.8928 19.2482L67.6178 20.0231C67.3679 19.9482 67.1429 19.8982 66.8929 19.8982C66.6679 19.8982 66.4929 19.9732 66.393 20.0981C66.293 20.2481 66.243 20.4481 66.243 20.7231V21.023H67.3929V21.798H67.4179ZM71.5924 25.7976L71.4425 25.1726H71.3925C71.2425 25.3976 71.0425 25.5726 70.7925 25.6976C70.5425 25.8226 70.2426 25.8976 69.9176 25.8976C69.3427 25.8976 68.9177 25.7476 68.6177 25.4726C68.3178 25.1976 68.1928 24.7477 68.1928 24.1727V21.048H69.2177V23.9728C69.2177 24.3477 69.2927 24.5977 69.4427 24.7977C69.5926 24.9727 69.8176 25.0726 70.1426 25.0726C70.5676 25.0726 70.8675 24.9477 71.0675 24.6977C71.2675 24.4477 71.3675 24.0228 71.3675 23.4228V21.048H72.3924V25.7976H71.5924ZM75.5921 25.0476C75.842 25.0476 76.092 24.9977 76.342 24.9227V25.6726C76.242 25.7226 76.092 25.7726 75.917 25.7976C75.742 25.8226 75.5671 25.8476 75.3671 25.8476C74.4172 25.8476 73.9422 25.3476 73.9422 24.3477V21.798H73.2923V21.348L73.9922 20.9731L74.3422 19.9732H74.9671V21.023H76.317V21.798H74.9671V24.3477C74.9671 24.5977 75.0171 24.7727 75.1421 24.8977C75.2171 24.9977 75.3921 25.0476 75.5921 25.0476ZM80.6166 25.7976L80.4666 25.1726H80.4166C80.2666 25.3976 80.0666 25.5726 79.8166 25.6976C79.5667 25.8226 79.2667 25.8976 78.9417 25.8976C78.3668 25.8976 77.9418 25.7476 77.6419 25.4726C77.3669 25.1976 77.2169 24.7477 77.2169 24.1727V21.048H78.2418V23.9728C78.2418 24.3477 78.3168 24.5977 78.4668 24.7977C78.6168 24.9727 78.8417 25.0726 79.1667 25.0726C79.5917 25.0726 79.8916 24.9477 80.0916 24.6977C80.2916 24.4477 80.3916 24.0228 80.3916 23.4228V21.048H81.4165V25.7976H80.6166ZM85.2661 20.9481C85.4661 20.9481 85.6411 20.973 85.766 20.998L85.6661 21.948C85.5161 21.923 85.3661 21.898 85.2161 21.898C84.8161 21.898 84.4912 22.0229 84.2412 22.2979C83.9912 22.5729 83.8662 22.8979 83.8662 23.3228V25.7976H82.8663V21.048H83.6663L83.7912 21.873H83.8412C83.9912 21.598 84.2162 21.373 84.4662 21.198C84.6912 21.048 84.9661 20.9481 85.2661 20.9481ZM88.5408 25.8726C87.7908 25.8726 87.2159 25.6476 86.8159 25.2226C86.391 24.7977 86.191 24.1977 86.191 23.4478C86.191 22.6729 86.391 22.0729 86.7659 21.623C87.1409 21.173 87.6909 20.9481 88.3658 20.9481C88.9907 20.9481 89.4907 21.148 89.8406 21.523C90.2156 21.898 90.3906 22.4229 90.3906 23.0978V23.6478H87.2159C87.2409 24.0977 87.3659 24.4727 87.5909 24.6977C87.8158 24.9477 88.1658 25.0726 88.5908 25.0726C88.8657 25.0726 89.1407 25.0476 89.3657 24.9977C89.6157 24.9477 89.8656 24.8477 90.1406 24.7227V25.5476C89.8906 25.6726 89.6407 25.7476 89.3907 25.7976C89.1407 25.8476 88.8657 25.8726 88.5408 25.8726ZM88.3658 21.723C88.0408 21.723 87.7908 21.823 87.5909 22.0229C87.3909 22.2229 87.2909 22.5229 87.2409 22.9229H89.3907C89.3907 22.5229 89.2907 22.2229 89.1157 22.0229C88.9157 21.823 88.6658 21.723 88.3658 21.723ZM98.0148 23.3978C98.0148 24.1727 97.8149 24.7727 97.4149 25.2226C97.0149 25.6476 96.465 25.8726 95.7651 25.8726C95.3151 25.8726 94.9401 25.7726 94.5902 25.5726C94.2402 25.3726 93.9902 25.0726 93.8153 24.6977C93.6403 24.3227 93.5403 23.8978 93.5403 23.3978C93.5403 22.6229 93.7403 22.023 94.1402 21.598C94.5402 21.173 95.0901 20.9481 95.8151 20.9481C96.49 20.9481 97.0399 21.173 97.4399 21.623C97.8399 22.0729 98.0148 22.6479 98.0148 23.3978ZM94.5652 23.3978C94.5652 24.4977 94.9651 25.0476 95.7901 25.0476C96.59 25.0476 96.9899 24.4977 96.9899 23.3978C96.9899 22.3229 96.59 21.773 95.7901 21.773C95.3651 21.773 95.0651 21.923 94.8651 22.1979C94.6652 22.4729 94.5652 22.8729 94.5652 23.3978ZM101.564 21.798H100.415V25.7976H99.3897V21.798H98.6148V21.323L99.3897 21.023V20.7231C99.3897 20.1731 99.5147 19.7482 99.7897 19.4732C100.065 19.1982 100.465 19.0732 100.99 19.0732C101.34 19.0732 101.689 19.1232 102.039 19.2482L101.764 20.0231C101.514 19.9482 101.29 19.8982 101.04 19.8982C100.815 19.8982 100.64 19.9732 100.54 20.0981C100.44 20.2231 100.39 20.4481 100.39 20.7231V21.023H101.539V21.798H101.564ZM108.664 25.7976H107.639V22.8729C107.639 22.4979 107.564 22.2479 107.439 22.0479C107.314 21.873 107.089 21.773 106.789 21.773C106.389 21.773 106.114 21.898 105.939 22.1479C105.764 22.3979 105.664 22.8229 105.664 23.4228V25.7976H104.664V21.048H105.464L105.614 21.673H105.664C105.789 21.448 105.989 21.273 106.239 21.148C106.489 21.023 106.764 20.9731 107.064 20.9731C107.789 20.9731 108.289 21.223 108.514 21.723H108.589C108.739 21.498 108.939 21.298 109.189 21.173C109.439 21.048 109.739 20.9731 110.064 20.9731C110.639 20.9731 111.039 21.123 111.314 21.398C111.563 21.673 111.713 22.1229 111.713 22.6979V25.7976H110.714V22.8729C110.714 22.4979 110.639 22.2479 110.514 22.0479C110.364 21.873 110.164 21.773 109.864 21.773C109.464 21.773 109.189 21.898 109.014 22.1479C108.839 22.3979 108.739 22.7729 108.739 23.2728V25.7976H108.664ZM117.263 23.3978C117.263 24.1727 117.063 24.7727 116.663 25.2226C116.263 25.6476 115.713 25.8726 115.013 25.8726C114.563 25.8726 114.188 25.7726 113.838 25.5726C113.488 25.3726 113.238 25.0726 113.063 24.6977C112.888 24.3227 112.788 23.8978 112.788 23.3978C112.788 22.6229 112.988 22.023 113.388 21.598C113.788 21.173 114.338 20.9481 115.063 20.9481C115.738 20.9481 116.288 21.173 116.688 21.623C117.063 22.0729 117.263 22.6479 117.263 23.3978ZM113.813 23.3978C113.813 24.4977 114.213 25.0476 115.038 25.0476C115.838 25.0476 116.238 24.4977 116.238 23.3978C116.238 22.3229 115.838 21.773 115.038 21.773C114.613 21.773 114.313 21.923 114.113 22.1979C113.913 22.4729 113.813 22.8729 113.813 23.3978ZM122.612 25.7976H121.588V22.8729C121.588 22.4979 121.513 22.2229 121.363 22.0479C121.213 21.873 120.988 21.773 120.663 21.773C120.238 21.773 119.913 21.898 119.738 22.1479C119.563 22.3979 119.438 22.8229 119.438 23.4228V25.7976H118.438V21.048H119.238L119.388 21.673H119.438C119.588 21.448 119.788 21.273 120.038 21.148C120.288 21.023 120.588 20.9731 120.913 20.9731C122.062 20.9731 122.612 21.548 122.612 22.7229V25.7976ZM126.087 25.8726C125.337 25.8726 124.762 25.6476 124.362 25.2226C123.937 24.7977 123.737 24.1977 123.737 23.4478C123.737 22.6729 123.937 22.0729 124.312 21.623C124.687 21.173 125.237 20.9481 125.912 20.9481C126.537 20.9481 127.037 21.148 127.387 21.523C127.762 21.898 127.937 22.4229 127.937 23.0978V23.6478H124.762C124.787 24.0977 124.912 24.4727 125.137 24.6977C125.362 24.9477 125.712 25.0726 126.137 25.0726C126.412 25.0726 126.687 25.0476 126.912 24.9977C127.137 24.9477 127.412 24.8477 127.687 24.7227V25.5476C127.437 25.6726 127.187 25.7476 126.937 25.7976C126.687 25.8476 126.412 25.8726 126.087 25.8726ZM125.887 21.723C125.562 21.723 125.312 21.823 125.112 22.0229C124.912 22.2229 124.812 22.5229 124.762 22.9229H126.912C126.912 22.5229 126.812 22.2229 126.637 22.0229C126.462 21.823 126.212 21.723 125.887 21.723ZM128.187 21.048H129.287L130.262 23.7478C130.412 24.1227 130.512 24.4977 130.562 24.8227H130.587C130.612 24.6727 130.662 24.4727 130.737 24.2477C130.812 24.0227 131.162 22.9479 131.836 21.048H132.936L130.912 26.4225C130.537 27.3974 129.937 27.8974 129.062 27.8974C128.837 27.8974 128.612 27.8724 128.412 27.8224V27.0225C128.562 27.0475 128.737 27.0725 128.937 27.0725C129.412 27.0725 129.762 26.7975 129.962 26.2225L130.137 25.7726L128.187 21.048Z" fill="white"/>
</svg>
