<svg width="136" height="32" viewBox="0 0 136 32" fill="none" xmlns="http://www.w3.org/2000/svg">
<path d="M23.3677 15.5781L15.5786 23.3672H31.1567L23.3677 15.5781Z" fill="#343434"/>
<path d="M7.78907 15.5781L0 7.78905V23.3672L7.78907 15.5781Z" fill="#D8D8D8"/>
<path d="M23.3677 15.5781L31.1567 7.78906H15.5786L23.3677 15.5781Z" fill="#343434"/>
<path d="M15.5781 7.78906L23.3672 -4.76837e-06H7.78906L15.5781 7.78906Z" fill="#7E7E7E"/>
<path d="M23.3677 31.1562L31.1567 23.3672H15.5786L23.3677 31.1562Z" fill="#595959"/>
<path d="M7.78907 31.1562L15.5781 23.3672H0L7.78907 31.1562Z" fill="#B6B6B6"/>
<path d="M23.3677 -4.76837e-06L15.5786 7.78906H31.1567L23.3677 -4.76837e-06Z" fill="#595959"/>
<path d="M0 7.78906H15.5781L7.78907 -4.76837e-06L0 7.78906Z" fill="#B6B6B6"/>
<path d="M15.5781 23.3672L7.78906 31.1562H23.3672L15.5781 23.3672Z" fill="#7E7E7E"/>
<path d="M7.78907 15.5781L0 23.3672H15.5781L7.78907 15.5781Z" fill="white"/>
<path d="M15.5781 7.78906H0L7.78907 15.5781L15.5781 7.78906Z" fill="white"/>
<path d="M40.1838 18.4289C40.6122 18.4289 40.9316 18.312 41.1419 18.0784C41.3444 17.8447 41.4534 17.502 41.4534 17.0502H44.3665L44.3899 17.1047C44.4185 17.6177 44.3287 18.1304 44.1275 18.6031C43.9262 19.0758 43.6189 19.4959 43.2293 19.8309C42.3837 20.5485 41.3 20.9237 40.1916 20.8824C38.6338 20.8824 37.4421 20.3995 36.6086 19.4337C35.7347 18.3859 35.2821 17.0503 35.339 15.6871V15.469C35.339 13.9424 35.7596 12.6961 36.6008 11.7303C37.4343 10.7644 38.626 10.2815 40.1604 10.2815C41.4534 10.2815 42.4894 10.6398 43.2605 11.3642C43.654 11.7448 43.959 12.2071 44.1542 12.7186C44.3494 13.23 44.4298 13.7781 44.3899 14.324L44.3665 14.3785H41.4534C41.4712 13.9569 41.3568 13.5403 41.1263 13.1868C40.916 12.883 40.5888 12.7351 40.1604 12.7351C39.5529 12.7351 39.1323 12.9843 38.8908 13.475C38.6219 14.1041 38.4968 14.7854 38.5247 15.469V15.6871C38.5247 16.5439 38.6416 17.2138 38.8908 17.6967C39.1245 18.1796 39.5607 18.4289 40.1838 18.4289ZM51.4702 13.2803L50.3018 13.2725C49.9435 13.2725 49.6397 13.3348 49.4061 13.4516C49.1724 13.5763 49.001 13.7476 48.892 13.9813V20.6799H45.6985V10.4684H48.7051L48.8141 11.9639C48.993 11.4845 49.2873 11.0564 49.6709 10.7177C50.0154 10.4291 50.4523 10.2742 50.9016 10.2815C51.1984 10.2804 51.4941 10.3171 51.7817 10.3905L51.4702 13.2803ZM57.5301 16.1778V16.2557H57.5924L59.2826 10.4684H62.6786L58.6127 22.1988C58.3012 22.9543 57.8884 23.5774 57.3977 24.0681C56.8992 24.5589 56.1047 24.8081 55.022 24.8081C54.7494 24.8081 54.5235 24.7925 54.3443 24.7536C54.173 24.7224 53.8926 24.6601 53.5187 24.5666L53.9081 22.2922L54.1029 22.339L54.2665 22.3546C54.7727 22.3546 55.1388 22.2767 55.3725 22.1287C55.6062 21.9807 55.7775 21.7548 55.8944 21.4588L56.1514 20.7967L52.6152 10.4684H56.0034L57.5301 16.1778ZM69.7978 15.5936C69.7978 14.7368 69.6654 14.0358 69.4084 13.514C69.1591 12.9921 68.7619 12.7351 68.2089 12.7351C67.8428 12.7351 67.539 12.7974 67.2976 12.9298C67.0483 13.0622 66.8458 13.2569 66.7056 13.5062V17.7746C66.8614 17.9927 67.0561 18.164 67.3053 18.2653C67.5981 18.3784 67.9107 18.4314 68.2245 18.4211C68.7853 18.4211 69.1825 18.1874 69.424 17.7278C69.701 17.1205 69.8266 16.455 69.7901 15.7884V15.5936H69.7978ZM72.9758 15.7884C72.9758 17.3306 72.6253 18.5613 71.932 19.4882C71.5972 19.9427 71.1556 20.3077 70.6461 20.5509C70.1366 20.7941 69.5751 20.9079 69.0112 20.8824C68.5666 20.8947 68.1255 20.8007 67.7245 20.6084C67.3236 20.416 66.9742 20.1308 66.7056 19.7764V24.6056H63.5121V10.4684H66.4953L66.6121 11.5901C66.8559 11.1803 67.2045 10.843 67.6222 10.613C68.0398 10.383 68.5112 10.2685 68.9878 10.2815C70.2574 10.2815 71.231 10.7644 71.932 11.7381C72.6743 12.8826 73.0393 14.231 72.9758 15.5936V15.7884ZM78.1555 7.9292V10.4684H79.8847V12.6727H78.1555V17.3618C78.1555 17.7201 78.2334 17.9849 78.3736 18.1407C78.4498 18.2229 78.5428 18.2878 78.6463 18.3308C78.7498 18.3738 78.8613 18.394 78.9734 18.3899C79.2873 18.3901 79.6004 18.3588 79.9081 18.2964L80.1262 20.6565C79.4858 20.8105 78.8297 20.8889 78.1711 20.8902C77.1196 20.8824 76.3251 20.602 75.7876 20.0334C75.2424 19.4804 74.9698 18.5924 74.9698 17.3851V12.6727H73.5366V10.4684H74.9698V7.9292H78.1555ZM83.8649 15.6793C83.8649 16.5361 83.9973 17.206 84.2699 17.6967C84.5348 18.1796 84.9865 18.4211 85.633 18.4211C86.2561 18.4211 86.7001 18.1796 86.9727 17.6889C87.2454 17.1982 87.3778 16.5205 87.3778 15.6793V15.4768C87.408 14.789 87.2689 14.1043 86.9727 13.4828C86.7001 12.9843 86.2484 12.7351 85.6097 12.7351C84.9865 12.7351 84.5348 12.9843 84.2699 13.4906C83.9973 13.9891 83.8649 14.659 83.8649 15.4768V15.6793ZM80.6714 15.4768C80.6136 14.1068 81.0818 12.7664 81.9799 11.7303C82.8445 10.7644 84.0596 10.2737 85.6174 10.2737C87.1753 10.2737 88.3904 10.7644 89.2549 11.7303C90.151 12.7676 90.6189 14.1071 90.5635 15.4768V15.6793C90.5635 17.2216 90.1273 18.4756 89.2549 19.4337C88.3904 20.3995 87.183 20.8824 85.633 20.8824C84.0674 20.8824 82.8445 20.3995 81.9722 19.4337C81.0791 18.3923 80.6167 17.0497 80.6792 15.6793V15.4768H80.6714ZM94.902 10.4684L95.0266 11.9016C95.3616 11.3953 95.7744 10.9903 96.2651 10.7099C96.7619 10.4227 97.327 10.2747 97.9008 10.2815C98.9056 10.2815 99.6923 10.6008 100.253 11.2473C100.814 11.9016 101.094 12.9298 101.094 14.3474V20.6799H97.9008V14.3396C97.9008 13.7554 97.784 13.3348 97.5425 13.0934C97.301 12.8597 96.9427 12.7351 96.4676 12.7351C96.207 12.7269 95.9479 12.7772 95.7093 12.8823C95.4707 12.9875 95.2588 13.1448 95.089 13.3426V20.6799H91.9188V10.4684H94.9098H94.902ZM107.271 12.7351C106.811 12.7351 106.469 12.8908 106.235 13.2258C106.001 13.5529 105.869 13.9891 105.814 14.5343L105.846 14.5811H108.595V14.3396C108.595 13.8177 108.486 13.4283 108.276 13.1479C108.058 12.8675 107.731 12.7351 107.271 12.7351ZM107.505 20.8824C105.994 20.8824 104.794 20.4151 103.898 19.4648C103.451 18.9908 103.101 18.433 102.87 17.8234C102.639 17.2139 102.53 16.5646 102.551 15.913V15.5547C102.551 13.9969 102.956 12.7273 103.774 11.7458C104.592 10.7644 105.752 10.2659 107.271 10.2815C108.658 10.2815 109.74 10.6943 110.527 11.5277C111.348 12.4533 111.774 13.6645 111.711 14.9004V16.5751H105.869L105.853 16.6296C105.931 17.1515 106.134 17.5876 106.5 17.9226C106.858 18.2575 107.333 18.4289 107.933 18.4289C108.911 18.451 109.88 18.2316 110.753 17.7902L111.508 19.7374C110.981 20.1044 110.397 20.3809 109.779 20.5553C109.07 20.7734 108.307 20.8824 107.497 20.8824M121.829 16.3881H121.883L122.989 10.4684H125.934L123.535 20.6799H120.84L119.173 15.2665H119.118L117.451 20.6799H114.756L112.35 10.4684H115.294L116.415 16.4349H116.478L118.137 10.4684H120.146L121.829 16.3881ZM132.399 17.8135C132.399 17.5643 132.258 17.3384 131.97 17.1359C131.487 16.8677 130.959 16.6883 130.412 16.6062C129.44 16.4641 128.515 16.0901 127.717 15.5158C127.421 15.2744 127.184 14.967 127.027 14.6181C126.87 14.2692 126.797 13.8884 126.814 13.5062C126.813 13.0634 126.915 12.6264 127.111 12.2293C127.307 11.8321 127.592 11.4855 127.943 11.2162C128.699 10.5931 129.727 10.2815 131.012 10.2815C132.375 10.2815 133.458 10.5853 134.26 11.1928C134.638 11.4535 134.942 11.8066 135.144 12.2185C135.345 12.6304 135.438 13.0871 135.413 13.5451L135.397 13.5996H132.297C132.297 13.2024 132.196 12.8986 131.986 12.6883C131.783 12.478 131.456 12.3768 131.004 12.3768C130.669 12.3768 130.389 12.4624 130.163 12.6494C130.055 12.7321 129.969 12.8395 129.911 12.9626C129.853 13.0857 129.826 13.2209 129.831 13.3567C129.836 13.4926 129.874 13.6252 129.942 13.7434C130.009 13.8616 130.104 13.9619 130.218 14.0358C130.708 14.3025 131.245 14.4743 131.799 14.5421C132.798 14.6866 133.748 15.0656 134.572 15.6482C134.872 15.8999 135.109 16.2183 135.265 16.578C135.421 16.9377 135.49 17.3288 135.467 17.7201C135.467 18.6392 135.062 19.3947 134.245 19.9867C133.291 20.6235 132.158 20.9374 131.012 20.8824C129.626 20.8824 128.52 20.5241 127.717 19.8231C126.907 19.1221 126.518 18.3276 126.557 17.463L126.58 17.4085H129.462C129.478 17.8914 129.618 18.2419 129.906 18.4522C130.186 18.6703 130.584 18.7716 131.098 18.7716C131.526 18.7716 131.853 18.6937 132.071 18.5223C132.29 18.3588 132.399 18.1173 132.399 17.8135Z" fill="white"/>
</svg>
