<svg width="16" height="16" viewBox="0 0 16 16" fill="none" xmlns="http://www.w3.org/2000/svg">
<path d="M2.68691 13.3244C2.11257 12.7564 1.65556 12.0809 1.34191 11.3364L0.407914 12.2714C0.205699 12.4869 0.0692703 12.7556 0.0147017 13.046C-0.0398669 13.3364 -0.0103015 13.6363 0.0999145 13.9104C0.263871 14.3681 0.530725 14.7821 0.879915 15.1204C1.2188 15.468 1.63269 15.7334 2.08991 15.8964C2.28928 15.9624 2.49791 15.9962 2.70791 15.9964C2.89673 16.0001 3.08436 15.9659 3.25973 15.8958C3.43509 15.8257 3.59463 15.7212 3.72891 15.5884L4.65491 14.6624C3.91895 14.3472 3.25073 13.8929 2.68691 13.3244Z" fill="#96ACC1"/>
<path d="M6.23502 9.7764C5.36005 8.92482 4.69223 7.88375 4.28302 6.7334L2.50702 8.5094C1.58002 9.4384 1.94902 11.1634 3.39102 12.6144C4.11224 13.4171 5.11348 13.913 6.18902 14.0004C6.42884 14.0069 6.66751 13.9651 6.89084 13.8775C7.11417 13.7899 7.3176 13.6582 7.48902 13.4904L9.26302 11.7204C8.11871 11.3117 7.08299 10.6467 6.23502 9.7764Z" fill="#96ACC1"/>
<path d="M14.056 1.9482C13.0696 0.838368 11.7 0.142515 10.222 0.000203123C9.92765 -0.00943982 9.63436 0.0401144 9.35952 0.145928C9.08468 0.251741 8.83389 0.41166 8.622 0.616203L5.622 3.6162C4.452 4.7852 5.022 7.1262 6.945 9.0662C7.93992 10.1716 9.31662 10.859 10.798 10.9902C11.0904 11.0009 11.382 10.9528 11.6555 10.8487C11.929 10.7446 12.1787 10.5867 12.39 10.3842L15.39 7.3842C15.5942 7.17111 15.7534 6.91911 15.8582 6.64321C15.963 6.3673 16.0112 6.07313 16 5.7782C15.8583 4.30202 15.1639 2.93393 14.056 1.9482ZM13.97 5.9702C13.793 6.0962 12.639 5.9292 11.353 4.6512C10.067 3.3732 9.9 2.2002 10.03 2.0312C10.0842 2.0045 10.1449 1.99375 10.205 2.0002C11.1542 2.15108 12.0184 2.63583 12.642 3.3672C13.926 4.6402 14.1 5.7902 13.97 5.9702Z" fill="#96ACC1"/>
</svg>
