<svg width="14" height="16" viewBox="0 0 14 16" fill="none" xmlns="http://www.w3.org/2000/svg">
<path d="M8.72411 6.293C8.72411 6.293 9.47011 1.905 6.42611 0C6.38076 0.753945 6.17688 1.48984 5.82777 2.15963C5.47866 2.82941 4.99218 3.41802 4.40011 3.887C3.10011 5.03 0.655114 7.6 0.681114 10.34C0.671774 11.5113 0.989938 12.6619 1.59971 13.662C2.20949 14.6621 3.08661 15.4719 4.13211 16C4.16947 15.4711 4.312 14.955 4.55137 14.482C4.79074 14.0089 5.12213 13.5884 5.52611 13.245C5.86844 12.9817 6.15492 12.6529 6.36884 12.2778C6.58277 11.9027 6.71986 11.4887 6.77211 11.06C7.66705 11.5358 8.42318 12.2356 8.96656 13.0912C9.50994 13.9468 9.82196 14.9287 9.87211 15.941V15.954C10.8589 15.502 11.7014 14.7858 12.3064 13.8846C12.9115 12.9835 13.2554 11.9325 13.3001 10.848C13.5161 8.274 12.1061 4.774 10.8551 3.63C10.3828 4.68445 9.64936 5.601 8.72411 6.293Z" fill="#96ACC1"/>
</svg>
