<svg width="16" height="16" viewBox="0 0 16 16" fill="none" xmlns="http://www.w3.org/2000/svg">
<g clip-path="url(#clip0_3330_10820)">
<path d="M8 1.441C10.136 1.441 10.389 1.45 11.233 1.488C11.7402 1.49409 12.2425 1.58746 12.718 1.764C13.0658 1.89248 13.3802 2.09754 13.638 2.364C13.9045 2.62179 14.1095 2.93622 14.238 3.284C14.4145 3.75949 14.5079 4.26183 14.514 4.769C14.552 5.613 14.561 5.869 14.561 8.002C14.561 10.135 14.552 10.391 14.514 11.235C14.5079 11.7422 14.4145 12.2445 14.238 12.72C14.1052 13.0651 13.9015 13.3785 13.64 13.64C13.3785 13.9015 13.0651 14.1052 12.72 14.238C12.2445 14.4145 11.7422 14.5079 11.235 14.514C10.391 14.552 10.135 14.561 8.002 14.561C5.869 14.561 5.613 14.552 4.769 14.514C4.26183 14.5079 3.75949 14.4145 3.284 14.238C2.93622 14.1095 2.62179 13.9045 2.364 13.638C2.09754 13.3802 1.89248 13.0658 1.764 12.718C1.58746 12.2425 1.49409 11.7402 1.488 11.233C1.45 10.389 1.441 10.133 1.441 8C1.441 5.867 1.45 5.611 1.488 4.767C1.49409 4.25983 1.58746 3.75749 1.764 3.282C1.89248 2.93422 2.09754 2.61979 2.364 2.362C2.62179 2.09554 2.93622 1.89048 3.284 1.762C3.75949 1.58546 4.26183 1.49209 4.769 1.486C5.613 1.448 5.869 1.439 8.002 1.439M8 0C5.827 0 5.555 0.009 4.7 0.048C4.03696 0.0614835 3.381 0.187265 2.76 0.42C2.22596 0.620558 1.74231 0.9356 1.343 1.343C0.9356 1.74231 0.620558 2.22596 0.42 2.76C0.187265 3.381 0.0614835 4.03696 0.048 4.7C0.009 5.555 0 5.827 0 8C0 10.173 0.009 10.445 0.048 11.3C0.0614835 11.963 0.187265 12.619 0.42 13.24C0.620558 13.774 0.9356 14.2577 1.343 14.657C1.74231 15.0644 2.22596 15.3794 2.76 15.58C3.38163 15.813 4.03828 15.9387 4.702 15.952C5.555 15.991 5.827 16 8 16C10.173 16 10.445 15.991 11.3 15.952C11.9637 15.9387 12.6204 15.813 13.242 15.58C13.7734 15.3743 14.256 15.0599 14.659 14.657C15.0619 14.254 15.3763 13.7714 15.582 13.24C15.815 12.6184 15.9407 11.9617 15.954 11.298C15.993 10.445 16.002 10.173 16.002 7.998C16.002 5.823 15.993 5.553 15.954 4.698C15.9397 4.03552 15.8132 3.38025 15.58 2.76C15.3794 2.22596 15.0644 1.74231 14.657 1.343C14.2577 0.9356 13.774 0.620558 13.24 0.42C12.619 0.187265 11.963 0.0614835 11.3 0.048C10.445 0.009 10.173 0 8 0Z" fill="#96ACC1"/>
<path d="M8.00009 3.89209C7.18761 3.89209 6.39337 4.13302 5.71781 4.58441C5.04225 5.03581 4.51572 5.67739 4.20479 6.42803C3.89387 7.17867 3.81252 8.00465 3.97103 8.80152C4.12953 9.59839 4.52078 10.3304 5.0953 10.9049C5.66981 11.4794 6.40179 11.8706 7.19866 12.0292C7.99553 12.1877 8.82152 12.1063 9.57215 11.7954C10.3228 11.4845 10.9644 10.9579 11.4158 10.2824C11.8672 9.60682 12.1081 8.81258 12.1081 8.00009C12.1081 7.46062 12.0018 6.92643 11.7954 6.42803C11.5889 5.92962 11.2863 5.47676 10.9049 5.0953C10.5234 4.71383 10.0706 4.41124 9.57215 4.20479C9.07375 3.99835 8.53956 3.89209 8.00009 3.89209ZM8.00009 10.6671C7.47261 10.6671 6.95697 10.5107 6.51839 10.2176C6.0798 9.92457 5.73796 9.50804 5.5361 9.02071C5.33425 8.53338 5.28143 7.99713 5.38434 7.47978C5.48724 6.96244 5.74125 6.48722 6.11424 6.11424C6.48722 5.74125 6.96244 5.48724 7.47979 5.38434C7.99713 5.28143 8.53338 5.33424 9.02071 5.5361C9.50804 5.73796 9.92457 6.0798 10.2176 6.51838C10.5107 6.95697 10.6671 7.47261 10.6671 8.00009C10.6671 8.70742 10.3861 9.38578 9.88595 9.88594C9.38579 10.3861 8.70742 10.6671 8.00009 10.6671Z" fill="#96ACC1"/>
<path d="M12.2701 4.69002C12.8003 4.69002 13.2301 4.26021 13.2301 3.73002C13.2301 3.19983 12.8003 2.77002 12.2701 2.77002C11.7399 2.77002 11.3101 3.19983 11.3101 3.73002C11.3101 4.26021 11.7399 4.69002 12.2701 4.69002Z" fill="#96ACC1"/>
</g>
<defs>
<clipPath id="clip0_3330_10820">
<rect width="16" height="16" fill="white"/>
</clipPath>
</defs>
</svg>
