<svg width="16" height="12" viewBox="0 0 16 12" fill="none" xmlns="http://www.w3.org/2000/svg">
<path fill-rule="evenodd" clip-rule="evenodd" d="M1.95122 6C1.95122 4.4 2.53659 2.9 3.70732 1.7C4.09756 1.3 4.09756 0.7 3.70732 0.3C3.31707 -0.1 2.73171 -0.1 2.34146 0.3C0.878049 1.8 0 3.8 0 6C0 8.2 0.878049 10.2 2.34146 11.7C2.53659 11.9 2.82927 12 3.02439 12C3.31707 12 3.5122 11.9 3.70732 11.7C4.09756 11.3 4.09756 10.7 3.70732 10.3C2.53659 9.1 1.95122 7.6 1.95122 6ZM8.09998 9C9.75683 9 11.1 7.65685 11.1 6C11.1 4.34315 9.75683 3 8.09998 3C6.44312 3 5.09998 4.34315 5.09998 6C5.09998 7.65685 6.44312 9 8.09998 9ZM12.2927 0.3C12.6829 -0.1 13.2683 -0.1 13.6585 0.3C15.122 1.8 16 3.8 16 6C16 8.2 15.122 10.2 13.6585 11.7C13.4634 11.9 13.2683 12 12.9756 12C12.7805 12 12.4878 11.9 12.2927 11.7C11.9024 11.3 11.9024 10.7 12.2927 10.3C13.4634 9.1 14.0488 7.6 14.0488 6C14.0488 4.4 13.4634 2.9 12.2927 1.7C11.9024 1.3 11.9024 0.7 12.2927 0.3Z" fill="#96ACC1"/>
</svg>
