<svg height="100" viewBox="0 -46 512 512" width="100" xmlns="http://www.w3.org/2000/svg"><path fill="white" d="m181 90v240h150v-240zm120 111.210938-4.394531 4.394531c-16.273438 16.273437-25.605469 38.804687-25.605469 61.816406v17.578125h-30v-17.578125c0-28.769531 10.867188-56.980469 30-78.382813v-9.039062h-30v15h-30v-45h90zm0 0"><animate attributeName="d" values="m181 90v240h150v-240zm120 111.210938-4.394531 4.394531c-16.273438 16.273437-25.605469 38.804687-25.605469 61.816406v17.578125h-30v-17.578125c0-28.769531 10.867188-56.980469 30-78.382813v-9.039062h-30v15h-30v-45h90zm0 0;                      m181 120v240h150v-240zm120 111.210938-4.394531 4.394531c-16.273438 16.273437-25.605469 38.804687-25.605469 61.816406v17.578125h-30v-17.578125c0-28.769531 10.867188-56.980469 30-78.382813v-9.039062h-30v15h-30v-45h90zm0 0;                      m181 90v240h150v-240zm120 111.210938-4.394531 4.394531c-16.273438 16.273437-25.605469 38.804687-25.605469 61.816406v17.578125h-30v-17.578125c0-28.769531 10.867188-56.980469 30-78.382813v-9.039062h-30v15h-30v-45h90zm0 0;" dur="1s" repeatCount="indefinite"></animate></path><path fill="white" d="m0 0h512v60h-512zm0 0"></path><path fill="white" d="m0 360h512v60h-512zm0 0"></path><path fill="white" id="left" d="m151 90h-151v240h151zm-30 111.210938-4.394531 4.394531c-16.273438 16.273437-25.605469 38.804687-25.605469 61.816406v17.578125h-30v-17.578125c0-28.769531 10.867188-56.980469 30-78.382813v-9.039062h-30v15h-30v-45h90zm0 0"><animate attributeName="d" values="m151 90h-151v240h151zm-30 111.210938-4.394531 4.394531c-16.273438 16.273437-25.605469 38.804687-25.605469 61.816406v17.578125h-30v-17.578125c0-28.769531 10.867188-56.980469 30-78.382813v-9.039062h-30v15h-30v-45h90zm0 0;                      m151 60h-151v240h151zm-30 111.210938-4.394531 4.394531c-16.273438 16.273437-25.605469 38.804687-25.605469 61.816406v17.578125h-30v-17.578125c0-28.769531 10.867188-56.980469 30-78.382813v-9.039062h-30v15h-30v-45h90zm0 0;                      m151 90h-151v240h151zm-30 111.210938-4.394531 4.394531c-16.273438 16.273437-25.605469 38.804687-25.605469 61.816406v17.578125h-30v-17.578125c0-28.769531 10.867188-56.980469 30-78.382813v-9.039062h-30v15h-30v-45h90zm0 0;" dur="1s" repeatCount="indefinite"></animate></path><path fill="white" id="right" d="m361 330h151v-240h-151zm30-180h90v51.210938l-4.394531 4.394531c-16.273438 16.273437-25.605469 38.804687-25.605469 61.816406v17.578125h-30v-17.578125c0-28.769531 10.867188-56.980469 30-78.382813v-9.039062h-30v15h-30zm0 0"><animate attributeName="d" values="m361 330h151v-240h-151zm30-180h90v51.210938l-4.394531 4.394531c-16.273438 16.273437-25.605469 38.804687-25.605469 61.816406v17.578125h-30v-17.578125c0-28.769531 10.867188-56.980469 30-78.382813v-9.039062h-30v15h-30zm0 0;                    m361 300h151v-240h-151zm30-180h90v51.210938l-4.394531 4.394531c-16.273438 16.273437-25.605469 38.804687-25.605469 61.816406v17.578125h-30v-17.578125c0-28.769531 10.867188-56.980469 30-78.382813v-9.039062h-30v15h-30zm0 0;                    m361 330h151v-240h-151zm30-180h90v51.210938l-4.394531 4.394531c-16.273438 16.273437-25.605469 38.804687-25.605469 61.816406v17.578125h-30v-17.578125c0-28.769531 10.867188-56.980469 30-78.382813v-9.039062h-30v15h-30zm0 0;" dur="1s" repeatCount="indefinite"></animate></path></svg>