<svg width="133" height="24" viewBox="0 0 133 24" fill="none" xmlns="http://www.w3.org/2000/svg">
<g id="Logo / Main">
<path id="Vector" d="M24.9523 7.63782C24.9104 7.5644 24.8894 7.49098 24.8894 7.41756C24.8894 7.34414 24.9104 7.26023 24.9523 7.1973C25.5922 6.08551 25.8019 4.71151 25.3509 3.26408C24.8894 1.80617 23.6937 0.631445 22.2358 0.211902C20.2639 -0.36497 18.4075 0.285322 17.2432 1.57542C17.1908 1.63835 17.1279 1.68031 17.0544 1.70128C16.981 1.72226 16.9076 1.73275 16.8237 1.70128C15.3133 1.32369 13.6981 1.18734 12.0409 1.36565C11.4221 1.42858 10.8242 1.54396 10.2369 1.6908C10.1425 1.71177 10.0481 1.70128 9.96416 1.66982C9.91171 1.64884 9.85927 1.60689 9.81731 1.56493C8.64259 0.285325 6.7966 -0.36497 4.83524 0.211902C3.37733 0.641934 2.17114 1.80617 1.70964 3.25359C1.25863 4.69053 1.45791 6.06453 2.08723 7.17632C2.12918 7.23926 2.15016 7.32316 2.15016 7.39658C2.15016 7.48049 2.12918 7.55391 2.08723 7.62733C1.02788 9.29502 0.314656 11.2144 0.0839074 13.2597C0.0314645 13.7632 0 14.2561 0 14.7386C0 16.4797 0.618825 18.0635 1.6572 19.3116C3.02071 20.9373 5.07647 21.9652 7.3525 21.9652H19.8759C22.2778 21.9652 24.4069 20.7695 25.718 18.934C26.5466 17.7698 27.0396 16.3538 27.0396 14.8225C27.0396 12.1899 26.2844 9.73554 24.9838 7.6588L24.9523 7.63782ZM10.4361 14.0673C10.4361 14.6862 10.153 15.2316 9.72292 15.6091C9.3768 15.9028 8.92579 16.0811 8.43283 16.0811H6.31413C5.46455 16.0811 4.81426 15.5882 4.4996 14.9379C4.16397 14.2247 4.23739 13.3226 4.89817 12.6619L7.01687 10.5432C7.64618 9.91384 8.48526 9.81944 9.188 10.1026C9.89073 10.3858 10.4466 11.0571 10.4466 11.9591V14.0778L10.4361 14.0673ZM16.4042 18.0215C15.6804 18.8082 14.6421 19.2906 13.4883 19.2906C12.3346 19.2906 11.2962 18.7977 10.5725 18.0215C10.4152 17.8537 10.4047 17.6334 10.4991 17.4551C10.583 17.3083 10.7298 17.1929 10.9291 17.1929H16.0475C16.2573 17.1929 16.4251 17.3188 16.4985 17.4866C16.572 17.6544 16.551 17.8537 16.4042 18.011V18.0215ZM22.477 14.9274C22.1729 15.5777 21.5226 16.0706 20.6625 16.0706H18.5438C17.8516 16.0706 17.2432 15.7245 16.8866 15.1896C16.6664 14.8645 16.5405 14.4869 16.5405 14.0673V11.9486C16.5405 11.0047 17.1488 10.3019 17.9145 10.0502C18.5858 9.81944 19.3724 9.94531 19.9703 10.5327L22.089 12.6514C22.7497 13.3121 22.8232 14.2142 22.477 14.9274Z" fill="#1FE88A"/>
<path id="Vector_2" d="M34.1094 19.4795V4.02979H41.315C42.71 4.02979 43.8533 4.41786 44.7553 5.20451C45.6468 5.99115 46.0978 7.00854 46.0978 8.2462C46.0978 9.48385 45.479 10.7425 44.2413 11.5081C45.1119 11.8228 45.7727 12.3053 46.2237 12.9556C46.6747 13.6059 46.9054 14.3506 46.9054 15.1791C46.9054 16.4483 46.4649 17.4761 45.5734 18.2733C44.6819 19.0704 43.5281 19.469 42.1017 19.469H34.1094V19.4795ZM37.1825 10.5117H40.906C41.5248 10.5117 42.0178 10.3334 42.3849 9.9873C42.7415 9.63069 42.9303 9.16919 42.9303 8.59232C42.9303 8.01545 42.731 7.53297 42.3324 7.18685C41.9339 6.84072 41.4199 6.67291 40.8011 6.67291H37.193V10.5222L37.1825 10.5117ZM37.1825 16.8468H41.5982C42.2066 16.8468 42.6995 16.6685 43.0771 16.3224C43.4547 15.9658 43.6435 15.5148 43.6435 14.9484C43.6435 14.382 43.4547 13.8576 43.0876 13.4905C42.7205 13.1234 42.2275 12.9346 41.6087 12.9346H37.193V16.8468H37.1825Z" fill="#F5F7F8"/>
<path id="Vector_3" d="M101.479 8.32994C102.758 8.32994 103.786 8.71802 104.594 9.50466C105.391 10.2808 105.79 11.3297 105.79 12.6198V19.4793H102.863V13.3645C102.863 12.6303 102.653 12.0534 102.234 11.6443C101.814 11.2353 101.269 11.0255 100.608 11.0255C99.9474 11.0255 99.3601 11.2353 98.8881 11.6443C98.4161 12.0534 98.1854 12.6303 98.1854 13.354V19.4688H95.2695V8.53971H98.049L98.1014 9.79834C98.4161 9.36831 98.8671 9.02218 99.4545 8.73899C100.042 8.4558 100.713 8.30896 101.468 8.30896L101.479 8.32994Z" fill="#F5F7F8"/>
<path id="Vector_4" d="M90.2017 8.56084L90.1492 9.72507C89.3416 8.80208 88.1564 8.34058 86.5936 8.34058C85.0308 8.34058 83.7722 8.8755 82.7863 9.95582C81.8003 11.0257 81.3074 12.3892 81.2969 14.0359C81.2969 15.6826 81.7898 17.0461 82.7863 18.1159C83.7722 19.1858 85.0413 19.7312 86.5936 19.7312C88.1459 19.7312 89.3416 19.2697 90.1492 18.3467L90.2017 19.5109H93.0651V8.58181H90.2017V8.56084ZM89.3206 16.1965C88.7543 16.7944 88.0515 17.0881 87.202 17.0881C86.3524 17.0881 85.6391 16.7944 85.0833 16.1965C84.5274 15.6092 84.2547 14.875 84.2442 14.0149C84.2442 13.1548 84.5274 12.4311 85.0833 11.8333C85.6391 11.2354 86.3524 10.9417 87.202 10.9417C88.0515 10.9417 88.7543 11.2354 89.3206 11.8333C89.8765 12.4206 90.1597 13.1548 90.1702 14.0149C90.1702 14.875 89.887 15.5987 89.3206 16.1965Z" fill="#F5F7F8"/>
<path id="Vector_5" d="M129.459 8.56084L129.407 9.72507C128.599 8.80208 127.414 8.34058 125.851 8.34058C124.289 8.34058 123.03 8.8755 122.044 9.95582C121.058 11.0257 120.565 12.3892 120.555 14.0359C120.555 15.6826 121.048 17.0461 122.044 18.1159C123.03 19.1858 124.299 19.7312 125.851 19.7312C127.404 19.7312 128.599 19.2697 129.407 18.3467L129.459 19.5109H132.323V8.58181H129.459V8.56084ZM128.578 16.1965C128.012 16.7944 127.309 17.0881 126.46 17.0881C125.61 17.0881 124.897 16.7944 124.341 16.1965C123.785 15.6092 123.512 14.875 123.502 14.0149C123.502 13.1548 123.785 12.4311 124.341 11.8333C124.897 11.2354 125.61 10.9417 126.46 10.9417C127.309 10.9417 128.012 11.2354 128.578 11.8333C129.134 12.4206 129.418 13.1548 129.428 14.0149C129.428 14.875 129.145 15.5987 128.578 16.1965Z" fill="#F5F7F8"/>
<path id="Vector_6" d="M116.194 4.02979V9.88241C115.365 8.85453 114.159 8.3301 112.586 8.3301C111.013 8.3301 109.764 8.86502 108.778 9.92437C107.793 10.9837 107.289 12.3472 107.289 14.0149C107.289 15.6826 107.782 17.0356 108.778 18.1055C109.764 19.1753 111.033 19.7207 112.586 19.7207C114.138 19.7207 115.334 19.2592 116.141 18.3362L116.194 19.5004H119.057V4.05076H116.194V4.02979ZM115.313 16.1965C114.746 16.7944 114.044 17.0881 113.194 17.0881C112.345 17.0881 111.631 16.7944 111.075 16.1965C110.52 15.5987 110.236 14.8645 110.236 13.9939C110.236 13.1234 110.509 12.3787 111.065 11.8018C111.621 11.225 112.324 10.9418 113.194 10.9418C114.065 10.9418 114.757 11.2354 115.323 11.8123C115.89 12.3892 116.162 13.1234 116.162 13.9939C116.162 14.8645 115.879 15.5987 115.313 16.1965Z" fill="#F5F7F8"/>
<path id="Vector_7" d="M58.8941 12.1689C58.6948 11.3298 58.3487 10.6376 57.8662 10.0817C57.3837 9.52577 56.7859 9.09574 56.0727 8.78108C55.3594 8.46642 54.5833 8.31958 53.7442 8.31958C52.108 8.31958 50.7654 8.8545 49.7166 9.91385C48.6572 10.9732 48.1328 12.3367 48.1328 14.0149C48.1328 15.6931 48.7097 17.0985 49.8634 18.1369C51.0172 19.1753 52.559 19.6997 54.4784 19.6997C56.3978 19.6997 57.0586 19.4375 58.1494 18.9131V16.3329C56.9957 16.8783 55.779 17.1405 54.4889 17.1405C53.1988 17.1405 52.7793 16.9517 52.1709 16.5741C51.5521 16.1965 51.1745 15.6301 51.0381 14.8854H58.9361C59.1144 13.91 59.0934 12.9975 58.8941 12.1689ZM51.9192 11.3822C52.4122 10.9837 53.052 10.7739 53.8176 10.7739C54.5833 10.7739 55.1392 10.9732 55.5902 11.3822C55.9888 11.7284 56.209 12.1794 56.2929 12.7038H51.1325C51.2374 12.1794 51.4892 11.7389 51.9297 11.3822H51.9192Z" fill="#F5F7F8"/>
<path id="Vector_8" d="M71.1212 23.9999V18.1473C71.9498 19.1751 73.156 19.6996 74.7293 19.6996C76.3026 19.6996 77.5507 19.1646 78.5366 18.1053C79.5226 17.046 80.026 15.6824 80.026 14.0148C80.026 12.3471 79.533 10.994 78.5366 9.9242C77.5507 8.85437 76.2816 8.30896 74.7293 8.30896C73.177 8.30896 71.9813 8.77046 71.1736 9.69345L71.1212 8.52922H68.2578V23.9789H71.1212V23.9999ZM72.0022 11.8331C72.5686 11.2353 73.2713 10.9416 74.1209 10.9416C74.9705 10.9416 75.6837 11.2353 76.2396 11.8331C76.7955 12.431 77.0787 13.1652 77.0787 14.0357C77.0787 14.9063 76.806 15.651 76.2501 16.2278C75.6942 16.8047 74.9915 17.0879 74.1209 17.0879C73.2504 17.0879 72.5581 16.7942 71.9917 16.2174C71.4254 15.6405 71.1527 14.9063 71.1527 14.0357C71.1527 13.1652 71.4358 12.431 72.0022 11.8331Z" fill="#F5F7F8"/>
<path id="Vector_9" d="M66.5815 16.9307C66.0781 17.0461 65.5851 17.109 65.1026 17.109C64.6201 17.109 64.2006 16.9727 63.9174 16.7C63.6342 16.4273 63.4874 16.0182 63.4874 15.4623V10.9627H66.5815V8.53986H63.4139V6.04358H60.582V15.8819C60.582 17.13 60.9282 18.0845 61.6519 18.7243C62.3756 19.3641 63.351 19.6892 64.5887 19.6892C65.8263 19.6892 65.9941 19.6053 66.5815 19.4585V16.9097V16.9307Z" fill="#F5F7F8"/>
</g>
</svg>
