<svg width="12" height="12" viewBox="0 0 12 12" fill="none" xmlns="http://www.w3.org/2000/svg">
                                    <g clip-path="url(#clip0_223_170)">
                                      <path
                                        d="M3.29259 1.70708L7.58559 6.00008L3.29259 10.2931C3.11043 10.4817 3.00964 10.7343 3.01192 10.9965C3.0142 11.2587 3.11937 11.5095 3.30477 11.6949C3.49018 11.8803 3.74099 11.9855 4.00319 11.9878C4.26539 11.99 4.51799 11.8892 4.70659 11.7071L9.70659 6.70708C9.89406 6.51955 9.99938 6.26525 9.99938 6.00008C9.99938 5.73492 9.89406 5.48061 9.70659 5.29308L4.70659 0.293081C4.61435 0.197571 4.504 0.121388 4.382 0.0689793C4.25999 0.0165701 4.12877 -0.0110159 3.99599 -0.0121698C3.86322 -0.0133238 3.73154 0.0119791 3.60864 0.0622597C3.48574 0.11254 3.37409 0.186793 3.2802 0.280686C3.18631 0.374579 3.11205 0.486231 3.06177 0.609127C3.01149 0.732023 2.98619 0.863703 2.98734 0.996482C2.9885 1.12926 3.01608 1.26048 3.06849 1.38249C3.1209 1.50449 3.19708 1.61483 3.29259 1.70708Z"
                                        fill="black"
                                      ></path>
                                    </g>
                                    <defs>
                                      <clipPath id="clip0_223_170">
                                        <rect width="12" height="12" fill="blanco" transform="translate(0 12) rotate(-90)"></rect>
                                      </clipPath>
                                    </defs>
                                  </svg>