<svg width="16" height="16" viewBox="0 0 16 16" fill="none" xmlns="http://www.w3.org/2000/svg">
<g clip-path="url(#clip0_2692_18995)">
<path d="M14.7 6.95335e-05L0.7 4.00007C0.3 4.20007 0 4.60007 0 5.00007V9.00007C0 9.40007 0.3 9.80007 0.7 10.0001L2 10.3001V14.0001C2 14.6001 2.4 15.0001 3 15.0001H8C8.6 15.0001 9 14.6001 9 14.0001V12.3001L14.7 13.9001C15.3 14.1001 16 13.6001 16 12.9001V1.00007C16 0.30007 15.4 -0.0999305 14.7 6.95335e-05ZM7 13.0001H4V10.9001L7 11.8001V13.0001Z" fill="#96ACC1"/>
</g>
<defs>
<clipPath id="clip0_2692_18995">
<rect width="16" height="16" fill="white"/>
</clipPath>
</defs>
</svg>
