<svg width="16" height="16" viewBox="0 0 16 16" fill="none" xmlns="http://www.w3.org/2000/svg">
<path fill-rule="evenodd" clip-rule="evenodd" d="M1.915 6.48315C1.86036 6.49188 1.80527 6.49756 1.75 6.50015C1.40388 6.50015 1.06554 6.39752 0.777753 6.20522C0.489967 6.01293 0.265665 5.73962 0.133212 5.41985C0.000758258 5.10008 -0.0338976 4.74821 0.0336265 4.40874C0.101151 4.06928 0.267822 3.75746 0.512564 3.51271C0.757306 3.26797 1.06913 3.1013 1.40859 3.03378C1.74806 2.96625 2.09993 3.00091 2.4197 3.13336C2.73947 3.26582 3.01278 3.49012 3.20507 3.7779C3.39737 4.06569 3.5 4.40403 3.5 4.75015C3.498 5.03932 3.42339 5.32334 3.283 5.57615L5.751 8.04415L7.112 3.25015C6.78116 3.05533 6.52357 2.7571 6.37893 2.40144C6.23429 2.04578 6.21063 1.65242 6.31159 1.28199C6.41256 0.911557 6.63255 0.584609 6.93766 0.351532C7.24276 0.118455 7.61605 -0.0078125 8 -0.0078125C8.38395 -0.0078125 8.75724 0.118455 9.06235 0.351532C9.36745 0.584609 9.58744 0.911557 9.68841 1.28199C9.78937 1.65242 9.76571 2.04578 9.62108 2.40144C9.47644 2.7571 9.21885 3.05533 8.888 3.25015L10.249 8.04415L12.717 5.57615C12.5766 5.32334 12.502 5.03932 12.5 4.75015C12.5 4.40403 12.6026 4.06569 12.7949 3.7779C12.9872 3.49012 13.2605 3.26582 13.5803 3.13336C13.9001 3.00091 14.2519 2.96625 14.5914 3.03378C14.9309 3.1013 15.2427 3.26797 15.4874 3.51271C15.7322 3.75746 15.8989 4.06928 15.9664 4.40874C16.0339 4.74821 15.9992 5.10008 15.8668 5.41985C15.7343 5.73962 15.51 6.01293 15.2222 6.20522C14.9345 6.39752 14.5961 6.50015 14.25 6.50015C14.1947 6.49756 14.1396 6.49188 14.085 6.48315L12.462 12.0002H3.538L1.915 6.48315ZM2 14.0001H14C14.5523 14.0001 15 14.4478 15 15.0001C15 15.5524 14.5523 16.0001 14 16.0001H2C1.44772 16.0001 1 15.5524 1 15.0001C1 14.4478 1.44772 14.0001 2 14.0001Z" fill="#96ACC1"/>
</svg>
