<svg width="16" height="16" viewBox="0 0 16 16" fill="none" xmlns="http://www.w3.org/2000/svg">
<g clip-path="url(#clip0_3330_10825)">
<path d="M15.968 1.68397C15.9555 1.62493 15.9273 1.57032 15.8865 1.52583C15.8457 1.48134 15.7937 1.44859 15.736 1.43097C15.5258 1.38905 15.3081 1.4046 15.106 1.47597C15.106 1.47597 1.08701 6.51397 0.286008 7.07197C0.114008 7.19297 0.0560078 7.26197 0.0270078 7.34397C-0.110992 7.74397 0.320008 7.91697 0.320008 7.91697L3.93301 9.09397C3.99401 9.10498 4.05676 9.10121 4.11601 9.08297C4.93801 8.56397 12.386 3.86097 12.816 3.70297C12.884 3.68297 12.934 3.70297 12.916 3.75197C12.744 4.35197 6.31001 10.071 6.27501 10.106C6.25793 10.1202 6.24456 10.1384 6.23603 10.159C6.2275 10.1795 6.22406 10.2018 6.22601 10.224L5.88901 13.752C5.88901 13.752 5.74701 14.852 6.84501 13.752C7.62401 12.973 8.37201 12.327 8.74501 12.014C9.98701 12.872 11.324 13.82 11.901 14.314C11.9976 14.4081 12.1123 14.4817 12.2381 14.5303C12.3639 14.5789 12.4982 14.6016 12.633 14.597C12.799 14.5765 12.9548 14.506 13.0798 14.3949C13.2048 14.2838 13.2931 14.1374 13.333 13.975C13.333 13.975 15.894 3.69997 15.979 2.31697C15.987 2.18197 16 2.09997 16 1.99997C16.0037 1.89368 15.9929 1.78738 15.968 1.68397Z" fill="#96ACC1"/>
</g>
<defs>
<clipPath id="clip0_3330_10825">
<rect width="16" height="16" fill="white"/>
</clipPath>
</defs>
</svg>
