<svg width="130" height="32" viewBox="0 0 130 32" fill="none" xmlns="http://www.w3.org/2000/svg">
<g clip-path="url(#clip0_3446_2782)">
<path d="M34.1641 11.3413H47.327V13.8028H42.1513V27.6404H39.3053V13.8028H34.1526V11.3413H34.1641ZM46.7647 15.8388H49.1976V18.1163H49.2435C49.3238 17.7942 49.473 17.4837 49.6911 17.1846C49.9091 16.8855 50.1731 16.598 50.4829 16.3564C50.7928 16.1033 51.137 15.9078 51.5158 15.7468C51.8945 15.5972 52.2846 15.5167 52.6748 15.5167C52.9732 15.5167 53.1913 15.5282 53.306 15.5397C53.4208 15.5512 53.5355 15.5742 53.6618 15.5857V18.0933C53.4782 18.0588 53.2945 18.0358 53.0994 18.0128C52.9044 17.9898 52.7207 17.9783 52.5371 17.9783C52.101 17.9783 51.6879 18.0703 51.2977 18.2428C50.9075 18.4154 50.5747 18.6799 50.2878 19.0135C50.0009 19.3586 49.7714 19.7727 49.5993 20.2788C49.4271 20.7849 49.3468 21.36 49.3468 22.0156V27.6289H46.7532V15.8388H46.7647ZM65.5853 27.6404H63.0376V25.9955H62.9917C62.6704 26.5936 62.1999 27.0652 61.5687 27.4218C60.9375 27.7784 60.2949 27.9624 59.6408 27.9624C58.0915 27.9624 56.9669 27.5829 56.2783 26.8122C55.5897 26.0415 55.2455 24.8798 55.2455 23.3269V15.8388H57.839V23.0739C57.839 24.1091 58.0341 24.8453 58.4358 25.2709C58.826 25.6964 59.3883 25.915 60.0998 25.915C60.6506 25.915 61.0982 25.8345 61.4654 25.6619C61.8327 25.4894 62.131 25.2709 62.3491 24.9833C62.5786 24.7072 62.7393 24.3622 62.8426 23.9711C62.9458 23.58 62.9917 23.1544 62.9917 22.6943V15.8503H65.5853V27.6404ZM70.0036 23.856C70.0839 24.6152 70.3708 25.1443 70.8643 25.4549C71.3692 25.754 71.966 25.915 72.666 25.915C72.907 25.915 73.1824 25.892 73.4923 25.8575C73.8021 25.823 74.1005 25.7425 74.3644 25.6389C74.6399 25.5354 74.8579 25.3744 75.0415 25.1673C75.2137 24.9603 75.294 24.6957 75.2825 24.3622C75.271 24.0286 75.1448 23.7525 74.9153 23.5455C74.6858 23.3269 74.3989 23.1659 74.0431 23.0279C73.6874 22.9013 73.2857 22.7863 72.8267 22.6943C72.3676 22.6023 71.9086 22.4987 71.4381 22.3952C70.9561 22.2917 70.4856 22.1537 70.038 22.0041C69.5904 21.8546 69.1888 21.6476 68.833 21.383C68.4773 21.1299 68.1904 20.7964 67.9838 20.3938C67.7658 19.9912 67.6625 19.4966 67.6625 18.8985C67.6625 18.2543 67.8231 17.7252 68.133 17.2881C68.4428 16.851 68.8445 16.5059 69.315 16.2414C69.797 15.9768 70.3249 15.7928 70.9102 15.6778C71.4955 15.5742 72.0578 15.5167 72.5857 15.5167C73.1939 15.5167 73.7792 15.5857 74.33 15.7123C74.8809 15.8388 75.3858 16.0458 75.8334 16.3449C76.2809 16.6325 76.6482 17.012 76.9465 17.4721C77.2449 17.9322 77.4285 18.4959 77.5089 19.1515H74.8005C74.6743 18.5304 74.3989 18.1048 73.9513 17.8977C73.5038 17.6792 72.9873 17.5757 72.4135 17.5757C72.2299 17.5757 72.0119 17.5872 71.7594 17.6217C71.5069 17.6562 71.2774 17.7137 71.0479 17.7942C70.8298 17.8747 70.6462 18.0013 70.4856 18.1623C70.3364 18.3233 70.256 18.5304 70.256 18.7949C70.256 19.117 70.3708 19.3701 70.5888 19.5656C70.8069 19.7612 71.0938 19.9222 71.4495 20.0602C71.8053 20.1867 72.207 20.3018 72.666 20.3938C73.125 20.4858 73.5956 20.5893 74.0775 20.6929C74.5481 20.7964 75.0071 20.9344 75.4661 21.0839C75.9252 21.2335 76.3268 21.4405 76.6826 21.7051C77.0384 21.9696 77.3253 22.2917 77.5433 22.6828C77.7613 23.0739 77.8761 23.5685 77.8761 24.1436C77.8761 24.8453 77.7154 25.4319 77.3941 25.9265C77.0728 26.4096 76.6596 26.8122 76.1547 27.1113C75.6498 27.4103 75.076 27.6404 74.4563 27.7784C73.8366 27.9164 73.2169 27.9854 72.6086 27.9854C71.8627 27.9854 71.1741 27.9049 70.5429 27.7324C69.9118 27.5599 69.3609 27.3068 68.9019 26.9732C68.4428 26.6281 68.0756 26.2026 67.8117 25.6964C67.5477 25.1903 67.41 24.5807 67.3871 23.8791H70.0036V23.856ZM78.5647 15.8388H80.5271V12.296H83.1206V15.8388H85.4617V17.7827H83.1206V24.0861C83.1206 24.3622 83.1321 24.5922 83.1551 24.7993C83.178 24.9948 83.2354 25.1673 83.3157 25.3054C83.396 25.4434 83.5223 25.5469 83.6944 25.6159C83.8666 25.6849 84.0846 25.7195 84.383 25.7195C84.5666 25.7195 84.7502 25.7195 84.9338 25.7079C85.1174 25.6964 85.3011 25.6734 85.4847 25.6274V27.6404C85.1978 27.6749 84.9109 27.6979 84.6469 27.7324C84.3715 27.7669 84.0961 27.7784 83.8092 27.7784C83.1206 27.7784 82.5698 27.7094 82.1566 27.5829C81.7435 27.4563 81.4107 27.2608 81.1812 27.0077C80.9402 26.7547 80.791 26.4441 80.6992 26.0645C80.6189 25.6849 80.5615 25.2478 80.55 24.7647V17.8057H78.5876V15.8388H78.5647ZM87.2979 15.8388H89.7537V17.4376H89.7997C90.1669 16.7475 90.6718 16.2644 91.326 15.9653C91.9801 15.6663 92.6801 15.5167 93.449 15.5167C94.3786 15.5167 95.1819 15.6778 95.8705 16.0113C96.559 16.3334 97.1328 16.782 97.5919 17.3571C98.0509 17.9322 98.3837 18.5994 98.6132 19.3586C98.8427 20.1177 98.9575 20.9344 98.9575 21.7971C98.9575 22.5908 98.8542 23.3614 98.6476 24.0976C98.4411 24.8453 98.1312 25.5009 97.7181 26.076C97.305 26.6512 96.7771 27.0998 96.1344 27.4448C95.4917 27.7899 94.7458 27.9624 93.8736 27.9624C93.4949 27.9624 93.1162 27.9279 92.7375 27.8589C92.3588 27.7899 91.9916 27.6749 91.6473 27.5253C91.303 27.3758 90.9702 27.1803 90.6833 26.9387C90.3849 26.6972 90.1439 26.4211 89.9374 26.1105H89.8915V31.9998H87.2979V15.8388ZM96.3639 21.7511C96.3639 21.222 96.2951 20.7044 96.1574 20.1982C96.0196 19.6921 95.8131 19.255 95.5376 18.864C95.2622 18.4729 94.9179 18.1623 94.5163 17.9322C94.1031 17.7022 93.6326 17.5757 93.1047 17.5757C92.0145 17.5757 91.1882 17.9553 90.6374 18.7144C90.0866 19.4736 89.8111 20.4858 89.8111 21.7511C89.8111 22.3492 89.88 22.9013 90.0292 23.4074C90.1784 23.9136 90.3849 24.3507 90.6833 24.7187C90.9702 25.0868 91.3145 25.3744 91.7161 25.5814C92.1178 25.8 92.5883 25.9035 93.1162 25.9035C93.713 25.9035 94.2064 25.777 94.6196 25.5354C95.0327 25.2939 95.3655 24.9718 95.6294 24.5922C95.8934 24.2011 96.0885 23.764 96.2032 23.2694C96.3065 22.7748 96.3639 22.2687 96.3639 21.7511ZM100.943 11.3413H103.536V13.8028H100.943V11.3413ZM100.943 15.8388H103.536V27.6404H100.943V15.8388ZM105.855 11.3413H108.448V27.6404H105.855V11.3413ZM116.401 27.9624C115.46 27.9624 114.622 27.8014 113.888 27.4908C113.153 27.1803 112.534 26.7432 112.017 26.2026C111.512 25.6504 111.122 24.9948 110.858 24.2356C110.594 23.4765 110.456 22.6368 110.456 21.7281C110.456 20.8309 110.594 20.0027 110.858 19.2435C111.122 18.4844 111.512 17.8287 112.017 17.2766C112.522 16.7245 113.153 16.2989 113.888 15.9883C114.622 15.6778 115.46 15.5167 116.401 15.5167C117.342 15.5167 118.18 15.6778 118.914 15.9883C119.649 16.2989 120.268 16.736 120.785 17.2766C121.29 17.8287 121.68 18.4844 121.944 19.2435C122.208 20.0027 122.346 20.8309 122.346 21.7281C122.346 22.6368 122.208 23.4765 121.944 24.2356C121.68 24.9948 121.29 25.6504 120.785 26.2026C120.28 26.7547 119.649 27.1803 118.914 27.4908C118.18 27.8014 117.342 27.9624 116.401 27.9624ZM116.401 25.9035C116.975 25.9035 117.48 25.777 117.904 25.5354C118.329 25.2939 118.673 24.9718 118.949 24.5807C119.224 24.1896 119.419 23.741 119.557 23.2464C119.683 22.7518 119.752 22.2457 119.752 21.7281C119.752 21.222 119.683 20.7274 119.557 20.2213C119.431 19.7151 119.224 19.278 118.949 18.887C118.673 18.4959 118.329 18.1853 117.904 17.9438C117.48 17.7022 116.975 17.5757 116.401 17.5757C115.827 17.5757 115.322 17.7022 114.898 17.9438C114.473 18.1853 114.129 18.5074 113.853 18.887C113.578 19.278 113.383 19.7151 113.245 20.2213C113.119 20.7274 113.05 21.222 113.05 21.7281C113.05 22.2457 113.119 22.7518 113.245 23.2464C113.371 23.741 113.578 24.1896 113.853 24.5807C114.129 24.9718 114.473 25.2939 114.898 25.5354C115.322 25.7885 115.827 25.9035 116.401 25.9035ZM123.103 15.8388H125.065V12.296H127.659V15.8388H130V17.7827H127.659V24.0861C127.659 24.3622 127.67 24.5922 127.693 24.7993C127.716 24.9948 127.774 25.1673 127.854 25.3054C127.934 25.4434 128.061 25.5469 128.233 25.6159C128.405 25.6849 128.623 25.7195 128.921 25.7195C129.105 25.7195 129.289 25.7195 129.472 25.7079C129.656 25.6964 129.839 25.6734 130.023 25.6274V27.6404C129.736 27.6749 129.449 27.6979 129.185 27.7324C128.91 27.7669 128.634 27.7784 128.348 27.7784C127.659 27.7784 127.108 27.7094 126.695 27.5829C126.282 27.4563 125.949 27.2608 125.719 27.0077C125.479 26.7547 125.329 26.4441 125.238 26.0645C125.157 25.6849 125.1 25.2478 125.088 24.7647V17.8057H123.126V15.8388H123.103Z" fill="white"/>
<path d="M31.1344 11.3415H19.2452L15.5729 0L11.8891 11.3415L0 11.33L9.62835 18.3465L5.94456 29.6765L15.5729 22.6715L25.1898 29.6765L21.5175 18.3465L31.1344 11.3415Z" fill="white"/>
<path d="M22.3441 20.9117L21.5178 18.3467L15.5732 22.6716L22.3441 20.9117Z" fill="#A4A4A4"/>
</g>
<defs>
<clipPath id="clip0_3446_2782">
<rect width="130" height="32" rx="6" fill="white"/>
</clipPath>
</defs>
</svg>
